{"accessors":[{"bufferView":0,"componentType":5126,"count":1950,"max":[0.5,1.0,0.5],"min":[-0.5,-1.0,-0.5],"normalized":false,"type":"VEC3"},{"bufferView":1,"componentType":5126,"count":1950,"max":[1.0,0.0,1.0,1.0],"min":[-1.0,-2.157951530534774e-05,-1.0,1.0],"normalized":false,"type":"VEC4"},{"bufferView":2,"componentType":5126,"count":1950,"max":[1.0,1.0,1.0],"min":[-1.0,-1.0,-1.0],"normalized":false,"type":"VEC3"},{"bufferView":3,"componentType":5126,"count":1950,"max":[1.0,1.0],"min":[0.0,0.0],"normalized":false,"type":"VEC2"},{"bufferView":4,"componentType":5123,"count":10368,"max":[1949],"min":[0],"normalized":false,"type":"SCALAR"}],"asset":{"generator":"Godot Engine v4.6.3.stable.steam@7d41c59c457bd5a245092b4e7eb2d833e3b3f8c3","version":"2.0"},"bufferViews":[{"buffer":0,"byteLength":23400,"byteStride":12,"target":34962},{"buffer":0,"byteLength":31200,"byteOffset":23400,"byteStride":16,"target":34962},{"buffer":0,"byteLength":23400,"byteOffset":54600,"byteStride":12,"target":34962},{"buffer":0,"byteLength":15600,"byteOffset":78000,"byteStride":8,"target":34962},{"buffer":0,"byteLength":20736,"byteOffset":93600,"target":34963}],"buffers":[{"byteLength":114336,"uri":"...Player_Model_Base0.bin"}],"extensionsUsed":["GODOT_single_root"],"materials":[{"alphaMode":"BLEND","pbrMetallicRoughness":{"baseColorFactor":[0.0,0.0,1.0,0.5882353186607361],"metallicFactor":0.0,"roughnessFactor":1.0}}],"meshes":[{"primitives":[{"attributes":{"NORMAL":2,"POSITION":0,"TANGENT":1,"TEXCOORD_0":3},"indices":4,"material":0,"mode":4}]}],"nodes":[{"children":[1],"name":"Node3D"},{"mesh":0,"name":"Model","scale":[0.8999999761581421,0.8999999761581421,0.8999999761581421],"translation":[0.0,1.0,0.0]}],"scene":0,"scenes":[{"nodes":[0]}]}