# Blender 3.3.21
# www.blender.org
mtllib TST_statue2.mtl
o Cube_Material.001_0
v 0.109345 0.066294 -0.396259
v 0.174880 0.067648 -0.483644
v 0.133969 0.007072 -0.447753
v 0.086123 0.023084 -0.263757
v 0.100787 0.021480 -0.211763
v 0.111358 0.031772 -0.246772
v 0.166917 0.031938 -0.242722
v 0.152473 0.025017 -0.196850
v 0.216051 0.018862 -0.253802
v 0.139840 0.000641 -0.391926
v 0.107537 0.100652 -1.045741
v 0.180981 0.116874 -0.988554
v 0.037834 -0.000350 -1.014373
v 0.153496 0.561882 -0.828568
v 0.176656 0.529953 -1.005594
v 0.215058 0.525736 -0.838090
v 0.157507 0.675310 -1.020708
v 0.081729 0.667124 -1.054857
v 0.076227 0.722744 -0.976445
v 0.034510 0.795179 -0.807805
v 0.031863 0.768824 -0.858717
v 0.069491 0.782588 -0.858107
v 0.132954 0.858261 -0.986469
v 0.102325 0.864630 -0.979686
v 0.123034 0.877744 -0.971951
v 0.220096 0.511662 -0.641055
v 0.221456 0.513727 -0.622325
v 0.180561 0.538181 -0.641205
v 0.214307 0.513308 -0.660806
v 0.259085 0.535337 -0.649996
v 0.259435 0.576939 -0.621843
v 0.262440 0.525196 -0.629798
v 0.174804 0.659698 -1.025029
v 0.238858 0.623393 -1.006596
v 0.269560 0.564304 -0.927621
v 0.163127 0.667531 -0.917160
v 0.124428 0.615035 -0.864303
v 0.218850 0.653534 -0.898169
v 0.153496 0.561882 -0.828568
v 0.158814 0.609641 -0.796829
v 0.211318 0.654844 -0.857846
v 0.258312 0.531815 -0.610168
v 0.088513 0.885215 -0.900879
v 0.065884 0.925303 -0.858297
v 0.054606 0.906288 -0.859111
v 0.064514 0.888918 -0.840879
v 0.000000 0.871542 -0.798184
v 0.000000 0.839805 -0.787620
v 0.026938 0.868314 -0.820177
v 0.169415 0.017721 -0.491619
v 0.189767 0.099598 -0.445225
v 0.123112 0.104449 -0.401579
v 0.000000 0.917225 -0.832195
v 0.049589 0.834658 -0.822339
v 0.000000 0.892475 -0.785691
v 0.093644 0.817609 -0.923263
v 0.092864 0.822989 -0.953885
v 0.115357 0.820386 -0.953783
v 0.100829 0.866644 -0.950977
v 0.100829 0.866644 -0.950977
v 0.099672 0.923625 -0.988651
v 0.100720 0.928667 -0.957924
v 0.079172 0.778786 -0.953169
v 0.085352 0.802532 -0.996820
v 0.092864 0.822989 -0.953885
v -0.094211 0.063086 -0.387919
v -0.116334 0.005000 -0.440624
v -0.148126 0.066601 -0.482495
v -0.080143 0.023084 -0.254971
v -0.106467 0.031772 -0.239731
v -0.098286 0.021479 -0.204087
v -0.162173 0.031938 -0.239447
v -0.210448 0.018863 -0.253825
v -0.150862 0.025016 -0.192702
v -0.127249 0.000015 -0.385265
v -0.109027 0.104286 -1.045673
v -0.037834 -0.000350 -1.014373
v -0.178745 0.126487 -0.986496
v -0.157096 0.546181 -0.835144
v -0.227350 0.524811 -0.839532
v -0.170884 0.529872 -1.006572
v -0.156825 0.674644 -1.020770
v -0.076227 0.722744 -0.976445
v -0.081036 0.667074 -1.054958
v -0.034510 0.795179 -0.807805
v -0.069491 0.782588 -0.858107
v -0.031863 0.768824 -0.858717
v -0.132954 0.858261 -0.986469
v -0.123034 0.877744 -0.971951
v -0.102325 0.864630 -0.979686
v -0.251108 0.503907 -0.642065
v -0.206846 0.490873 -0.650923
v -0.248081 0.501961 -0.622926
v -0.248047 0.504588 -0.662933
v -0.256849 0.548366 -0.640031
v -0.264613 0.541050 -0.619809
v -0.221549 0.568587 -0.610985
v -0.235370 0.618348 -1.006250
v -0.172506 0.657455 -1.025238
v -0.269134 0.566099 -0.924428
v -0.164710 0.668231 -0.917301
v -0.222553 0.652994 -0.897804
v -0.120848 0.609939 -0.868359
v -0.148971 0.585543 -0.801292
v -0.157096 0.546181 -0.835144
v -0.202844 0.650257 -0.854933
v -0.255326 0.537313 -0.601131
v -0.088513 0.885215 -0.900879
v -0.054606 0.906288 -0.859111
v -0.065884 0.925303 -0.858297
v -0.064514 0.888918 -0.840879
v -0.026938 0.868314 -0.820177
v -0.147480 0.016086 -0.487231
v -0.162770 0.102268 -0.449603
v -0.103021 0.102881 -0.397390
v -0.049589 0.834658 -0.822339
v -0.093644 0.817609 -0.923263
v -0.115357 0.820386 -0.953783
v -0.092864 0.822989 -0.953885
v -0.100829 0.866644 -0.950977
v -0.100829 0.866644 -0.950977
v -0.100720 0.928667 -0.957924
v -0.099672 0.923625 -0.988651
v -0.079172 0.778786 -0.953169
v -0.092864 0.822989 -0.953885
v -0.085352 0.802532 -0.996820
v 0.213652 0.041997 -0.365445
v 0.226188 0.057350 -0.475270
v 0.215213 0.093055 -0.425969
v 0.195804 0.083811 -0.365964
v 0.110441 0.067492 -0.396432
v 0.142104 0.000402 -0.391037
v 0.095912 -0.000346 -0.313680
v 0.090347 0.037215 -0.306916
v 0.121388 0.084474 -0.349013
v 0.129774 0.111690 -0.370645
v 0.122847 0.106090 -0.402249
v 0.121890 0.058505 -0.299384
v 0.212488 -0.002292 -0.372426
v 0.215925 0.007691 -0.477572
v 0.179017 0.088155 -0.332794
v 0.166685 0.102563 -0.345636
v 0.169194 0.061203 -0.289370
v 0.220082 0.029503 -0.295807
v 0.215337 -0.000001 -0.252429
v 0.221417 -0.000002 -0.293530
v 0.088049 -0.000000 -0.267163
v 0.096194 0.000000 -0.204457
v 0.148316 0.000000 -0.190839
v 0.139344 0.654570 -0.279511
v 0.139406 0.652162 -0.320518
v 0.108044 0.661402 -0.326903
v 0.105803 0.662553 -0.281736
v 0.103417 0.668202 -0.238438
v 0.139775 0.657654 -0.240052
v 0.086641 0.654521 -0.272714
v 0.081942 0.658782 -0.244503
v 0.094672 0.638725 -0.323980
v 0.159109 0.619540 -0.282075
v 0.156220 0.601464 -0.281693
v 0.155397 0.601880 -0.314332
v 0.157978 0.620081 -0.313123
v 0.166031 0.618111 -0.241891
v 0.162386 0.596476 -0.243502
v 0.089076 0.599167 -0.301875
v 0.076265 0.627753 -0.287348
v 0.121139 0.602325 -0.320627
v 0.073424 0.577859 -0.257844
v 0.065367 0.602577 -0.246250
v 0.120442 0.602518 -0.320381
v 0.123457 0.588946 -0.276935
v 0.102641 0.595637 -0.266333
v 0.087702 0.599446 -0.302788
v 0.083953 0.628322 -0.258417
v 0.078435 0.603936 -0.238589
v 0.099533 0.670331 -0.205600
v 0.137958 0.655919 -0.204402
v 0.076217 0.667177 -0.215549
v 0.098850 0.665707 -0.161851
v 0.133429 0.647590 -0.163439
v 0.100408 0.641694 -0.200728
v 0.099134 0.646544 -0.167415
v 0.088256 0.674834 -0.167785
v 0.091420 0.656030 -0.169266
v 0.166707 0.618895 -0.208194
v 0.161524 0.597256 -0.210067
v 0.167400 0.613209 -0.173648
v 0.162009 0.597829 -0.179895
v 0.124454 0.610108 -0.246474
v 0.102668 0.618854 -0.240141
v 0.126427 0.629497 -0.204839
v 0.100408 0.641694 -0.200728
v 0.124605 0.631091 -0.176894
v 0.099134 0.646544 -0.167415
v 0.097551 0.622051 -0.128867
v 0.098165 0.631463 -0.119453
v 0.098252 0.645247 -0.128898
v 0.098891 0.632352 -0.142645
v 0.097551 0.622051 -0.128867
v 0.098891 0.632352 -0.142645
v 0.123639 0.617183 -0.148409
v 0.119678 0.599167 -0.134731
v 0.083861 0.628342 -0.258472
v 0.079506 0.603698 -0.238052
v 0.089957 0.576697 -0.245271
v 0.084402 0.632179 -0.241418
v 0.075591 0.569742 -0.228614
v 0.069874 0.585954 -0.222772
v 0.061457 0.584296 -0.228082
v 0.066154 0.566621 -0.235428
v 0.077894 0.569224 -0.227671
v 0.072096 0.585461 -0.221697
v 0.068383 0.566139 -0.234283
v 0.076216 0.577263 -0.256325
v 0.065822 0.566692 -0.235598
v 0.084401 0.632180 -0.241418
v 0.119678 0.599167 -0.134731
v 0.128714 0.609832 -0.124920
v 0.131233 0.626148 -0.131651
v 0.078382 0.643913 -0.216072
v 0.065907 0.672979 -0.171071
v 0.072546 0.655227 -0.174251
v 0.079869 0.643975 -0.117463
v 0.077349 0.655379 -0.112733
v 0.062518 0.655893 -0.116507
v 0.066053 0.642676 -0.122716
v 0.084905 0.653323 -0.142312
v 0.081995 0.667988 -0.134766
v 0.066053 0.642676 -0.122716
v 0.069554 0.651707 -0.148173
v 0.084905 0.653323 -0.142312
v 0.079869 0.643975 -0.117463
v 0.062853 0.667064 -0.140424
v 0.069554 0.651707 -0.148173
v 0.152741 0.576915 -0.155155
v 0.157950 0.588898 -0.169622
v 0.163503 0.599988 -0.156951
v 0.157414 0.585931 -0.144472
v 0.091420 0.656030 -0.169266
v 0.072546 0.655227 -0.174251
v 0.078382 0.643913 -0.216072
v 0.117658 0.119263 -0.834695
v 0.018808 0.117250 -0.809021
v 0.040903 0.196934 -0.786072
v 0.098652 0.257313 -0.853859
v 0.000000 0.644016 -0.833688
v 0.163385 0.667401 -0.918051
v 0.047658 0.693779 -0.900086
v 0.000000 0.687625 -0.883809
v 0.184959 0.688767 -0.957307
v 0.088098 0.724074 -0.946525
v 0.183517 0.247963 -0.897867
v 0.168900 0.371100 -0.873933
v 0.113412 0.408999 -0.821594
v 0.132328 0.249212 -0.817393
v 0.190573 0.684175 -0.966034
v 0.253974 0.668546 -0.954151
v 0.000000 0.430045 -0.770088
v 0.000000 0.247554 -0.780639
v 0.163918 0.544332 -1.027572
v 0.139650 0.386681 -0.954200
v 0.071031 0.392120 -0.998790
v 0.093418 0.531243 -1.058316
v 0.143790 0.234970 -0.978891
v 0.064789 0.234288 -1.020291
v 0.160788 0.554502 -0.840112
v 0.130879 0.608148 -0.865611
v 0.000000 0.544473 -0.776633
v 0.016789 -0.024130 -0.919218
v 0.000000 -0.036103 -0.919218
v 0.000000 -0.011726 -0.987120
v 0.016789 -0.024130 -0.919218
v 0.049955 -0.000109 -0.811086
v 0.000000 -0.013129 -0.817947
v 0.000000 -0.036103 -0.919218
v 0.061726 0.059689 -0.817964
v 0.088773 0.109374 -0.758812
v 0.146451 0.100759 -0.813394
v 0.000000 0.073093 -0.790726
v 0.077887 0.772880 -0.916561
v 0.031863 0.768047 -0.861421
v 0.000000 0.769566 -0.839284
v 0.000000 0.770559 -0.837823
v 0.000000 0.803706 -0.775332
v 0.000000 0.722625 -0.995839
v 0.000000 0.781036 -0.981855
v 0.054397 0.777077 -0.957112
v 0.077887 0.765377 -0.910122
v 0.082957 0.780699 -0.900818
v 0.000000 0.938367 -0.832710
v 0.063754 0.963656 -0.890956
v 0.000000 0.982432 -0.867737
v 0.063754 0.978452 -0.939540
v 0.000000 1.002566 -0.922307
v 0.060354 0.971630 -0.993895
v 0.097623 0.897625 -1.016352
v 0.060354 0.935913 -1.044576
v 0.093335 0.912548 -0.917952
v 0.000000 0.836664 -1.079151
v 0.054162 0.836105 -1.061618
v 0.053363 0.783876 -1.015020
v 0.000000 0.773184 -1.023934
v 0.292387 0.634349 -0.868643
v 0.269373 0.610823 -0.792274
v 0.269802 0.556867 -0.808201
v 0.208511 0.638118 -0.776336
v 0.227519 0.597331 -0.608850
v 0.184745 0.581042 -0.622958
v 0.245230 0.556383 -0.524247
v 0.190022 0.496059 -0.559151
v 0.239048 0.601385 -0.531381
v 0.137778 0.652676 -0.319654
v 0.155588 0.620949 -0.309898
v 0.147216 0.532377 -0.587543
v 0.152902 0.602797 -0.310544
v 0.119069 0.602897 -0.319897
v 0.148319 0.591134 -0.588422
v 0.218691 0.629811 -0.550897
v 0.180659 0.538139 -0.640924
v 0.147105 0.532409 -0.587652
v 0.092585 0.639122 -0.326091
v 0.106171 0.661813 -0.328391
v 0.119069 0.602897 -0.319897
v 0.094437 0.368354 -0.706409
v 0.159612 0.410367 -0.757825
v 0.088471 0.321933 -0.625924
v 0.167876 0.149515 -0.932250
v 0.217168 0.237042 -0.866593
v 0.063205 0.009955 -0.972960
v 0.191361 0.125258 -0.972988
v 0.236196 0.148091 -0.837968
v 0.163496 0.068437 -0.775291
v 0.068111 0.071281 -0.803537
v 0.091615 0.117962 -0.750362
v 0.095210 0.412187 -0.665243
v 0.144885 0.449403 -0.706039
v 0.091941 0.393445 -0.612353
v 0.239470 0.407970 -0.709056
v 0.241433 0.339582 -0.612956
v 0.160580 0.319973 -0.581099
v 0.088369 0.321874 -0.626043
v 0.097968 0.470725 -0.566549
v 0.099335 0.494054 -0.599545
v 0.142559 0.383687 -0.567233
v 0.207400 0.405039 -0.591288
v 0.188623 0.496470 -0.552452
v 0.136194 0.472850 -0.540369
v 0.203066 0.457381 -0.671484
v 0.091880 0.393846 -0.612471
v 0.107839 0.441937 -0.553662
v 0.101870 0.464626 -0.532196
v 0.194566 0.459633 -0.544982
v 0.152606 0.428587 -0.560626
v 0.135908 0.524951 -0.622088
v 0.185252 0.534121 -0.598202
v 0.097959 0.470733 -0.566530
v 0.115534 0.331195 -0.511513
v 0.109682 0.356581 -0.454660
v 0.230556 0.353274 -0.508959
v 0.173143 0.312213 -0.536422
v 0.128895 0.496778 -0.511102
v 0.180558 0.489823 -0.502107
v 0.108309 0.440566 -0.553788
v 0.216224 0.091939 -0.424872
v 0.190153 0.099324 -0.444967
v 0.219334 0.380921 -0.412725
v 0.150096 0.389942 -0.398128
v 0.165115 0.091382 -0.337255
v 0.196471 0.076101 -0.359829
v 0.117644 0.321218 -0.511050
v 0.123403 0.102646 -0.400843
v 0.129380 0.104774 -0.366814
v 0.123904 0.099692 -0.398976
v 0.054397 0.759494 -0.951389
v 0.000000 0.763613 -0.978548
v 0.087376 0.831055 -0.879756
v 0.152741 0.576915 -0.155155
v 0.157950 0.588898 -0.169622
v 0.162009 0.597829 -0.179895
v 0.161451 0.597276 -0.210054
v 0.162898 0.596330 -0.243667
v 0.158468 0.600782 -0.283013
v 0.156041 0.601644 -0.315310
v -0.000829 0.084741 -1.055884
v 0.000000 0.236013 -1.022617
v 0.000000 0.532596 -1.067685
v 0.000000 0.676900 -1.043011
v 0.000000 0.403094 -0.994835
v 0.180557 0.142988 -0.922324
v 0.085577 0.843326 -1.033064
v 0.093644 0.817609 -0.923263
v 0.060354 0.889989 -1.068484
v 0.088340 0.871627 -1.039168
v 0.102325 0.864630 -0.979686
v 0.000000 0.905522 -1.084359
v 0.000000 0.953163 -1.054227
v 0.000000 0.995473 -0.994517
v -0.201367 0.043315 -0.365075
v -0.182225 0.091678 -0.369420
v -0.191429 0.099991 -0.433489
v -0.201277 0.064022 -0.479477
v -0.095286 0.064646 -0.388260
v -0.082050 0.036905 -0.297959
v -0.087014 -0.000600 -0.305155
v -0.128745 0.000006 -0.384982
v -0.103061 0.104528 -0.397830
v -0.113663 0.112630 -0.367608
v -0.110554 0.085407 -0.342919
v -0.114144 0.058609 -0.292639
v -0.196293 0.010944 -0.477120
v -0.200246 -0.001083 -0.371650
v -0.154594 0.107981 -0.346439
v -0.169831 0.091422 -0.330966
v -0.161877 0.061685 -0.286023
v -0.211298 0.028406 -0.295366
v -0.213115 -0.000004 -0.293826
v -0.209828 -0.000001 -0.252407
v -0.081834 -0.000000 -0.258499
v -0.094198 -0.000000 -0.196487
v -0.147121 -0.000000 -0.186424
v -0.202243 0.352212 -0.289149
v -0.170569 0.360674 -0.280776
v -0.178543 0.403959 -0.303508
v -0.211938 0.396268 -0.315330
v -0.199316 0.317568 -0.267347
v -0.163941 0.323835 -0.255302
v -0.142868 0.326620 -0.265066
v -0.149239 0.349352 -0.282192
v -0.162098 0.386553 -0.318381
v -0.222162 0.338121 -0.323308
v -0.227776 0.371079 -0.342274
v -0.222017 0.360248 -0.357277
v -0.221651 0.330703 -0.339764
v -0.220358 0.291613 -0.324546
v -0.224522 0.299827 -0.304855
v -0.149190 0.346561 -0.343255
v -0.185201 0.363111 -0.352850
v -0.137838 0.349528 -0.311122
v -0.124192 0.302162 -0.312895
v -0.130813 0.299292 -0.340229
v -0.185282 0.362958 -0.352482
v -0.149094 0.346917 -0.342502
v -0.159766 0.314246 -0.331839
v -0.181848 0.319174 -0.344085
v -0.144054 0.324344 -0.298094
v -0.136880 0.295593 -0.309335
v -0.195952 0.285551 -0.251827
v -0.158954 0.296265 -0.237612
v -0.135867 0.305268 -0.243817
v -0.189120 0.245962 -0.239422
v -0.156155 0.255686 -0.220842
v -0.155043 0.251528 -0.240329
v -0.157220 0.278430 -0.260491
v -0.148235 0.258200 -0.232452
v -0.146610 0.265992 -0.215060
v -0.221606 0.269296 -0.287733
v -0.216194 0.261756 -0.307507
v -0.214035 0.234853 -0.292522
v -0.220451 0.236202 -0.276347
v -0.180311 0.301963 -0.311300
v -0.159105 0.302146 -0.299403
v -0.182261 0.274353 -0.274597
v -0.157220 0.278430 -0.260491
v -0.155043 0.251528 -0.240329
v -0.179477 0.250678 -0.259816
v -0.149879 0.206228 -0.243428
v -0.152626 0.223090 -0.241005
v -0.152532 0.217129 -0.223114
v -0.150910 0.202341 -0.230724
v -0.149879 0.206228 -0.243428
v -0.170214 0.198950 -0.267537
v -0.176216 0.219162 -0.258437
v -0.152626 0.223090 -0.241005
v -0.144063 0.324422 -0.298068
v -0.144678 0.287543 -0.337616
v -0.136804 0.294920 -0.309720
v -0.143477 0.311185 -0.286943
v -0.131700 0.270192 -0.333929
v -0.121861 0.274947 -0.339107
v -0.118824 0.277595 -0.319794
v -0.127349 0.273468 -0.316576
v -0.131622 0.269341 -0.334958
v -0.127240 0.272313 -0.317466
v -0.121881 0.274223 -0.340195
v -0.130869 0.298410 -0.341620
v -0.121858 0.275055 -0.338945
v -0.143478 0.311186 -0.286942
v -0.170214 0.198950 -0.267537
v -0.179722 0.194674 -0.254010
v -0.183870 0.208087 -0.243021
v -0.136084 0.294608 -0.264614
v -0.124331 0.269678 -0.217013
v -0.129572 0.263615 -0.234480
v -0.133669 0.207853 -0.217778
v -0.120011 0.212892 -0.220650
v -0.117360 0.213923 -0.205896
v -0.131934 0.209256 -0.205376
v -0.138493 0.234213 -0.205033
v -0.140454 0.233721 -0.221658
v -0.120011 0.212892 -0.220650
v -0.133669 0.207853 -0.217778
v -0.140454 0.233721 -0.221658
v -0.125266 0.239259 -0.225011
v -0.125266 0.239259 -0.225011
v -0.119581 0.240182 -0.207472
v -0.202066 0.203949 -0.298615
v -0.207056 0.198456 -0.285879
v -0.214797 0.215591 -0.279805
v -0.208835 0.221919 -0.295257
v -0.148235 0.258200 -0.232452
v -0.136084 0.294608 -0.264614
v -0.129572 0.263615 -0.234480
v -0.113763 0.115656 -0.834908
v -0.064015 0.250253 -0.845151
v -0.016673 0.177790 -0.779193
v -0.006918 0.098634 -0.807911
v -0.047658 0.693779 -0.900086
v -0.165143 0.668178 -0.918208
v -0.185362 0.688060 -0.957317
v -0.088195 0.724176 -0.946596
v -0.183517 0.247963 -0.897867
v -0.132328 0.249212 -0.817393
v -0.113517 0.407961 -0.822250
v -0.170214 0.367662 -0.875398
v -0.191409 0.682707 -0.966054
v -0.255441 0.664088 -0.953639
v -0.161182 0.544293 -1.028036
v -0.090518 0.531971 -1.058580
v -0.071031 0.392120 -0.998790
v -0.141831 0.384679 -0.955419
v -0.144326 0.235962 -0.978753
v -0.064789 0.234288 -1.020291
v -0.127599 0.603479 -0.869327
v -0.164007 0.540461 -0.845992
v -0.016789 -0.024130 -0.919218
v -0.016789 -0.024130 -0.919218
v -0.049955 -0.000109 -0.811087
v -0.082444 0.101800 -0.748322
v -0.060723 0.051102 -0.814286
v -0.146451 0.100759 -0.813393
v -0.031863 0.768047 -0.861421
v -0.077887 0.772880 -0.916561
v -0.054397 0.777077 -0.957112
v -0.082957 0.780699 -0.900818
v -0.077887 0.765377 -0.910122
v -0.063754 0.963656 -0.890956
v -0.063754 0.978452 -0.939540
v -0.060354 0.971630 -0.993895
v -0.060354 0.935913 -1.044576
v -0.097623 0.897625 -1.016352
v -0.093335 0.912548 -0.917952
v -0.053363 0.783876 -1.015020
v -0.054162 0.836105 -1.061618
v -0.281137 0.640248 -0.859289
v -0.270465 0.570979 -0.799994
v -0.250118 0.619127 -0.781316
v -0.183142 0.623773 -0.772472
v -0.185541 0.554434 -0.604540
v -0.173783 0.516017 -0.630360
v -0.239876 0.449974 -0.559926
v -0.253959 0.505119 -0.505684
v -0.229065 0.371758 -0.342021
v -0.212848 0.398459 -0.315592
v -0.226969 0.534278 -0.494960
v -0.186066 0.456391 -0.576535
v -0.185440 0.362657 -0.351755
v -0.223132 0.359528 -0.356507
v -0.192518 0.550304 -0.503849
v -0.153373 0.496235 -0.555702
v -0.186016 0.456423 -0.576324
v -0.206885 0.490731 -0.651232
v -0.179116 0.407563 -0.303729
v -0.162214 0.389016 -0.317884
v -0.185440 0.362657 -0.351755
v -0.129353 0.407858 -0.741427
v -0.072567 0.369274 -0.678576
v -0.078844 0.321491 -0.598669
v -0.164180 0.151177 -0.931030
v -0.185295 0.257016 -0.858152
v -0.064223 0.010190 -0.973843
v -0.160407 0.064500 -0.778512
v -0.222820 0.161822 -0.836003
v -0.187593 0.141795 -0.969360
v -0.064508 0.058306 -0.804505
v -0.081581 0.101525 -0.749143
v -0.132422 0.448689 -0.687679
v -0.087670 0.416619 -0.637678
v -0.094085 0.397597 -0.587108
v -0.233293 0.328508 -0.615449
v -0.217815 0.398871 -0.708953
v -0.078742 0.321615 -0.598798
v -0.158549 0.314329 -0.568453
v -0.115501 0.499218 -0.581134
v -0.119311 0.475102 -0.550101
v -0.150071 0.385570 -0.554654
v -0.162450 0.469842 -0.530038
v -0.213193 0.485522 -0.547631
v -0.210673 0.395000 -0.587364
v -0.197094 0.449045 -0.665329
v -0.094144 0.398192 -0.587422
v -0.114993 0.466849 -0.534414
v -0.121984 0.445729 -0.554155
v -0.164994 0.427280 -0.560222
v -0.209201 0.451279 -0.543956
v -0.149819 0.524440 -0.611911
v -0.204365 0.525314 -0.594150
v -0.119326 0.475080 -0.550194
v -0.103667 0.362821 -0.461794
v -0.104947 0.335412 -0.516743
v -0.158118 0.306673 -0.543301
v -0.222776 0.336938 -0.514031
v -0.142067 0.494269 -0.509300
v -0.193406 0.479584 -0.501176
v -0.122125 0.444299 -0.554811
v -0.163126 0.101976 -0.449425
v -0.192308 0.099094 -0.432724
v -0.216522 0.367119 -0.419977
v -0.183166 0.085868 -0.364625
v -0.152975 0.098671 -0.339545
v -0.149888 0.390323 -0.406973
v -0.104854 0.325777 -0.517800
v -0.112534 0.106497 -0.364583
v -0.102976 0.101047 -0.396900
v -0.102676 0.098565 -0.395303
v -0.054397 0.759494 -0.951389
v -0.087376 0.831055 -0.879756
v -0.202066 0.203949 -0.298615
v -0.208835 0.221920 -0.295257
v -0.214035 0.234853 -0.292522
v -0.216213 0.261797 -0.307489
v -0.220217 0.291375 -0.324675
v -0.220935 0.329996 -0.340341
v -0.221729 0.360434 -0.357476
v -0.179127 0.143622 -0.921699
v -0.085577 0.843326 -1.033064
v -0.093644 0.817609 -0.923263
v -0.060354 0.889989 -1.068484
v -0.088340 0.871627 -1.039168
v -0.102325 0.864630 -0.979686
v 0.094901 -0.000564 -0.313898
v 0.143362 0.000270 -0.390549
v 0.134149 0.006731 -0.447519
v 0.168946 0.012468 -0.488991
v 0.214707 0.004283 -0.476068
v 0.210650 -0.004186 -0.372105
v 0.216589 -0.006068 -0.292046
v 0.210967 -0.005363 -0.251134
v 0.148320 -0.000000 -0.190846
v 0.096196 -0.000000 -0.204465
v 0.086378 -0.000645 -0.267379
v -0.086616 -0.000811 -0.305139
v -0.081834 -0.000001 -0.258501
v -0.094201 0.000001 -0.196496
v -0.147126 0.000001 -0.186433
v -0.208508 -0.002449 -0.251084
v -0.211769 -0.002569 -0.292340
v -0.200125 -0.001241 -0.371531
v -0.194358 0.005093 -0.475184
v -0.147285 0.010784 -0.484507
v -0.116654 0.004490 -0.440268
v -0.129799 0.000000 -0.384789
vn -0.9004 0.2545 -0.3528
vn -0.3253 0.5199 -0.7899
vn -0.7192 -0.3690 -0.5888
vn -0.9662 0.2304 0.1153
vn -0.5384 0.7808 0.3169
vn -0.2021 0.9375 0.2832
vn 0.0727 0.9462 0.3152
vn 0.2283 0.8379 0.4957
vn 0.6786 0.5277 0.5110
vn -0.9573 0.1126 0.2662
vn 0.3253 0.0050 -0.9456
vn 0.7489 0.1203 -0.6517
vn 0.4960 -0.8278 -0.2621
vn -0.7026 -0.5026 0.5038
vn 0.4115 -0.9038 -0.1177
vn 0.1442 -0.9782 -0.1494
vn 0.3239 0.5278 -0.7852
vn 0.1439 0.4539 -0.8794
vn 0.3730 0.6818 -0.6293
vn 0.6686 -0.3341 0.6643
vn 0.1090 -0.8650 0.4898
vn 0.8151 -0.2831 0.5055
vn 0.7229 -0.2262 -0.6528
vn 0.6851 -0.2328 -0.6903
vn 0.7678 0.1738 0.6166
vn 0.1349 -0.9909 -0.0006
vn 0.1539 -0.9876 -0.0307
vn -0.3659 -0.7903 -0.4914
vn 0.0516 -0.9882 -0.1440
vn 0.8089 -0.5378 -0.2377
vn 0.8990 0.4365 0.0355
vn 0.6021 -0.7761 -0.1874
vn 0.3305 0.5924 -0.7347
vn 0.5195 -0.0266 -0.8541
vn 0.8998 -0.1039 -0.4237
vn 0.1010 0.8874 0.4497
vn -0.6959 0.5195 0.4959
vn 0.0001 0.9544 0.2985
vn -0.8627 0.4631 -0.2029
vn -0.8233 0.4879 0.2901
vn -0.3056 0.9507 0.0526
vn 0.9010 -0.3409 0.2682
vn 0.9296 -0.0323 0.3671
vn 0.7817 -0.0227 0.6233
vn 0.6729 0.2646 0.6907
vn 0.7438 0.4501 0.4941
vn 0.0132 -0.3650 0.9309
vn -0.1157 0.4089 0.9052
vn 0.5288 0.2372 0.8149
vn -0.1007 -0.2204 -0.9702
vn -0.3773 0.7180 -0.5849
vn -0.7719 -0.1966 -0.6046
vn 0.0275 0.3367 0.9412
vn 0.6644 0.1038 0.7401
vn -0.3277 -0.2557 0.9095
vn 0.3361 -0.8575 0.3897
vn -0.0029 0.1502 -0.9886
vn 0.8182 -0.2439 0.5207
vn 0.3123 0.7387 0.5973
vn 0.9571 -0.2370 0.1669
vn 0.9653 0.2451 -0.0906
vn 0.9848 0.1732 -0.0108
vn 0.8150 -0.5422 -0.2042
vn 0.7946 -0.4908 -0.3574
vn 0.5857 -0.6828 0.4368
vn 0.9994 -0.0177 -0.0282
vn 0.8191 0.1966 -0.5389
vn 0.3166 0.4199 -0.8505
vn 0.8873 0.4308 0.1644
vn 0.0886 0.9349 0.3436
vn 0.5683 0.7330 0.3738
vn -0.1466 0.9040 0.4016
vn -0.7448 0.4722 0.4715
vn -0.4111 0.6521 0.6370
vn 0.7914 -0.2724 -0.5472
vn -0.3844 -0.1661 -0.9081
vn -0.1385 -0.6846 -0.7157
vn -0.8715 -0.1250 -0.4741
vn 0.7471 -0.4746 0.4654
vn -0.6162 -0.7783 -0.1207
vn -0.0934 -0.8934 -0.4395
vn -0.4800 0.5034 -0.7185
vn -0.3641 0.6493 -0.6677
vn -0.2015 0.4084 -0.8903
vn -0.6231 -0.4566 0.6350
vn -0.8514 -0.2955 0.4334
vn -0.5231 -0.6547 0.5457
vn -0.5383 -0.6843 -0.4919
vn -0.3406 0.9199 0.1945
vn 0.6017 -0.7939 -0.0878
vn -0.5697 -0.8216 0.0214
vn 0.0809 -0.9849 0.1533
vn -0.6660 -0.7441 -0.0526
vn -0.4296 -0.8625 -0.2672
vn -0.9708 0.2376 -0.0318
vn -0.9495 0.2551 0.1826
vn -0.5614 0.7946 0.2311
vn -0.8142 0.1416 -0.5630
vn -0.3988 0.3823 -0.8335
vn -0.8890 -0.3910 -0.2383
vn -0.0776 0.8958 0.4376
vn 0.0080 0.9102 0.4141
vn 0.5262 0.8481 0.0618
vn 0.9709 0.1179 0.2083
vn 0.6501 -0.6650 -0.3677
vn 0.4094 0.8966 0.1689
vn -0.9612 0.2097 0.1791
vn -0.9037 0.1576 0.3982
vn -0.7025 0.4300 0.5670
vn -0.6954 0.1102 0.7101
vn -0.6347 0.3148 0.7057
vn -0.5103 0.1834 0.8402
vn 0.0966 0.2614 -0.9604
vn -0.0493 0.5385 -0.8412
vn 0.5788 0.2166 -0.7862
vn -0.7168 0.0630 0.6945
vn -0.8044 0.4524 0.3851
vn -0.7014 -0.6869 0.1906
vn 0.1513 -0.1911 -0.9699
vn -0.3705 0.0630 0.9267
vn -0.9516 0.2594 0.1646
vn -0.9881 0.0881 0.1259
vn -0.9933 0.1135 -0.0227
vn -0.7739 -0.6200 -0.1291
vn -0.8772 0.2439 -0.4135
vn -0.8284 -0.4240 -0.3659
vn 0.9408 0.2189 0.2586
vn 0.8031 0.1453 -0.5779
vn 0.6888 0.7243 0.0304
vn 0.8086 0.5480 0.2142
vn -0.9530 0.2615 0.1532
vn -0.4622 -0.8828 0.0839
vn -0.9107 0.3999 -0.1039
vn -0.8889 0.4568 -0.0344
vn -0.4155 0.7588 0.5016
vn -0.7922 0.2922 0.5358
vn -0.9694 -0.2387 -0.0565
vn -0.5583 0.7627 0.3264
vn 0.4848 -0.8075 0.3361
vn 0.9911 0.1174 -0.0627
vn 0.5380 0.7500 0.3848
vn 0.5672 0.5215 0.6374
vn -0.0964 0.9049 0.4145
vn 0.9204 0.3547 0.1644
vn 0.5978 -0.6891 0.4097
vn 0.5651 -0.7105 -0.4193
vn -0.7453 0.3467 -0.5695
vn -0.8714 0.3346 -0.3588
vn -0.4114 -0.1380 0.9010
vn 0.4632 0.8836 -0.0687
vn 0.5286 0.8459 -0.0709
vn -0.2572 0.9437 -0.2082
vn -0.1371 0.9896 0.0425
vn 0.0627 0.9919 -0.1104
vn 0.5967 0.8007 -0.0536
vn -0.8222 0.5352 -0.1940
vn -0.9039 0.3906 -0.1746
vn -0.6648 0.0299 -0.7465
vn 0.9789 0.1628 -0.1231
vn 0.6848 0.5197 0.5108
vn 0.5448 -0.8377 -0.0393
vn 0.8825 0.4702 -0.0113
vn 0.9263 0.3768 -0.0058
vn 0.4430 -0.6963 -0.5647
vn -0.8392 -0.3651 -0.4030
vn -0.9103 0.4138 0.0061
vn -0.0654 -0.0899 -0.9938
vn -0.9187 -0.3424 0.1969
vn -0.8717 0.4414 0.2127
vn -0.1810 -0.8739 -0.4512
vn -0.1546 -0.9852 0.0743
vn -0.1370 -0.8955 0.4235
vn -0.4136 -0.8307 -0.3727
vn -0.8877 0.4601 0.0153
vn 0.2589 0.8047 0.5343
vn 0.3610 0.9152 0.1788
vn 0.6327 0.7702 0.0805
vn -0.6907 0.6918 -0.2106
vn -0.7766 0.5561 0.2961
vn 0.5120 0.8014 0.3091
vn -0.0194 -0.9842 -0.1759
vn -0.9018 0.2498 0.3528
vn 0.6570 0.7419 0.1339
vn 0.3124 0.4931 0.8119
vn 0.9991 -0.0413 0.0057
vn 0.6109 0.7873 -0.0836
vn 0.9855 0.0663 0.1565
vn 0.5570 0.5791 0.5953
vn -0.2707 -0.7878 0.5532
vn -0.2901 -0.7970 0.5297
vn -0.5094 -0.8398 0.1880
vn -0.3584 -0.8722 0.3329
vn -0.6281 -0.7537 -0.1935
vn -0.4628 -0.8204 -0.3359
vn -0.9227 -0.0742 0.3783
vn -0.4742 -0.1167 0.8726
vn -0.7751 0.3448 0.5294
vn -0.8790 -0.1514 -0.4522
vn -0.6541 -0.4020 -0.6408
vn -0.4040 -0.8317 -0.3809
vn -0.6427 -0.5742 -0.5072
vn -0.2829 -0.6639 -0.6922
vn -0.4360 0.8335 -0.3393
vn 0.4951 -0.7172 0.4905
vn 0.8393 -0.5286 0.1270
vn -0.8337 0.1112 -0.5409
vn 0.3350 -0.7728 0.5391
vn -0.1479 0.4821 0.8635
vn -0.9349 -0.2735 0.2261
vn -0.9133 -0.1233 0.3882
vn 0.7347 -0.1158 0.6685
vn 0.7827 0.5502 -0.2911
vn -0.0844 -0.8666 0.4919
vn -0.0714 -0.9379 -0.3395
vn -0.6324 -0.7742 -0.0263
vn -0.5763 -0.4631 0.6733
vn -0.8020 -0.5132 0.3058
vn 0.1925 -0.1557 0.9689
vn 0.5541 0.5190 0.6508
vn -0.7756 -0.1851 -0.6035
vn -0.9261 0.3445 -0.1539
vn -0.9188 0.1649 0.3587
vn -0.0356 0.2029 0.9786
vn 0.2718 0.0625 0.9603
vn -0.5793 0.0066 0.8151
vn -0.7892 -0.6140 0.0136
vn 0.7305 -0.2870 -0.6197
vn 0.4402 0.8176 0.3712
vn 0.4781 -0.8666 -0.1430
vn -0.1575 -0.9581 -0.2393
vn -0.1155 -0.7424 -0.6599
vn 0.3050 -0.9477 0.0937
vn -0.5705 0.7692 0.2879
vn -0.7215 -0.3376 -0.6046
vn -0.0701 -0.9940 0.0842
vn 0.1181 -0.6955 -0.7088
vn 0.8889 0.0208 0.4577
vn 0.4429 -0.6119 0.6553
vn -0.2189 -0.9723 -0.0815
vn 0.2917 -0.9530 -0.0820
vn -0.5048 -0.8544 0.1228
vn -0.6003 0.1899 -0.7769
vn -0.8163 -0.3951 0.4213
vn -0.8875 0.1791 -0.4246
vn -0.5608 0.2864 -0.7769
vn -0.2200 0.6101 0.7612
vn 0.2646 0.6658 0.6977
vn 0.5596 0.2430 0.7923
vn 0.0998 0.4731 0.8753
vn 0.4104 0.8919 0.1901
vn 0.7934 0.6070 0.0445
vn 0.9796 0.0862 0.1814
vn 0.5938 -0.0121 0.8045
vn 0.6275 0.0995 0.7723
vn 0.7482 0.0728 0.6595
vn 0.3223 0.9012 -0.2899
vn 0.7132 0.5946 -0.3712
vn 0.0816 0.0001 0.9967
vn 0.0008 -0.0171 0.9999
vn 0.5579 -0.1090 -0.8227
vn 0.8270 -0.0619 -0.5587
vn 0.2108 -0.3207 -0.9234
vn 0.2392 -0.0869 -0.9671
vn 0.7086 0.2472 -0.6609
vn 0.2783 0.1728 -0.9448
vn 0.2940 0.3021 -0.9068
vn 0.0839 0.1130 0.9900
vn 0.0274 0.1377 0.9901
vn 0.4913 0.2009 0.8475
vn 0.1257 -0.9866 -0.1038
vn 0.0333 -0.7355 -0.6767
vn -0.0474 0.0928 0.9946
vn -0.0751 -0.7582 0.6477
vn -0.0143 -0.6205 0.7841
vn -0.1878 -0.8781 0.4402
vn -0.5042 0.5216 0.6883
vn -0.4001 -0.5615 0.7243
vn 0.2021 0.0377 0.9786
vn 0.0372 -0.0809 0.9960
vn 0.8979 0.4319 -0.0845
vn 0.2174 -0.0916 0.9718
vn 0.3154 -0.7713 0.5528
vn -0.0459 -0.9544 0.2949
vn -0.1593 0.0898 0.9831
vn -0.1191 0.6331 -0.7649
vn 0.6211 -0.0011 -0.7837
vn 0.3214 0.3030 -0.8972
vn 0.9327 -0.3605 0.0067
vn 0.8224 -0.5620 0.0880
vn -0.0598 0.5125 0.8566
vn 0.6725 0.5746 0.4664
vn -0.1905 0.8332 0.5191
vn 0.5795 0.8130 0.0571
vn -0.0720 0.9964 0.0457
vn 0.5394 0.7596 -0.3635
vn 0.9580 0.1431 -0.2486
vn 0.5153 0.5733 -0.6370
vn 0.9443 0.1874 0.2707
vn -0.0792 -0.5573 -0.8266
vn 0.4716 -0.3969 -0.7874
vn 0.5238 -0.6912 -0.4979
vn -0.0032 -0.7864 -0.6177
vn 0.4482 0.8781 0.1675
vn 0.8093 0.5144 0.2836
vn 0.8835 -0.4684 -0.0107
vn -0.0174 0.9743 0.2246
vn 0.2010 0.9794 0.0213
vn -0.6207 0.7772 -0.1035
vn 0.8091 -0.4917 0.3218
vn -0.0405 -0.9770 -0.2094
vn 0.7010 0.7082 0.0842
vn 0.7029 0.6983 0.1354
vn 0.9213 -0.2295 0.3140
vn -0.5210 -0.8346 0.1791
vn 0.5751 -0.7086 0.4088
vn -0.2633 -0.8151 0.5160
vn -0.7938 0.4435 -0.4162
vn 0.5033 0.8608 -0.0757
vn -0.8507 -0.4953 0.1760
vn -0.9479 -0.2935 -0.1235
vn -0.9763 0.2037 -0.0738
vn -0.4052 0.7909 -0.4585
vn -0.6892 -0.6793 -0.2521
vn -0.9175 0.2986 -0.2627
vn -0.1039 0.7415 -0.6629
vn -0.9236 0.3396 -0.1781
vn -0.4557 0.3591 -0.8145
vn 0.1915 0.5834 -0.7893
vn 0.0811 -0.9304 -0.3574
vn 0.5828 0.3077 -0.7521
vn 0.8998 -0.4322 -0.0592
vn 0.2490 -0.7865 0.5652
vn -0.8848 -0.4330 -0.1722
vn -0.5377 -0.5012 0.6779
vn -0.9416 0.2433 -0.2329
vn -0.4011 0.6588 -0.6365
vn -0.9786 -0.1804 -0.0987
vn 0.7297 0.5835 -0.3566
vn 0.8452 -0.1691 0.5070
vn -0.0565 -0.5176 0.8538
vn -0.5321 0.0635 0.8443
vn -0.5975 0.2702 0.7550
vn -0.9179 0.3806 -0.1127
vn -0.3208 -0.2447 0.9150
vn 0.6050 0.0068 0.7962
vn 0.9487 -0.0149 0.3158
vn 0.2849 0.3370 -0.8974
vn 0.7422 0.6099 -0.2780
vn -0.1289 -0.4261 0.8954
vn -0.8805 -0.1428 -0.4520
vn -0.9679 0.2305 0.1003
vn 0.7616 0.1554 -0.6291
vn 0.1917 0.0790 -0.9783
vn -0.3270 0.9164 -0.2310
vn 0.7394 0.6252 0.2497
vn -0.2864 -0.6797 -0.6752
vn -0.9515 0.3071 -0.0171
vn -0.9256 0.1499 0.3477
vn 0.9096 0.0270 -0.4145
vn -0.2296 -0.2958 -0.9272
vn -0.5191 0.7028 0.4864
vn 0.6081 0.6859 0.3997
vn 0.1756 -0.2233 -0.9588
vn 0.9797 0.1821 0.0840
vn -0.6744 -0.3390 -0.6559
vn 0.8987 0.2948 0.3246
vn -0.4982 0.3194 0.8061
vn -0.1935 0.4755 0.8581
vn 0.8580 -0.1453 0.4926
vn -0.5011 -0.1343 -0.8549
vn -0.7018 -0.6707 -0.2403
vn -0.7669 -0.0347 0.6408
vn -0.7650 -0.0240 -0.6435
vn 0.4212 -0.9051 0.0584
vn 0.0813 -0.8865 -0.4556
vn 0.9363 0.0028 0.3511
vn -0.7130 0.1509 -0.6847
vn -0.6294 -0.7513 -0.1984
vn -0.2973 -0.8671 -0.3998
vn -0.5782 -0.7454 -0.3318
vn -0.5845 -0.8114 -0.0025
vn 0.6698 -0.7392 0.0708
vn -0.5958 -0.7622 -0.2531
vn 0.0315 -0.1498 -0.9882
vn -0.0123 0.1510 -0.9885
vn 0.0009 -0.1291 -0.9916
vn 0.0228 0.7153 -0.6984
vn 0.0093 -0.2573 -0.9663
vn 0.9531 -0.1800 0.2432
vn 0.8787 -0.2182 -0.4246
vn 0.9824 -0.1352 0.1289
vn 0.5881 0.0362 -0.8080
vn 0.8234 0.0707 -0.5630
vn 0.8145 -0.4899 0.3108
vn -0.1092 0.1721 -0.9790
vn -0.1275 0.5706 -0.8113
vn -0.0690 0.8935 -0.4437
vn -0.9489 0.2904 0.1235
vn -0.8332 0.4785 0.2774
vn -0.9608 0.2450 -0.1297
vn -0.4950 0.3116 -0.8111
vn 0.9706 0.2345 -0.0543
vn 0.7528 0.6559 0.0550
vn 0.7171 -0.5956 -0.3620
vn 0.8405 -0.5378 0.0654
vn 0.9603 -0.2790 0.0001
vn 0.8866 0.1226 0.4459
vn 0.6070 0.6109 0.5083
vn 0.6082 0.7410 0.2845
vn -0.8610 -0.5048 0.0624
vn -0.4916 0.7838 -0.3795
vn -0.0602 0.6234 0.7795
vn -0.3101 0.7719 0.5549
vn -0.3185 0.8445 0.4305
vn -0.8226 0.5202 0.2296
vn -0.4792 0.6682 -0.5691
vn -0.3191 0.6752 0.6650
vn 0.9304 0.0879 -0.3558
vn 0.0405 0.1301 0.9907
vn -0.6752 -0.0476 0.7361
vn -0.5856 0.3528 0.7298
vn 0.2688 0.5537 0.7881
vn -0.2010 0.3302 0.9222
vn -0.4400 0.3718 0.8174
vn -0.6720 0.3426 0.6566
vn -0.0224 0.5755 0.8175
vn 0.7862 0.5086 0.3509
vn 0.5877 0.5264 0.6144
vn 0.7767 0.4613 -0.4288
vn -0.9757 0.0687 0.2079
vn -0.9877 -0.1566 -0.0029
vn -0.3617 -0.6660 -0.6524
vn -0.5731 0.8039 -0.1591
vn -0.5713 0.5904 0.5701
vn -0.9264 0.1491 0.3457
vn 0.8885 0.3816 -0.2546
vn 0.6143 -0.3763 -0.6936
vn 0.9035 0.3097 0.2963
vn 0.8807 0.1613 0.4454
vn 0.5946 0.4545 -0.6632
vn 0.4500 -0.5064 -0.7356
vn -0.6219 0.3051 -0.7213
vn 0.2371 -0.3762 -0.8957
vn 0.0186 -0.6697 -0.7424
vn 0.9613 -0.2305 0.1507
vn 0.7702 0.6048 0.2026
vn -0.6495 0.2288 0.7252
vn 0.5880 0.4010 0.7024
vn 0.8741 0.4101 0.2605
vn -0.6916 0.0560 0.7201
vn -0.0073 0.0538 0.9985
vn 0.9580 -0.2056 0.2000
vn 0.7420 -0.4666 -0.4813
vn -0.6039 0.7252 -0.3307
vn -0.5804 0.3325 0.7434
vn -0.9702 -0.0000 0.2423
vn -0.0521 -0.8410 0.5385
vn -0.3256 0.7985 -0.5064
vn -0.8888 -0.0057 0.4583
vn 0.2538 -0.7431 -0.6192
vn 0.5333 -0.7187 -0.4462
vn 0.5633 -0.5317 -0.6325
vn 0.4234 -0.6353 -0.6458
vn 0.1377 -0.8760 -0.4623
vn 0.6430 -0.0524 -0.7641
vn 0.8752 -0.3017 -0.3782
vn 0.9204 0.1325 -0.3678
vn 0.9261 -0.0859 0.3674
vn 0.5515 -0.7323 0.3995
vn 0.2965 0.7468 -0.5954
vn 0.4647 0.8502 -0.2474
vn 0.6582 0.2468 -0.7112
vn 0.6590 -0.2470 -0.7104
vn 0.2461 0.9121 0.3278
vn -0.8033 -0.4240 -0.4183
vn -0.0782 -0.9564 0.2814
vn 0.9057 0.1973 0.3751
vn 0.5220 0.2867 0.8033
vn 0.1852 -0.1512 -0.9710
vn 0.9297 -0.3438 0.1323
vn -0.0137 -0.6970 0.7169
vn -0.4202 -0.8993 -0.1213
vn -0.0811 -0.3839 0.9198
vn 0.1569 -0.7430 -0.6507
vn 0.0971 0.3193 -0.9427
vn 0.9327 0.0293 0.3595
vn 0.6103 -0.7353 -0.2946
vn 0.1268 -0.6313 -0.7651
vn -0.2821 -0.9190 0.2755
vn -0.5349 -0.3228 0.7808
vn 0.9044 -0.4193 0.0794
vn 0.3661 0.4406 0.8196
vn 0.8510 0.4843 -0.2033
vn -0.7740 -0.4139 0.4791
vn 0.8711 -0.4875 -0.0587
vn 0.3840 -0.9233 -0.0010
vn -0.3467 -0.9010 0.2610
vn -0.5651 0.0060 0.8250
vn -0.3273 -0.8484 0.4160
vn 0.1377 0.5360 -0.8329
vn -0.1481 -0.9080 -0.3919
vn 0.4851 -0.2670 -0.8327
vn -0.0334 0.2208 -0.9747
vn 0.6860 0.0428 -0.7263
vn 0.9957 0.0803 0.0461
vn 0.4550 -0.7973 -0.3966
vn -0.5597 -0.8284 -0.0216
vn -0.8682 -0.4639 0.1760
vn -0.2147 -0.7754 0.5939
vn -0.6147 -0.3579 -0.7029
vn 0.8448 -0.4896 -0.2160
vn 0.3234 -0.8870 -0.3296
vn 0.6751 0.0256 -0.7373
vn 0.7567 0.2184 -0.6162
vn 0.9773 0.0570 -0.2041
vn 0.8342 -0.1748 0.5230
vn -0.3583 0.5524 0.7526
vn -0.2837 0.6382 0.7157
vn -0.4080 0.8924 0.1928
vn -0.6315 0.7754 -0.0007
vn -0.9951 0.0729 0.0668
vn -0.6507 -0.0164 0.7592
vn -0.6247 0.0591 0.7786
vn -0.8834 -0.0122 0.4684
vn -0.3760 0.8256 -0.4207
vn -0.5201 0.7947 -0.3130
vn -0.6517 -0.0873 -0.7534
vn -0.2093 -0.1177 -0.9707
vn -0.1117 -0.0938 -0.9893
vn -0.8539 -0.0085 -0.5203
vn -0.6901 0.1745 -0.7024
vn -0.2580 0.1900 -0.9473
vn -0.3713 0.3425 0.8630
vn -0.4312 -0.1585 0.8882
vn -0.3456 -0.0208 0.9381
vn -0.3330 0.2505 0.9090
vn 0.0146 -0.8950 0.4458
vn 0.5667 -0.1554 0.8091
vn 0.1539 -0.0135 0.9880
vn -0.1826 -0.0280 0.9828
vn -0.2498 -0.3401 0.9066
vn -0.8608 0.0418 0.5072
vn -0.9793 0.0810 -0.1854
vn -0.8613 -0.5072 0.0305
vn -0.7187 -0.6539 0.2365
vn -0.7016 0.5774 0.4176
vn -0.5742 0.8088 0.1269
vn -0.5968 0.6715 -0.4392
vn -0.5786 0.5571 -0.5957
vn -0.8024 0.4380 -0.4053
vn -0.9421 0.0841 0.3245
vn -0.3367 -0.7008 -0.6289
vn -0.5564 -0.3562 -0.7507
vn -0.6086 0.7127 0.3489
vn -0.9760 -0.1987 -0.0897
vn -0.5859 0.7835 0.2071
vn 0.2293 0.8976 0.3766
vn 0.5764 0.8026 0.1535
vn 0.9923 -0.0826 -0.0922
vn -0.5601 -0.7477 -0.3566
vn -0.9584 0.2153 0.1874
vn -0.9870 -0.1605 -0.0041
vn -0.6337 0.6041 0.4832
vn -0.5116 0.7217 0.4663
vn -0.1618 -0.8696 -0.4666
vn 0.4057 -0.7394 -0.5374
vn 0.0446 -0.9231 -0.3819
vn 0.0370 0.9547 0.2953
vn 0.9136 -0.3348 -0.2307
vn 0.5416 -0.7906 -0.2858
vn 0.6454 -0.6179 -0.4491
vn -0.2503 0.8711 0.4225
vn 0.8888 0.4478 -0.0971
vn 0.8962 -0.3691 0.2463
vn 0.2095 0.7022 -0.6805
vn 0.9361 0.3436 -0.0757
vn 0.9791 -0.1947 -0.0585
vn 0.5315 0.5020 -0.6823
vn -0.2454 0.6273 -0.7391
vn -0.5046 -0.6599 -0.5568
vn -0.5958 -0.7952 0.1121
vn -0.9640 -0.2027 -0.1723
vn -0.2773 0.4144 -0.8668
vn 0.9629 0.0508 0.2650
vn -0.1661 -0.7192 0.6747
vn 0.4688 0.6799 -0.5639
vn 0.9522 0.2994 0.0605
vn 0.7727 0.5020 0.3885
vn -0.9586 -0.0472 0.2808
vn -0.5714 0.5793 -0.5813
vn 0.7430 0.0416 0.6679
vn -0.0651 -0.3872 0.9197
vn 0.9885 0.1427 0.0496
vn 0.9244 0.2805 -0.2586
vn -0.0070 -0.2257 0.9742
vn 0.1464 0.4465 -0.8827
vn -0.9405 -0.2549 0.2246
vn -0.8586 -0.0346 0.5114
vn -0.7573 0.4739 -0.4493
vn 0.2877 -0.6806 0.6738
vn 0.9603 0.2443 0.1345
vn 0.7301 -0.3159 -0.6059
vn -0.4013 -0.0235 -0.9156
vn -0.1350 0.2060 -0.9692
vn 0.4065 0.8940 -0.1886
vn -0.7357 0.6765 -0.0332
vn -0.0188 0.6566 -0.7540
vn 0.9557 0.2216 0.1937
vn 0.9204 0.2254 0.3195
vn 0.1916 -0.2535 -0.9482
vn -0.8545 -0.2201 -0.4705
vn 0.3331 0.7780 0.5327
vn -0.6048 0.5346 0.5903
vn 0.0455 -0.3124 -0.9489
vn 0.2560 -0.5291 -0.8090
vn -0.9822 -0.0143 -0.1873
vn -0.9978 0.0171 0.0645
vn -0.9622 -0.2473 0.1145
vn 0.0060 0.5425 0.8400
vn 0.3072 0.3956 0.8655
vn 0.5726 -0.0135 -0.8197
vn 0.7132 0.3861 0.5850
vn 0.8213 -0.2152 -0.5283
vn 0.8230 -0.2557 -0.5072
vn -0.3246 -0.8699 -0.3715
vn -0.9501 0.0039 0.3120
vn 0.7871 -0.1503 -0.5983
vn 0.2843 0.5420 -0.7908
vn 0.8993 -0.4002 -0.1761
vn 0.5670 -0.0134 -0.8236
vn 0.3824 -0.0286 -0.9236
vn 0.4484 -0.4676 -0.7618
vn -0.2574 -0.7808 -0.5693
vn -0.9398 0.0710 0.3343
vn -0.8231 -0.2072 -0.5287
vn -0.9893 -0.0958 0.1102
vn -0.5287 0.1257 -0.8395
vn -0.8082 -0.0351 -0.5878
vn -0.7351 -0.6392 0.2258
vn -0.6140 -0.1238 -0.7795
vn -0.4897 -0.5700 -0.6598
vn 0.5718 -0.4857 0.6611
vn 0.9661 -0.2495 -0.0659
vn 0.5230 -0.2206 0.8233
vn -0.0962 -0.1656 0.9815
vn -0.9973 -0.0667 0.0299
vn -0.6014 -0.3993 -0.6920
vn -0.2394 -0.2361 -0.9418
vn -0.7649 -0.4488 -0.4621
vn -0.5925 -0.4158 -0.6900
vn -0.3520 -0.4747 0.8067
vn 0.5843 -0.1625 -0.7951
vn -0.8890 -0.2030 0.4104
vn 0.5603 -0.5631 -0.6075
vn -0.1229 -0.2663 0.9560
vn -0.8724 -0.3582 0.3326
vn -0.4107 -0.5987 0.6877
vn -0.3736 -0.3490 0.8594
vn 0.4881 -0.3583 -0.7958
vn -0.0022 -0.5594 -0.8289
vn -0.2148 -0.3565 -0.9093
vt 0.898721 0.335922
vt 0.859241 0.370400
vt 0.895902 0.388976
vt 0.672964 0.358883
vt 0.664808 0.384212
vt 0.680554 0.372622
vt 0.699204 0.392212
vt 0.678086 0.400290
vt 0.716852 0.410636
vt 0.924000 0.375382
vt 0.289468 0.858665
vt 0.241234 0.846027
vt 0.280136 0.931724
vt 0.652666 0.108862
vt 0.602782 0.032472
vt 0.607104 0.104621
vt 0.350821 0.535672
vt 0.382971 0.537312
vt 0.361957 0.486980
vt 0.070464 0.400862
vt 0.107280 0.399953
vt 0.099211 0.378883
vt 0.379078 0.389056
vt 0.404639 0.375656
vt 0.378602 0.385980
vt 0.607126 0.226221
vt 0.607494 0.238120
vt 0.636965 0.224530
vt 0.609241 0.214476
vt 0.579540 0.220015
vt 0.552558 0.237852
vt 0.583844 0.232456
vt 0.536715 0.000210
vt 0.544830 0.037580
vt 0.561229 0.068317
vt 0.460890 0.028507
vt 0.431120 0.103939
vt 0.473909 0.064886
vt 0.419202 0.148926
vt 0.454733 0.144823
vt 0.478797 0.096777
vt 0.583057 0.243077
vt 0.073575 0.320899
vt 0.040514 0.320220
vt 0.043818 0.331374
vt 0.048796 0.345059
vt 0.020870 0.382220
vt 0.033315 0.400145
vt 0.036979 0.367796
vt 0.867691 0.400568
vt 0.846213 0.340222
vt 0.877103 0.315457
vt 0.011437 0.342775
vt 0.060186 0.376161
vt 0.006335 0.376426
vt 0.357996 0.420294
vt 0.384595 0.412921
vt 0.375596 0.401049
vt 0.357996 0.375235
vt 0.100063 0.307119
vt 0.091287 0.274388
vt 0.079230 0.283766
vt 0.141190 0.337058
vt 0.142540 0.308242
vt 0.119544 0.320770
vt 0.898721 0.335922
vt 0.895902 0.388976
vt 0.859241 0.370400
vt 0.672964 0.358883
vt 0.680554 0.372622
vt 0.664808 0.384212
vt 0.699204 0.392212
vt 0.716852 0.410636
vt 0.678086 0.400290
vt 0.924000 0.375382
vt 0.289468 0.858665
vt 0.280136 0.931724
vt 0.241234 0.846027
vt 0.652666 0.108862
vt 0.607104 0.104621
vt 0.602782 0.032472
vt 0.350821 0.535672
vt 0.361957 0.486980
vt 0.382971 0.537312
vt 0.070464 0.400862
vt 0.099211 0.378883
vt 0.107280 0.399953
vt 0.379078 0.389056
vt 0.378602 0.385980
vt 0.404639 0.375656
vt 0.607126 0.226221
vt 0.636965 0.224530
vt 0.607494 0.238120
vt 0.609241 0.214476
vt 0.579540 0.220015
vt 0.583844 0.232456
vt 0.552558 0.237852
vt 0.544830 0.037580
vt 0.536715 0.000210
vt 0.561229 0.068317
vt 0.460890 0.028507
vt 0.473909 0.064886
vt 0.431120 0.103939
vt 0.454733 0.144823
vt 0.419202 0.148926
vt 0.478797 0.096777
vt 0.583057 0.243077
vt 0.073575 0.320899
vt 0.043818 0.331374
vt 0.040514 0.320220
vt 0.048796 0.345059
vt 0.036979 0.367796
vt 0.867691 0.400568
vt 0.846213 0.340222
vt 0.877103 0.315457
vt 0.060186 0.376161
vt 0.357996 0.420294
vt 0.375596 0.401049
vt 0.384595 0.412921
vt 0.357996 0.375235
vt 0.100063 0.307119
vt 0.079230 0.283766
vt 0.091287 0.274388
vt 0.141190 0.337058
vt 0.119544 0.320770
vt 0.142540 0.308242
vt 0.780017 0.389381
vt 0.840710 0.378432
vt 0.832086 0.343388
vt 0.797559 0.341473
vt 0.734855 0.293704
vt 0.690563 0.273963
vt 0.671183 0.326061
vt 0.691227 0.338909
vt 0.750859 0.321441
vt 0.773900 0.306187
vt 0.765241 0.290803
vt 0.710340 0.350866
vt 0.786347 0.415813
vt 0.844352 0.409653
vt 0.763887 0.349387
vt 0.782650 0.325793
vt 0.726432 0.371909
vt 0.739689 0.403831
vt 0.714847 0.421242
vt 0.739597 0.421241
vt 0.660592 0.352712
vt 0.653086 0.387450
vt 0.668101 0.409959
vt 0.315462 0.336166
vt 0.335960 0.319795
vt 0.320664 0.306405
vt 0.299869 0.321051
vt 0.278271 0.338462
vt 0.298962 0.352628
vt 0.285931 0.315682
vt 0.270743 0.325134
vt 0.309364 0.297249
vt 0.335105 0.351955
vt 0.343178 0.358804
vt 0.357576 0.342731
vt 0.350498 0.335837
vt 0.320700 0.370671
vt 0.329708 0.378214
vt 0.290856 0.279754
vt 0.285294 0.298415
vt 0.314250 0.271167
vt 0.260638 0.275869
vt 0.257820 0.291611
vt 0.665296 0.184600
vt 0.689491 0.199663
vt 0.706874 0.189726
vt 0.686723 0.173710
vt 0.270927 0.305641
vt 0.253346 0.298662
vt 0.258008 0.355084
vt 0.286463 0.369030
vt 0.254109 0.335313
vt 0.260216 0.385206
vt 0.277744 0.389672
vt 0.243084 0.372090
vt 0.251403 0.387639
vt 0.229464 0.352429
vt 0.228649 0.361858
vt 0.308057 0.384418
vt 0.316716 0.392251
vt 0.297902 0.399085
vt 0.304777 0.404007
vt 0.707455 0.213097
vt 0.722212 0.209908
vt 0.721443 0.233490
vt 0.736220 0.229231
vt 0.728443 0.245828
vt 0.744598 0.243804
vt 0.259128 0.409957
vt 0.263055 0.405960
vt 0.261626 0.400857
vt 0.254458 0.401913
vt 0.747830 0.267476
vt 0.746669 0.258518
vt 0.731535 0.261820
vt 0.732144 0.273543
vt 0.732056 0.199846
vt 0.733550 0.184608
vt 0.724433 0.174139
vt 0.262775 0.310769
vt 0.231643 0.285352
vt 0.240657 0.290324
vt 0.243782 0.285450
vt 0.234738 0.279153
vt 0.733268 0.167360
vt 0.739413 0.173442
vt 0.730094 0.162426
vt 0.718469 0.167783
vt 0.244961 0.274386
vt 0.734109 0.207705
vt 0.272633 0.420294
vt 0.274406 0.412795
vt 0.274776 0.405091
vt 0.251040 0.321507
vt 0.227293 0.340174
vt 0.226874 0.329845
vt 0.197694 0.354897
vt 0.203482 0.350300
vt 0.204740 0.346385
vt 0.196205 0.342133
vt 0.212718 0.360400
vt 0.212621 0.352263
vt 0.772089 0.259031
vt 0.763928 0.247361
vt 0.757774 0.253296
vt 0.766567 0.264385
vt 0.212855 0.342900
vt 0.211175 0.333215
vt 0.294779 0.420294
vt 0.301558 0.411442
vt 0.294245 0.408177
vt 0.290115 0.415206
vt 0.748485 0.242231
vt 0.756484 0.235862
vt 0.744156 0.217712
vt 0.553233 0.428540
vt 0.483585 0.470294
vt 0.486205 0.510143
vt 0.544852 0.507947
vt 0.242441 0.469476
vt 0.301409 0.522617
vt 0.292604 0.470622
vt 0.269398 0.453895
vt 0.323990 0.526558
vt 0.339553 0.479320
vt 0.219077 0.734976
vt 0.239920 0.662336
vt 0.202973 0.619732
vt 0.166157 0.708940
vt 0.497496 0.018760
vt 0.508402 0.051820
vt 0.146551 0.571485
vt 0.097015 0.673575
vt 0.351048 0.586218
vt 0.299681 0.673688
vt 0.346203 0.684853
vt 0.377278 0.599249
vt 0.267428 0.760484
vt 0.317332 0.785032
vt 0.293884 0.600486
vt 0.273043 0.575046
vt 0.182375 0.509815
vt 0.268926 0.993803
vt 0.279270 0.999790
vt 0.293470 0.956520
vt 0.011769 0.882590
vt 0.051905 0.823023
vt 0.023082 0.819009
vt 0.000210 0.879959
vt 0.419202 0.497377
vt 0.419202 0.527194
vt 0.127927 0.792668
vt 0.047343 0.768868
vt 0.344565 0.440598
vt 0.307894 0.430004
vt 0.289806 0.420714
vt 0.095301 0.420294
vt 0.048786 0.420294
vt 0.409202 0.485185
vt 0.406380 0.431004
vt 0.372114 0.441049
vt 0.129654 0.363771
vt 0.118212 0.360641
vt 0.005286 0.332244
vt 0.038654 0.294765
vt 0.000210 0.295053
vt 0.050504 0.271144
vt 0.013916 0.257216
vt 0.072343 0.251328
vt 0.109637 0.272097
vt 0.104554 0.243816
vt 0.070137 0.303639
vt 0.176779 0.245479
vt 0.153226 0.267925
vt 0.164200 0.305010
vt 0.195785 0.299781
vt 0.521531 0.091436
vt 0.530667 0.125441
vt 0.566008 0.118037
vt 0.491103 0.142139
vt 0.528924 0.251738
vt 0.498414 0.256144
vt 0.589178 0.283950
vt 0.621937 0.272317
vt 0.568073 0.287160
vt 0.590444 0.402016
vt 0.609520 0.397981
vt 0.652666 0.261000
vt 0.618290 0.396068
vt 0.638448 0.398356
vt 0.505391 0.289823
vt 0.547086 0.287719
vt 0.469171 0.257992
vt 0.475177 0.296003
vt 0.561304 0.414856
vt 0.573365 0.408463
vt 0.537294 0.421242
vt 0.501745 0.650680
vt 0.543244 0.646518
vt 0.457937 0.660281
vt 0.622510 0.421661
vt 0.615708 0.519046
vt 0.744612 0.513730
vt 0.679703 0.447346
vt 0.674176 0.516030
vt 0.729635 0.548077
vt 0.799067 0.539357
vt 0.783836 0.564834
vt 0.501839 0.689443
vt 0.541020 0.687863
vt 0.468979 0.698092
vt 0.589878 0.656972
vt 0.650056 0.663827
vt 0.689595 0.682893
vt 0.732643 0.694345
vt 0.474289 0.758374
vt 0.505588 0.754294
vt 0.680999 0.723036
vt 0.641356 0.707303
vt 0.626488 0.769284
vt 0.659849 0.780701
vt 0.580406 0.699758
vt 0.719989 0.731821
vt 0.477246 0.782145
vt 0.506983 0.780407
vt 0.619724 0.795522
vt 0.654500 0.806678
vt 0.541800 0.754701
vt 0.578824 0.765325
vt 0.690101 0.785495
vt 0.471580 0.830955
vt 0.506269 0.830565
vt 0.616661 0.843423
vt 0.646068 0.855888
vt 0.539458 0.782438
vt 0.573258 0.791778
vt 0.685091 0.810905
vt 0.578494 0.988433
vt 0.592324 0.990928
vt 0.575437 0.840695
vt 0.542227 0.833212
vt 0.531332 0.972075
vt 0.545870 0.985467
vt 0.677515 0.862169
vt 0.497933 0.976198
vt 0.512105 0.968466
vt 0.629792 0.999790
vt 0.157375 0.347291
vt 0.193806 0.332590
vt 0.088409 0.349490
vt 0.708817 0.273543
vt 0.706277 0.263670
vt 0.704464 0.256477
vt 0.697194 0.242752
vt 0.686405 0.228732
vt 0.669966 0.213181
vt 0.653086 0.200746
vt 0.329939 0.883853
vt 0.352636 0.794103
vt 0.418782 0.610595
vt 0.418783 0.526183
vt 0.386370 0.693222
vt 0.198555 0.800601
vt 0.136448 0.281103
vt 0.110673 0.335984
vt 0.130974 0.249842
vt 0.126935 0.270519
vt 0.110488 0.296361
vt 0.139110 0.214885
vt 0.099582 0.208928
vt 0.050482 0.222509
vt 0.780017 0.389381
vt 0.797559 0.341473
vt 0.832086 0.343388
vt 0.840710 0.378432
vt 0.734855 0.293704
vt 0.691227 0.338909
vt 0.671183 0.326061
vt 0.690563 0.273963
vt 0.765241 0.290803
vt 0.773900 0.306187
vt 0.750859 0.321441
vt 0.710340 0.350866
vt 0.844352 0.409653
vt 0.786347 0.415813
vt 0.782650 0.325793
vt 0.763887 0.349387
vt 0.726432 0.371909
vt 0.739689 0.403831
vt 0.739597 0.421241
vt 0.714847 0.421242
vt 0.660592 0.352712
vt 0.653086 0.387450
vt 0.668101 0.409959
vt 0.315462 0.336166
vt 0.299869 0.321051
vt 0.320664 0.306405
vt 0.335960 0.319795
vt 0.298962 0.352628
vt 0.278271 0.338462
vt 0.270743 0.325134
vt 0.285931 0.315682
vt 0.309364 0.297249
vt 0.335105 0.351955
vt 0.350498 0.335837
vt 0.357576 0.342731
vt 0.343178 0.358804
vt 0.329708 0.378214
vt 0.320700 0.370671
vt 0.290856 0.279754
vt 0.314250 0.271167
vt 0.285294 0.298415
vt 0.257820 0.291611
vt 0.260638 0.275869
vt 0.665296 0.184600
vt 0.686723 0.173710
vt 0.706874 0.189726
vt 0.689491 0.199663
vt 0.270927 0.305641
vt 0.253346 0.298662
vt 0.286463 0.369030
vt 0.258008 0.355084
vt 0.254109 0.335313
vt 0.277744 0.389672
vt 0.260216 0.385206
vt 0.251403 0.387639
vt 0.243084 0.372090
vt 0.228649 0.361858
vt 0.229464 0.352429
vt 0.308057 0.384418
vt 0.316716 0.392251
vt 0.304777 0.404007
vt 0.297902 0.399085
vt 0.707455 0.213097
vt 0.722212 0.209908
vt 0.721443 0.233490
vt 0.736220 0.229231
vt 0.744598 0.243804
vt 0.728443 0.245828
vt 0.259128 0.409957
vt 0.254458 0.401913
vt 0.261626 0.400857
vt 0.263055 0.405960
vt 0.747830 0.267476
vt 0.732144 0.273543
vt 0.731535 0.261820
vt 0.746669 0.258518
vt 0.732056 0.199846
vt 0.724433 0.174139
vt 0.733550 0.184608
vt 0.262775 0.310769
vt 0.231643 0.285352
vt 0.234738 0.279153
vt 0.243782 0.285450
vt 0.240657 0.290324
vt 0.733268 0.167360
vt 0.739413 0.173442
vt 0.730094 0.162426
vt 0.718469 0.167783
vt 0.244961 0.274386
vt 0.734109 0.207705
vt 0.272633 0.420294
vt 0.274406 0.412795
vt 0.274776 0.405091
vt 0.251040 0.321507
vt 0.227293 0.340174
vt 0.226874 0.329845
vt 0.197694 0.354897
vt 0.196205 0.342133
vt 0.204740 0.346385
vt 0.203482 0.350300
vt 0.212621 0.352263
vt 0.212718 0.360400
vt 0.772089 0.259031
vt 0.766567 0.264385
vt 0.757774 0.253296
vt 0.763928 0.247361
vt 0.211175 0.333215
vt 0.212855 0.342900
vt 0.294779 0.420294
vt 0.290115 0.415206
vt 0.294245 0.408177
vt 0.301558 0.411442
vt 0.748485 0.242231
vt 0.744156 0.217712
vt 0.756484 0.235862
vt 0.553233 0.428540
vt 0.544852 0.507947
vt 0.486205 0.510143
vt 0.483585 0.470294
vt 0.292604 0.470622
vt 0.301409 0.522617
vt 0.323990 0.526558
vt 0.339553 0.479320
vt 0.219077 0.734976
vt 0.166157 0.708940
vt 0.202973 0.619732
vt 0.239920 0.662336
vt 0.497496 0.018760
vt 0.508402 0.051820
vt 0.351048 0.586218
vt 0.377278 0.599249
vt 0.346203 0.684853
vt 0.299681 0.673688
vt 0.267428 0.760484
vt 0.317332 0.785032
vt 0.273043 0.575046
vt 0.293884 0.600486
vt 0.268926 0.993803
vt 0.011769 0.882590
vt 0.051905 0.823023
vt 0.419202 0.527194
vt 0.419202 0.497377
vt 0.127927 0.792668
vt 0.307894 0.430004
vt 0.344565 0.440598
vt 0.372114 0.441049
vt 0.118212 0.360641
vt 0.129654 0.363771
vt 0.038654 0.294765
vt 0.050504 0.271144
vt 0.072343 0.251328
vt 0.104554 0.243816
vt 0.109637 0.272097
vt 0.070137 0.303639
vt 0.164200 0.305010
vt 0.153226 0.267925
vt 0.521531 0.091436
vt 0.566008 0.118037
vt 0.530667 0.125441
vt 0.491103 0.142139
vt 0.528924 0.251738
vt 0.498414 0.256144
vt 0.621937 0.272317
vt 0.589178 0.283950
vt 0.609520 0.397981
vt 0.590444 0.402016
vt 0.568073 0.287160
vt 0.652666 0.261000
vt 0.638448 0.398356
vt 0.618290 0.396068
vt 0.547086 0.287719
vt 0.505391 0.289823
vt 0.475177 0.296003
vt 0.469171 0.257992
vt 0.573365 0.408463
vt 0.561304 0.414856
vt 0.537294 0.421242
vt 0.543244 0.646518
vt 0.501745 0.650680
vt 0.457937 0.660281
vt 0.622510 0.421661
vt 0.615708 0.519046
vt 0.744612 0.513730
vt 0.729635 0.548077
vt 0.674176 0.516030
vt 0.679703 0.447346
vt 0.799067 0.539357
vt 0.783836 0.564834
vt 0.541020 0.687863
vt 0.501839 0.689443
vt 0.468979 0.698092
vt 0.650056 0.663827
vt 0.589878 0.656972
vt 0.732643 0.694345
vt 0.689595 0.682893
vt 0.505588 0.754294
vt 0.474289 0.758374
vt 0.680999 0.723036
vt 0.659849 0.780701
vt 0.626488 0.769284
vt 0.641356 0.707303
vt 0.580406 0.699758
vt 0.719989 0.731821
vt 0.506983 0.780407
vt 0.477246 0.782145
vt 0.654500 0.806678
vt 0.619724 0.795522
vt 0.541800 0.754701
vt 0.578824 0.765325
vt 0.690101 0.785495
vt 0.506269 0.830565
vt 0.471580 0.830955
vt 0.646068 0.855888
vt 0.616661 0.843423
vt 0.539458 0.782438
vt 0.573258 0.791778
vt 0.685091 0.810905
vt 0.592324 0.990928
vt 0.578494 0.988433
vt 0.575437 0.840695
vt 0.545870 0.985467
vt 0.531332 0.972075
vt 0.542227 0.833212
vt 0.677515 0.862169
vt 0.512105 0.968466
vt 0.497933 0.976198
vt 0.629792 0.999790
vt 0.157375 0.347291
vt 0.088409 0.349490
vt 0.708817 0.273543
vt 0.706277 0.263670
vt 0.704464 0.256477
vt 0.697194 0.242752
vt 0.686405 0.228732
vt 0.669966 0.213181
vt 0.653086 0.200746
vt 0.198555 0.800601
vt 0.136448 0.281103
vt 0.110673 0.335984
vt 0.130974 0.249842
vt 0.126935 0.270519
vt 0.110488 0.296361
vt 0.259619 0.269897
vt 0.308831 0.251764
vt 0.338108 0.260546
vt 0.365143 0.248590
vt 0.365143 0.224734
vt 0.307711 0.215302
vt 0.263457 0.205079
vt 0.239357 0.204645
vt 0.196205 0.233494
vt 0.197596 0.261216
vt 0.232230 0.270747
vt 0.259619 0.269897
vt 0.232230 0.270747
vt 0.197596 0.261216
vt 0.196205 0.233494
vt 0.239357 0.204645
vt 0.263457 0.205079
vt 0.307711 0.215302
vt 0.365143 0.224734
vt 0.365143 0.248590
vt 0.338108 0.260546
vt 0.308831 0.251764
s 1
usemtl Material.001
f 1/1/1 2/2/2 3/3/3
f 4/4/4 5/5/5 6/6/6
f 7/7/7 8/8/8 9/9/9
f 1/1/1 3/3/3 10/10/10
f 11/11/11 12/12/12 13/13/13
f 14/14/14 15/15/15 16/16/16
f 17/17/17 18/18/18 19/19/19
f 20/20/20 21/21/21 22/22/22
f 23/23/23 24/24/24 25/25/25
f 26/26/26 27/27/27 28/28/28
f 29/29/29 26/26/26 28/28/28
f 30/30/30 31/31/31 32/32/32
f 15/15/15 33/33/33 34/34/34
f 15/15/15 34/34/34 35/35/35
f 36/36/36 37/37/37 38/38/38
f 37/37/37 39/39/39 40/40/40
f 37/37/37 41/41/41 38/38/38
f 32/32/32 31/31/31 42/42/42
f 43/43/43 44/44/44 45/45/45
f 46/46/46 43/43/43 45/45/45
f 47/47/47 48/48/48 49/49/49
f 2/2/2 50/50/50 3/3/3
f 2/2/2 1/1/1 51/51/51
f 1/1/1 52/52/52 51/51/51
f 46/46/46 45/45/45 53/53/53
f 46/46/46 53/53/53 49/49/49
f 46/46/46 49/49/49 54/54/54
f 53/53/53 55/55/55 49/49/49
f 56/56/56 57/57/57 58/58/58
f 24/24/24 59/59/59 25/25/25
f 60/60/60 61/61/61 62/62/62
f 63/63/63 64/64/64 65/65/65
f 47/47/47 49/49/49 55/55/55
f 48/48/48 54/54/54 49/49/49
f 66/66/66 67/67/67 68/68/68
f 69/69/69 70/70/70 71/71/71
f 72/72/72 73/73/73 74/74/74
f 66/66/66 75/75/75 67/67/67
f 76/76/76 77/77/77 78/78/78
f 79/79/79 80/80/80 81/81/81
f 82/82/82 83/83/83 84/84/84
f 85/85/85 86/86/86 87/87/87
f 88/88/88 89/89/89 90/90/90
f 91/91/91 92/92/92 93/93/93
f 94/94/94 92/92/92 91/91/91
f 95/95/95 96/96/96 97/97/97
f 81/81/81 98/98/98 99/99/99
f 81/81/81 100/100/100 98/98/98
f 101/101/101 102/102/102 103/103/103
f 103/103/103 104/104/104 105/105/105
f 103/103/103 102/102/102 106/106/106
f 96/96/96 107/107/107 97/97/97
f 108/108/108 109/109/109 110/110/110
f 111/111/111 109/109/109 108/108/108
f 47/47/47 112/112/112 48/48/48
f 68/68/68 67/67/67 113/113/113
f 68/68/68 114/114/114 66/66/66
f 66/66/66 114/114/114 115/115/115
f 111/111/111 53/53/53 109/109/109
f 111/111/111 112/112/112 53/53/53
f 111/111/111 116/116/116 112/112/112
f 53/53/53 112/112/112 55/55/55
f 117/117/117 118/118/118 119/119/119
f 90/90/90 89/89/89 120/120/120
f 121/121/121 122/122/122 123/123/123
f 124/124/124 125/125/125 126/126/126
f 47/47/47 55/55/55 112/112/112
f 48/48/48 112/112/112 116/116/116
f 127/127/127 128/128/128 129/129/129
f 127/127/127 129/129/129 130/130/130
f 131/131/131 132/132/132 133/133/133
f 131/131/131 133/133/133 134/134/134
f 131/131/131 135/135/135 136/136/136
f 131/131/131 136/136/136 137/137/137
f 131/131/131 134/134/134 138/138/138
f 131/131/131 138/138/138 135/135/135
f 127/127/127 139/139/139 140/140/140
f 127/127/127 140/140/140 128/128/128
f 128/128/128 2/2/2 51/51/51
f 128/128/128 51/51/51 129/129/129
f 128/128/128 140/140/140 50/50/50
f 128/128/128 50/50/50 2/2/2
f 135/135/135 141/141/141 142/142/142
f 135/135/135 142/142/142 136/136/136
f 135/135/135 138/138/138 143/143/143
f 135/135/135 143/143/143 141/141/141
f 141/141/141 143/143/143 144/144/144
f 141/141/141 144/144/144 127/127/127
f 143/143/143 138/138/138 6/6/6
f 143/143/143 6/6/6 7/7/7
f 7/7/7 9/9/9 144/144/144
f 7/7/7 144/144/144 143/143/143
f 9/9/9 145/145/145 146/146/146
f 9/9/9 146/146/146 144/144/144
f 144/144/144 146/146/146 139/139/139
f 144/144/144 139/139/139 127/127/127
f 133/133/133 147/147/147 4/4/4
f 133/133/133 4/4/4 134/134/134
f 4/4/4 6/6/6 138/138/138
f 4/4/4 138/138/138 134/134/134
f 4/4/4 147/147/147 148/148/148
f 4/4/4 148/148/148 5/5/5
f 8/8/8 149/149/149 145/145/145
f 8/8/8 145/145/145 9/9/9
f 5/5/5 148/148/148 149/149/149
f 5/5/5 149/149/149 8/8/8
f 6/6/6 5/5/5 8/8/8
f 6/6/6 8/8/8 7/7/7
f 150/150/150 151/151/151 152/152/152
f 150/150/150 152/152/152 153/153/153
f 153/153/153 154/154/154 155/155/155
f 153/153/153 155/155/155 150/150/150
f 153/153/153 156/156/156 157/157/157
f 153/153/153 157/157/157 154/154/154
f 152/152/152 158/158/158 156/156/156
f 152/152/152 156/156/156 153/153/153
f 159/159/159 160/160/160 161/161/161
f 159/159/159 161/161/161 162/162/162
f 159/159/159 163/163/163 164/164/164
f 159/159/159 164/164/164 160/160/160
f 165/165/165 166/166/166 158/158/158
f 165/165/165 158/158/158 167/167/167
f 165/165/165 168/168/168 169/169/169
f 165/165/165 169/169/169 166/166/166
f 170/170/170 171/171/171 172/172/172
f 170/170/170 172/172/172 173/173/173
f 166/166/166 174/174/174 156/156/156
f 166/166/166 156/156/156 158/158/158
f 166/166/166 169/169/169 175/175/175
f 166/166/166 175/175/175 174/174/174
f 154/154/154 176/176/176 177/177/177
f 154/154/154 177/177/177 155/155/155
f 154/154/154 157/157/157 178/178/178
f 154/154/154 178/178/178 176/176/176
f 176/176/176 179/179/179 180/180/180
f 176/176/176 180/180/180 177/177/177
f 176/176/176 181/181/181 182/182/182
f 176/176/176 182/182/182 179/179/179
f 176/176/176 183/183/183 184/184/184
f 176/176/176 184/184/184 181/181/181
f 185/185/185 186/186/186 164/164/164
f 185/185/185 164/164/164 163/163/163
f 185/185/185 187/187/187 188/188/188
f 185/185/185 188/188/188 186/186/186
f 189/189/189 190/190/190 172/172/172
f 189/189/189 172/172/172 171/171/171
f 191/191/191 192/192/192 190/190/190
f 191/191/191 190/190/190 189/189/189
f 191/191/191 193/193/193 194/194/194
f 191/191/191 194/194/194 192/192/192
f 195/195/195 196/196/196 197/197/197
f 195/195/195 197/197/197 198/198/198
f 199/199/199 200/200/200 201/201/201
f 199/199/199 201/201/201 202/202/202
f 203/203/203 204/204/204 205/205/205
f 203/203/203 205/205/205 172/172/172
f 174/174/174 206/206/206 157/157/157
f 174/174/174 157/157/157 156/156/156
f 207/207/207 208/208/208 209/209/209
f 207/207/207 209/209/209 210/210/210
f 211/211/211 205/205/205 204/204/204
f 211/211/211 204/204/204 212/212/212
f 213/213/213 214/214/214 205/205/205
f 213/213/213 205/205/205 211/211/211
f 209/209/209 169/169/169 168/168/168
f 209/209/209 168/168/168 215/215/215
f 208/208/208 175/175/175 169/169/169
f 208/208/208 169/169/169 209/209/209
f 172/172/172 205/205/205 214/214/214
f 172/172/172 214/214/214 173/173/173
f 172/172/172 190/190/190 216/216/216
f 172/172/172 216/216/216 203/203/203
f 217/217/217 218/218/218 196/196/196
f 217/217/217 196/196/196 195/195/195
f 218/218/218 219/219/219 197/197/197
f 218/218/218 197/197/197 196/196/196
f 157/157/157 206/206/206 220/220/220
f 157/157/157 220/220/220 178/178/178
f 178/178/178 221/221/221 183/183/183
f 178/178/178 183/183/183 176/176/176
f 178/178/178 220/220/220 222/222/222
f 178/178/178 222/222/222 221/221/221
f 223/223/223 224/224/224 225/225/225
f 223/223/223 225/225/225 226/226/226
f 223/223/223 227/227/227 228/228/228
f 223/223/223 228/228/228 224/224/224
f 229/229/229 230/230/230 231/231/231
f 229/229/229 231/231/231 232/232/232
f 225/225/225 233/233/233 234/234/234
f 225/225/225 234/234/234 226/226/226
f 224/224/224 228/228/228 233/233/233
f 224/224/224 233/233/233 225/225/225
f 235/235/235 236/236/236 237/237/237
f 235/235/235 237/237/237 238/238/238
f 179/179/179 197/197/197 219/219/219
f 179/179/179 219/219/219 180/180/180
f 182/182/182 198/198/198 197/197/197
f 182/182/182 197/197/197 179/179/179
f 193/193/193 201/201/201 200/200/200
f 193/193/193 200/200/200 194/194/194
f 183/183/183 228/228/228 227/227/227
f 183/183/183 227/227/227 184/184/184
f 221/221/221 233/233/233 228/228/228
f 221/221/221 228/228/228 183/183/183
f 239/239/239 240/240/240 241/241/241
f 239/239/239 241/241/241 192/192/192
f 239/239/239 231/231/231 230/230/230
f 239/239/239 230/230/230 240/240/240
f 222/222/222 234/234/234 233/233/233
f 222/222/222 233/233/233 221/221/221
f 241/241/241 216/216/216 190/190/190
f 241/241/241 190/190/190 192/192/192
f 187/187/187 237/237/237 236/236/236
f 187/187/187 236/236/236 188/188/188
f 242/242/242 243/243/243 244/244/244
f 242/242/242 244/244/244 245/245/245
f 246/246/246 247/247/247 248/248/248
f 246/246/246 248/248/248 249/249/249
f 250/250/250 17/17/17 19/19/19
f 250/250/250 19/19/19 251/251/251
f 252/252/252 253/253/253 254/254/254
f 252/252/252 254/254/254 255/255/255
f 256/256/256 36/36/36 38/38/38
f 256/256/256 38/38/38 257/257/257
f 255/255/255 254/254/254 258/258/258
f 255/255/255 258/258/258 259/259/259
f 260/260/260 261/261/261 262/262/262
f 260/260/260 262/262/262 263/263/263
f 264/264/264 12/12/12 11/11/11
f 264/264/264 11/11/11 265/265/265
f 253/253/253 266/266/266 267/267/267
f 253/253/253 267/267/267 254/254/254
f 261/261/261 260/260/260 266/266/266
f 261/261/261 266/266/266 253/253/253
f 254/254/254 267/267/267 268/268/268
f 254/254/254 268/268/268 258/258/258
f 13/13/13 269/269/269 270/270/270
f 13/13/13 270/270/270 271/271/271
f 272/272/272 273/273/273 274/274/274
f 272/272/272 274/274/274 275/275/275
f 243/243/243 276/276/276 277/277/277
f 243/243/243 277/277/277 244/244/244
f 278/278/278 279/279/279 274/274/274
f 278/278/278 274/274/274 273/273/273
f 248/248/248 251/251/251 280/280/280
f 248/248/248 280/280/280 281/281/281
f 249/249/249 248/248/248 281/281/281
f 249/249/249 281/281/281 282/282/282
f 247/247/247 250/250/250 251/251/251
f 247/247/247 251/251/251 248/248/248
f 283/283/283 21/21/21 20/20/20
f 283/283/283 20/20/20 284/284/284
f 19/19/19 285/285/285 286/286/286
f 19/19/19 286/286/286 287/287/287
f 251/251/251 19/19/19 287/287/287
f 251/251/251 287/287/287 280/280/280
f 21/21/21 288/288/288 289/289/289
f 21/21/21 289/289/289 22/22/22
f 284/284/284 20/20/20 54/54/54
f 284/284/284 54/54/54 48/48/48
f 290/290/290 44/44/44 291/291/291
f 290/290/290 291/291/291 292/292/292
f 292/292/292 291/291/291 293/293/293
f 292/292/292 293/293/293 294/294/294
f 295/295/295 61/61/61 296/296/296
f 295/295/295 296/296/296 297/297/297
f 293/293/293 62/62/62 61/61/61
f 293/293/293 61/61/61 295/295/295
f 291/291/291 298/298/298 62/62/62
f 291/291/291 62/62/62 293/293/293
f 299/299/299 300/300/300 301/301/301
f 299/299/299 301/301/301 302/302/302
f 303/303/303 257/257/257 38/38/38
f 303/303/303 38/38/38 41/41/41
f 35/35/35 34/34/34 257/257/257
f 35/35/35 257/257/257 303/303/303
f 33/33/33 256/256/256 257/257/257
f 33/33/33 257/257/257 34/34/34
f 35/35/35 303/303/303 304/304/304
f 35/35/35 304/304/304 305/305/305
f 15/15/15 35/35/35 305/305/305
f 15/15/15 305/305/305 16/16/16
f 41/41/41 37/37/37 40/40/40
f 41/41/41 40/40/40 306/306/306
f 303/303/303 41/41/41 306/306/306
f 303/303/303 306/306/306 304/304/304
f 304/304/304 306/306/306 307/307/307
f 304/304/304 307/307/307 31/31/31
f 306/306/306 40/40/40 308/308/308
f 306/306/306 308/308/308 307/307/307
f 27/27/27 42/42/42 309/309/309
f 27/27/27 309/309/309 310/310/310
f 309/309/309 311/311/311 312/312/312
f 309/309/309 312/312/312 313/313/313
f 314/314/314 310/310/310 315/315/315
f 314/314/314 315/315/315 316/316/316
f 307/307/307 308/308/308 317/317/317
f 307/307/307 317/317/317 318/318/318
f 308/308/308 319/319/319 320/320/320
f 308/308/308 320/320/320 317/317/317
f 318/318/318 317/317/317 321/321/321
f 318/318/318 321/321/321 322/322/322
f 317/317/317 320/320/320 323/323/323
f 317/317/317 323/323/323 321/321/321
f 310/310/310 309/309/309 313/313/313
f 310/310/310 313/313/313 315/315/315
f 245/245/245 244/244/244 324/324/324
f 245/245/245 324/324/324 325/325/325
f 244/244/244 277/277/277 326/326/326
f 244/244/244 326/326/326 324/324/324
f 327/327/327 242/242/242 245/245/245
f 327/327/327 245/245/245 328/328/328
f 329/329/329 330/330/330 331/331/331
f 329/329/329 331/331/331 332/332/332
f 330/330/330 327/327/327 328/328/328
f 330/330/330 328/328/328 331/331/331
f 333/333/333 329/329/329 332/332/332
f 333/333/333 332/332/332 334/334/334
f 325/325/325 324/324/324 335/335/335
f 325/325/325 335/335/335 336/336/336
f 324/324/324 326/326/326 337/337/337
f 324/324/324 337/337/337 335/335/335
f 331/331/331 328/328/328 338/338/338
f 331/331/331 338/338/338 339/339/339
f 334/334/334 332/332/332 340/340/340
f 334/334/334 340/340/340 341/341/341
f 328/328/328 245/245/245 325/325/325
f 328/328/328 325/325/325 338/338/338
f 332/332/332 331/331/331 339/339/339
f 332/332/332 339/339/339 340/340/340
f 335/335/335 337/337/337 342/342/342
f 335/335/335 342/342/342 343/343/343
f 344/344/344 345/345/345 346/346/346
f 344/344/344 346/346/346 347/347/347
f 339/339/339 338/338/338 348/348/348
f 339/339/339 348/348/348 345/345/345
f 341/341/341 340/340/340 344/344/344
f 341/341/341 344/344/344 349/349/349
f 338/338/338 325/325/325 336/336/336
f 338/338/338 336/336/336 348/348/348
f 340/340/340 339/339/339 345/345/345
f 340/340/340 345/345/345 344/344/344
f 343/343/343 342/342/342 350/350/350
f 343/343/343 350/350/350 351/351/351
f 347/347/347 346/346/346 352/352/352
f 347/347/347 352/352/352 353/353/353
f 336/336/336 335/335/335 343/343/343
f 336/336/336 343/343/343 354/354/354
f 345/345/345 348/348/348 355/355/355
f 345/345/345 355/355/355 346/346/346
f 349/349/349 344/344/344 347/347/347
f 349/349/349 347/347/347 356/356/356
f 348/348/348 336/336/336 354/354/354
f 348/348/348 354/354/354 355/355/355
f 351/351/351 350/350/350 357/357/357
f 351/351/351 357/357/357 358/358/358
f 353/353/353 352/352/352 359/359/359
f 353/353/353 359/359/359 360/360/360
f 354/354/354 343/343/343 351/351/351
f 354/354/354 351/351/351 361/361/361
f 346/346/346 355/355/355 362/362/362
f 346/346/346 362/362/362 352/352/352
f 356/356/356 347/347/347 353/353/353
f 356/356/356 353/353/353 363/363/363
f 355/355/355 354/354/354 361/361/361
f 355/355/355 361/361/361 362/362/362
f 360/360/360 359/359/359 364/364/364
f 360/360/360 364/364/364 365/365/365
f 366/366/366 367/367/367 368/368/368
f 366/366/366 368/368/368 369/369/369
f 361/361/361 351/351/351 358/358/358
f 361/361/361 358/358/358 367/367/367
f 352/352/352 362/362/362 366/366/366
f 352/352/352 366/366/366 359/359/359
f 363/363/363 353/353/353 360/360/360
f 363/363/363 360/360/360 370/370/370
f 362/362/362 361/361/361 367/367/367
f 362/362/362 367/367/367 366/366/366
f 358/358/358 357/357/357 371/371/371
f 358/358/358 371/371/371 372/372/372
f 367/367/367 358/358/358 372/372/372
f 367/367/367 372/372/372 368/368/368
f 359/359/359 366/366/366 369/369/369
f 359/359/359 369/369/369 364/364/364
f 370/370/370 360/360/360 365/365/365
f 370/370/370 365/365/365 373/373/373
f 53/53/53 45/45/45 44/44/44
f 53/53/53 44/44/44 290/290/290
f 44/44/44 43/43/43 298/298/298
f 44/44/44 298/298/298 291/291/291
f 302/302/302 301/301/301 374/374/374
f 302/302/302 374/374/374 375/375/375
f 54/54/54 376/376/376 43/43/43
f 54/54/54 43/43/43 46/46/46
f 40/40/40 39/39/39 319/319/319
f 40/40/40 319/319/319 308/308/308
f 162/162/162 151/151/151 150/150/150
f 162/162/162 150/150/150 159/159/159
f 159/159/159 150/150/150 155/155/155
f 159/159/159 155/155/155 163/163/163
f 163/163/163 155/155/155 177/177/177
f 163/163/163 177/177/177 185/185/185
f 185/185/185 177/177/177 180/180/180
f 185/185/185 180/180/180 187/187/187
f 187/187/187 180/180/180 219/219/219
f 187/187/187 219/219/219 237/237/237
f 237/237/237 219/219/219 218/218/218
f 237/237/237 218/218/218 238/238/238
f 238/238/238 218/218/218 217/217/217
f 238/238/238 217/217/217 235/235/235
f 377/377/377 202/202/202 201/201/201
f 377/377/377 201/201/201 378/378/378
f 378/378/378 201/201/201 193/193/193
f 378/378/378 193/193/193 379/379/379
f 379/379/379 193/193/193 191/191/191
f 379/379/379 191/191/191 380/380/380
f 380/380/380 191/191/191 189/189/189
f 380/380/380 189/189/189 381/381/381
f 381/381/381 189/189/189 171/171/171
f 381/381/381 171/171/171 382/382/382
f 382/382/382 171/171/171 170/170/170
f 382/382/382 170/170/170 383/383/383
f 311/311/311 318/318/318 322/322/322
f 311/311/311 322/322/322 312/312/312
f 42/42/42 31/31/31 311/311/311
f 42/42/42 311/311/311 309/309/309
f 265/265/265 11/11/11 384/384/384
f 265/265/265 384/384/384 385/385/385
f 384/384/384 11/11/11 13/13/13
f 384/384/384 13/13/13 271/271/271
f 18/18/18 263/263/263 386/386/386
f 18/18/18 386/386/386 387/387/387
f 18/18/18 387/387/387 285/285/285
f 18/18/18 285/285/285 19/19/19
f 17/17/17 260/260/260 263/263/263
f 17/17/17 263/263/263 18/18/18
f 263/263/263 262/262/262 388/388/388
f 263/263/263 388/388/388 386/386/386
f 264/264/264 261/261/261 253/253/253
f 264/264/264 253/253/253 252/252/252
f 12/12/12 264/264/264 252/252/252
f 12/12/12 252/252/252 389/389/389
f 262/262/262 265/265/265 385/385/385
f 262/262/262 385/385/385 388/388/388
f 261/261/261 264/264/264 265/265/265
f 261/261/261 265/265/265 262/262/262
f 278/278/278 255/255/255 259/259/259
f 278/278/278 259/259/259 279/279/279
f 389/389/389 252/252/252 255/255/255
f 389/389/389 255/255/255 278/278/278
f 28/28/28 27/27/27 310/310/310
f 28/28/28 310/310/310 314/314/314
f 27/27/27 26/26/26 32/32/32
f 27/27/27 32/32/32 42/42/42
f 16/16/16 305/305/305 30/30/30
f 16/16/16 30/30/30 29/29/29
f 305/305/305 304/304/304 31/31/31
f 305/305/305 31/31/31 30/30/30
f 32/32/32 26/26/26 29/29/29
f 32/32/32 29/29/29 30/30/30
f 14/14/14 16/16/16 29/29/29
f 14/14/14 29/29/29 28/28/28
f 31/31/31 307/307/307 318/318/318
f 31/31/31 318/318/318 311/311/311
f 300/300/300 390/390/390 64/64/64
f 300/300/300 64/64/64 301/301/301
f 130/130/130 142/142/142 141/141/141
f 130/130/130 141/141/141 127/127/127
f 57/57/57 24/24/24 23/23/23
f 57/57/57 23/23/23 58/58/58
f 22/22/22 289/289/289 391/391/391
f 22/22/22 391/391/391 376/376/376
f 392/392/392 393/393/393 390/390/390
f 392/392/392 390/390/390 300/300/300
f 376/376/376 391/391/391 60/60/60
f 376/376/376 60/60/60 43/43/43
f 43/43/43 60/60/60 62/62/62
f 43/43/43 62/62/62 298/298/298
f 64/64/64 390/390/390 394/394/394
f 64/64/64 394/394/394 65/65/65
f 395/395/395 392/392/392 300/300/300
f 395/395/395 300/300/300 299/299/299
f 396/396/396 297/297/297 392/392/392
f 396/396/396 392/392/392 395/395/395
f 297/297/297 296/296/296 393/393/393
f 297/297/297 393/393/393 392/392/392
f 397/397/397 295/295/295 297/297/297
f 397/397/397 297/297/297 396/396/396
f 294/294/294 293/293/293 295/295/295
f 294/294/294 295/295/295 397/397/397
f 301/301/301 64/64/64 63/63/63
f 301/301/301 63/63/63 374/374/374
f 390/390/390 393/393/393 296/296/296
f 390/390/390 296/296/296 394/394/394
f 60/60/60 394/394/394 296/296/296
f 60/60/60 296/296/296 61/61/61
f 65/65/65 391/391/391 289/289/289
f 65/65/65 289/289/289 63/63/63
f 289/289/289 288/288/288 374/374/374
f 289/289/289 374/374/374 63/63/63
f 22/22/22 376/376/376 54/54/54
f 22/22/22 54/54/54 20/20/20
f 246/246/246 268/268/268 267/267/267
f 246/246/246 267/267/267 247/247/247
f 398/398/398 399/399/399 400/400/400
f 398/398/398 400/400/400 401/401/401
f 402/402/402 403/403/403 404/404/404
f 402/402/402 404/404/404 405/405/405
f 402/402/402 406/406/406 407/407/407
f 402/402/402 407/407/407 408/408/408
f 402/402/402 408/408/408 409/409/409
f 402/402/402 409/409/409 403/403/403
f 398/398/398 401/401/401 410/410/410
f 398/398/398 410/410/410 411/411/411
f 401/401/401 400/400/400 114/114/114
f 401/401/401 114/114/114 68/68/68
f 401/401/401 68/68/68 113/113/113
f 401/401/401 113/113/113 410/410/410
f 408/408/408 407/407/407 412/412/412
f 408/408/408 412/412/412 413/413/413
f 408/408/408 413/413/413 414/414/414
f 408/408/408 414/414/414 409/409/409
f 413/413/413 398/398/398 415/415/415
f 413/413/413 415/415/415 414/414/414
f 414/414/414 72/72/72 70/70/70
f 414/414/414 70/70/70 409/409/409
f 72/72/72 414/414/414 415/415/415
f 72/72/72 415/415/415 73/73/73
f 73/73/73 415/415/415 416/416/416
f 73/73/73 416/416/416 417/417/417
f 415/415/415 398/398/398 411/411/411
f 415/415/415 411/411/411 416/416/416
f 404/404/404 403/403/403 69/69/69
f 404/404/404 69/69/69 418/418/418
f 69/69/69 403/403/403 409/409/409
f 69/69/69 409/409/409 70/70/70
f 69/69/69 71/71/71 419/419/419
f 69/69/69 419/419/419 418/418/418
f 74/74/74 73/73/73 417/417/417
f 74/74/74 417/417/417 420/420/420
f 71/71/71 74/74/74 420/420/420
f 71/71/71 420/420/420 419/419/419
f 70/70/70 72/72/72 74/74/74
f 70/70/70 74/74/74 71/71/71
f 421/421/421 422/422/422 423/423/423
f 421/421/421 423/423/423 424/424/424
f 422/422/422 421/421/421 425/425/425
f 422/422/422 425/425/425 426/426/426
f 422/422/422 426/426/426 427/427/427
f 422/422/422 427/427/427 428/428/428
f 423/423/423 422/422/422 428/428/428
f 423/423/423 428/428/428 429/429/429
f 430/430/430 431/431/431 432/432/432
f 430/430/430 432/432/432 433/433/433
f 430/430/430 433/433/433 434/434/434
f 430/430/430 434/434/434 435/435/435
f 436/436/436 437/437/437 429/429/429
f 436/436/436 429/429/429 438/438/438
f 436/436/436 438/438/438 439/439/439
f 436/436/436 439/439/439 440/440/440
f 441/441/441 442/442/442 443/443/443
f 441/441/441 443/443/443 444/444/444
f 438/438/438 429/429/429 428/428/428
f 438/438/438 428/428/428 445/445/445
f 438/438/438 445/445/445 446/446/446
f 438/438/438 446/446/446 439/439/439
f 426/426/426 425/425/425 447/447/447
f 426/426/426 447/447/447 448/448/448
f 426/426/426 448/448/448 449/449/449
f 426/426/426 449/449/449 427/427/427
f 448/448/448 447/447/447 450/450/450
f 448/448/448 450/450/450 451/451/451
f 448/448/448 451/451/451 452/452/452
f 448/448/448 452/452/452 453/453/453
f 448/448/448 453/453/453 454/454/454
f 448/448/448 454/454/454 455/455/455
f 456/456/456 435/435/435 434/434/434
f 456/456/456 434/434/434 457/457/457
f 456/456/456 457/457/457 458/458/458
f 456/456/456 458/458/458 459/459/459
f 460/460/460 444/444/444 443/443/443
f 460/460/460 443/443/443 461/461/461
f 462/462/462 460/460/460 461/461/461
f 462/462/462 461/461/461 463/463/463
f 462/462/462 463/463/463 464/464/464
f 462/462/462 464/464/464 465/465/465
f 466/466/466 467/467/467 468/468/468
f 466/466/466 468/468/468 469/469/469
f 470/470/470 471/471/471 472/472/472
f 470/470/470 472/472/472 473/473/473
f 474/474/474 443/443/443 475/475/475
f 474/474/474 475/475/475 476/476/476
f 445/445/445 428/428/428 427/427/427
f 445/445/445 427/427/427 477/477/477
f 478/478/478 479/479/479 480/480/480
f 478/478/478 480/480/480 481/481/481
f 482/482/482 483/483/483 476/476/476
f 482/482/482 476/476/476 475/475/475
f 484/484/484 482/482/482 475/475/475
f 484/484/484 475/475/475 485/485/485
f 480/480/480 486/486/486 440/440/440
f 480/480/480 440/440/440 439/439/439
f 481/481/481 480/480/480 439/439/439
f 481/481/481 439/439/439 446/446/446
f 443/443/443 442/442/442 485/485/485
f 443/443/443 485/485/485 475/475/475
f 443/443/443 474/474/474 487/487/487
f 443/443/443 487/487/487 461/461/461
f 488/488/488 466/466/466 469/469/469
f 488/488/488 469/469/469 489/489/489
f 489/489/489 469/469/469 468/468/468
f 489/489/489 468/468/468 490/490/490
f 427/427/427 449/449/449 491/491/491
f 427/427/427 491/491/491 477/477/477
f 449/449/449 448/448/448 455/455/455
f 449/449/449 455/455/455 492/492/492
f 449/449/449 492/492/492 493/493/493
f 449/449/449 493/493/493 491/491/491
f 494/494/494 495/495/495 496/496/496
f 494/494/494 496/496/496 497/497/497
f 494/494/494 497/497/497 498/498/498
f 494/494/494 498/498/498 499/499/499
f 500/500/500 501/501/501 502/502/502
f 500/500/500 502/502/502 503/503/503
f 496/496/496 495/495/495 504/504/504
f 496/496/496 504/504/504 505/505/505
f 497/497/497 496/496/496 505/505/505
f 497/497/497 505/505/505 498/498/498
f 506/506/506 507/507/507 508/508/508
f 506/506/506 508/508/508 509/509/509
f 451/451/451 450/450/450 490/490/490
f 451/451/451 490/490/490 468/468/468
f 452/452/452 451/451/451 468/468/468
f 452/452/452 468/468/468 467/467/467
f 465/465/465 464/464/464 473/473/473
f 465/465/465 473/473/473 472/472/472
f 455/455/455 454/454/454 499/499/499
f 455/455/455 499/499/499 498/498/498
f 492/492/492 455/455/455 498/498/498
f 492/492/492 498/498/498 505/505/505
f 510/510/510 463/463/463 511/511/511
f 510/510/510 511/511/511 512/512/512
f 510/510/510 512/512/512 503/503/503
f 510/510/510 503/503/503 502/502/502
f 493/493/493 492/492/492 505/505/505
f 493/493/493 505/505/505 504/504/504
f 511/511/511 463/463/463 461/461/461
f 511/511/511 461/461/461 487/487/487
f 459/459/459 458/458/458 509/509/509
f 459/459/459 509/509/509 508/508/508
f 513/513/513 514/514/514 515/515/515
f 513/513/513 515/515/515 516/516/516
f 246/246/246 249/249/249 517/517/517
f 246/246/246 517/517/517 518/518/518
f 519/519/519 520/520/520 83/83/83
f 519/519/519 83/83/83 82/82/82
f 521/521/521 522/522/522 523/523/523
f 521/521/521 523/523/523 524/524/524
f 525/525/525 526/526/526 102/102/102
f 525/525/525 102/102/102 101/101/101
f 522/522/522 259/259/259 258/258/258
f 522/522/522 258/258/258 523/523/523
f 527/527/527 528/528/528 529/529/529
f 527/527/527 529/529/529 530/530/530
f 531/531/531 532/532/532 76/76/76
f 531/531/531 76/76/76 78/78/78
f 524/524/524 523/523/523 533/533/533
f 524/524/524 533/533/533 534/534/534
f 530/530/530 524/524/524 534/534/534
f 530/530/530 534/534/534 527/527/527
f 523/523/523 258/258/258 268/268/268
f 523/523/523 268/268/268 533/533/533
f 77/77/77 271/271/271 270/270/270
f 77/77/77 270/270/270 535/535/535
f 536/536/536 275/275/275 274/274/274
f 536/536/536 274/274/274 537/537/537
f 516/516/516 515/515/515 538/538/538
f 516/516/516 538/538/538 539/539/539
f 540/540/540 537/537/537 274/274/274
f 540/540/540 274/274/274 279/279/279
f 517/517/517 541/541/541 542/542/542
f 517/517/517 542/542/542 520/520/520
f 249/249/249 282/282/282 541/541/541
f 249/249/249 541/541/541 517/517/517
f 518/518/518 517/517/517 520/520/520
f 518/518/518 520/520/520 519/519/519
f 283/283/283 284/284/284 85/85/85
f 283/283/283 85/85/85 87/87/87
f 83/83/83 543/543/543 286/286/286
f 83/83/83 286/286/286 285/285/285
f 520/520/520 542/542/542 543/543/543
f 520/520/520 543/543/543 83/83/83
f 87/87/87 86/86/86 544/544/544
f 87/87/87 544/544/544 545/545/545
f 284/284/284 48/48/48 116/116/116
f 284/284/284 116/116/116 85/85/85
f 290/290/290 292/292/292 546/546/546
f 290/290/290 546/546/546 110/110/110
f 292/292/292 294/294/294 547/547/547
f 292/292/292 547/547/547 546/546/546
f 548/548/548 549/549/549 550/550/550
f 548/548/548 550/550/550 123/123/123
f 547/547/547 548/548/548 123/123/123
f 547/547/547 123/123/123 122/122/122
f 546/546/546 547/547/547 122/122/122
f 546/546/546 122/122/122 551/551/551
f 299/299/299 302/302/302 552/552/552
f 299/299/299 552/552/552 553/553/553
f 554/554/554 106/106/106 102/102/102
f 554/554/554 102/102/102 526/526/526
f 100/100/100 554/554/554 526/526/526
f 100/100/100 526/526/526 98/98/98
f 99/99/99 98/98/98 526/526/526
f 99/99/99 526/526/526 525/525/525
f 100/100/100 555/555/555 556/556/556
f 100/100/100 556/556/556 554/554/554
f 81/81/81 80/80/80 555/555/555
f 81/81/81 555/555/555 100/100/100
f 106/106/106 557/557/557 104/104/104
f 106/106/106 104/104/104 103/103/103
f 554/554/554 556/556/556 557/557/557
f 554/554/554 557/557/557 106/106/106
f 556/556/556 97/97/97 558/558/558
f 556/556/556 558/558/558 557/557/557
f 557/557/557 558/558/558 559/559/559
f 557/557/557 559/559/559 104/104/104
f 93/93/93 560/560/560 561/561/561
f 93/93/93 561/561/561 107/107/107
f 561/561/561 562/562/562 563/563/563
f 561/561/561 563/563/563 564/564/564
f 565/565/565 566/566/566 567/567/567
f 565/565/565 567/567/567 560/560/560
f 558/558/558 568/568/568 569/569/569
f 558/558/558 569/569/569 559/559/559
f 559/559/559 569/569/569 570/570/570
f 559/559/559 570/570/570 571/571/571
f 568/568/568 572/572/572 573/573/573
f 568/568/568 573/573/573 569/569/569
f 569/569/569 573/573/573 574/574/574
f 569/569/569 574/574/574 570/570/570
f 560/560/560 567/567/567 562/562/562
f 560/560/560 562/562/562 561/561/561
f 514/514/514 575/575/575 576/576/576
f 514/514/514 576/576/576 515/515/515
f 515/515/515 576/576/576 577/577/577
f 515/515/515 577/577/577 538/538/538
f 578/578/578 579/579/579 514/514/514
f 578/578/578 514/514/514 513/513/513
f 580/580/580 581/581/581 582/582/582
f 580/580/580 582/582/582 583/583/583
f 583/583/583 582/582/582 579/579/579
f 583/583/583 579/579/579 578/578/578
f 584/584/584 585/585/585 581/581/581
f 584/584/584 581/581/581 580/580/580
f 575/575/575 586/586/586 587/587/587
f 575/575/575 587/587/587 576/576/576
f 576/576/576 587/587/587 588/588/588
f 576/576/576 588/588/588 577/577/577
f 582/582/582 589/589/589 590/590/590
f 582/582/582 590/590/590 579/579/579
f 585/585/585 591/591/591 592/592/592
f 585/585/585 592/592/592 581/581/581
f 579/579/579 590/590/590 575/575/575
f 579/579/579 575/575/575 514/514/514
f 581/581/581 592/592/592 589/589/589
f 581/581/581 589/589/589 582/582/582
f 587/587/587 593/593/593 594/594/594
f 587/587/587 594/594/594 588/588/588
f 595/595/595 596/596/596 597/597/597
f 595/595/595 597/597/597 598/598/598
f 589/589/589 598/598/598 599/599/599
f 589/589/589 599/599/599 590/590/590
f 591/591/591 600/600/600 595/595/595
f 591/591/591 595/595/595 592/592/592
f 590/590/590 599/599/599 586/586/586
f 590/590/590 586/586/586 575/575/575
f 592/592/592 595/595/595 598/598/598
f 592/592/592 598/598/598 589/589/589
f 593/593/593 601/601/601 602/602/602
f 593/593/593 602/602/602 594/594/594
f 596/596/596 603/603/603 604/604/604
f 596/596/596 604/604/604 597/597/597
f 586/586/586 605/605/605 593/593/593
f 586/586/586 593/593/593 587/587/587
f 598/598/598 597/597/597 606/606/606
f 598/598/598 606/606/606 599/599/599
f 600/600/600 607/607/607 596/596/596
f 600/600/600 596/596/596 595/595/595
f 599/599/599 606/606/606 605/605/605
f 599/599/599 605/605/605 586/586/586
f 601/601/601 608/608/608 609/609/609
f 601/601/601 609/609/609 602/602/602
f 603/603/603 610/610/610 611/611/611
f 603/603/603 611/611/611 604/604/604
f 605/605/605 612/612/612 601/601/601
f 605/605/605 601/601/601 593/593/593
f 597/597/597 604/604/604 613/613/613
f 597/597/597 613/613/613 606/606/606
f 607/607/607 614/614/614 603/603/603
f 607/607/607 603/603/603 596/596/596
f 606/606/606 613/613/613 612/612/612
f 606/606/606 612/612/612 605/605/605
f 610/610/610 615/615/615 616/616/616
f 610/610/610 616/616/616 611/611/611
f 617/617/617 618/618/618 619/619/619
f 617/617/617 619/619/619 620/620/620
f 612/612/612 620/620/620 608/608/608
f 612/612/612 608/608/608 601/601/601
f 604/604/604 611/611/611 617/617/617
f 604/604/604 617/617/617 613/613/613
f 614/614/614 621/621/621 610/610/610
f 614/614/614 610/610/610 603/603/603
f 613/613/613 617/617/617 620/620/620
f 613/613/613 620/620/620 612/612/612
f 608/608/608 622/622/622 623/623/623
f 608/608/608 623/623/623 609/609/609
f 620/620/620 619/619/619 622/622/622
f 620/620/620 622/622/622 608/608/608
f 611/611/611 616/616/616 618/618/618
f 611/611/611 618/618/618 617/617/617
f 621/621/621 624/624/624 615/615/615
f 621/621/621 615/615/615 610/610/610
f 53/53/53 290/290/290 110/110/110
f 53/53/53 110/110/110 109/109/109
f 110/110/110 546/546/546 551/551/551
f 110/110/110 551/551/551 108/108/108
f 302/302/302 375/375/375 625/625/625
f 302/302/302 625/625/625 552/552/552
f 116/116/116 111/111/111 108/108/108
f 116/116/116 108/108/108 626/626/626
f 104/104/104 559/559/559 571/571/571
f 104/104/104 571/571/571 105/105/105
f 431/431/431 430/430/430 421/421/421
f 431/431/431 421/421/421 424/424/424
f 430/430/430 435/435/435 425/425/425
f 430/430/430 425/425/425 421/421/421
f 435/435/435 456/456/456 447/447/447
f 435/435/435 447/447/447 425/425/425
f 456/456/456 459/459/459 450/450/450
f 456/456/456 450/450/450 447/447/447
f 459/459/459 508/508/508 490/490/490
f 459/459/459 490/490/490 450/450/450
f 508/508/508 507/507/507 489/489/489
f 508/508/508 489/489/489 490/490/490
f 507/507/507 506/506/506 488/488/488
f 507/507/507 488/488/488 489/489/489
f 627/627/627 628/628/628 472/472/472
f 627/627/627 472/472/472 471/471/471
f 628/628/628 629/629/629 465/465/465
f 628/628/628 465/465/465 472/472/472
f 629/629/629 630/630/630 462/462/462
f 629/629/629 462/462/462 465/465/465
f 630/630/630 631/631/631 460/460/460
f 630/630/630 460/460/460 462/462/462
f 631/631/631 632/632/632 444/444/444
f 631/631/631 444/444/444 460/460/460
f 632/632/632 633/633/633 441/441/441
f 632/632/632 441/441/441 444/444/444
f 564/564/564 563/563/563 572/572/572
f 564/564/564 572/572/572 568/568/568
f 107/107/107 561/561/561 564/564/564
f 107/107/107 564/564/564 97/97/97
f 532/532/532 385/385/385 384/384/384
f 532/532/532 384/384/384 76/76/76
f 384/384/384 271/271/271 77/77/77
f 384/384/384 77/77/77 76/76/76
f 84/84/84 387/387/387 386/386/386
f 84/84/84 386/386/386 528/528/528
f 84/84/84 83/83/83 285/285/285
f 84/84/84 285/285/285 387/387/387
f 82/82/82 84/84/84 528/528/528
f 82/82/82 528/528/528 527/527/527
f 528/528/528 386/386/386 388/388/388
f 528/528/528 388/388/388 529/529/529
f 531/531/531 521/521/521 524/524/524
f 531/531/531 524/524/524 530/530/530
f 78/78/78 634/634/634 521/521/521
f 78/78/78 521/521/521 531/531/531
f 529/529/529 388/388/388 385/385/385
f 529/529/529 385/385/385 532/532/532
f 530/530/530 529/529/529 532/532/532
f 530/530/530 532/532/532 531/531/531
f 540/540/540 279/279/279 259/259/259
f 540/540/540 259/259/259 522/522/522
f 634/634/634 540/540/540 522/522/522
f 634/634/634 522/522/522 521/521/521
f 92/92/92 565/565/565 560/560/560
f 92/92/92 560/560/560 93/93/93
f 93/93/93 107/107/107 96/96/96
f 93/93/93 96/96/96 91/91/91
f 80/80/80 94/94/94 95/95/95
f 80/80/80 95/95/95 555/555/555
f 555/555/555 95/95/95 97/97/97
f 555/555/555 97/97/97 556/556/556
f 96/96/96 95/95/95 94/94/94
f 96/96/96 94/94/94 91/91/91
f 79/79/79 92/92/92 94/94/94
f 79/79/79 94/94/94 80/80/80
f 97/97/97 564/564/564 568/568/568
f 97/97/97 568/568/568 558/558/558
f 553/553/553 552/552/552 126/126/126
f 553/553/553 126/126/126 635/635/635
f 399/399/399 398/398/398 413/413/413
f 399/399/399 413/413/413 412/412/412
f 119/119/119 118/118/118 88/88/88
f 119/119/119 88/88/88 90/90/90
f 86/86/86 626/626/626 636/636/636
f 86/86/86 636/636/636 544/544/544
f 637/637/637 553/553/553 635/635/635
f 637/637/637 635/635/635 638/638/638
f 626/626/626 108/108/108 121/121/121
f 626/626/626 121/121/121 636/636/636
f 108/108/108 551/551/551 122/122/122
f 108/108/108 122/122/122 121/121/121
f 126/126/126 125/125/125 639/639/639
f 126/126/126 639/639/639 635/635/635
f 395/395/395 299/299/299 553/553/553
f 395/395/395 553/553/553 637/637/637
f 396/396/396 395/395/395 637/637/637
f 396/396/396 637/637/637 549/549/549
f 549/549/549 637/637/637 638/638/638
f 549/549/549 638/638/638 550/550/550
f 397/397/397 396/396/396 549/549/549
f 397/397/397 549/549/549 548/548/548
f 294/294/294 397/397/397 548/548/548
f 294/294/294 548/548/548 547/547/547
f 552/552/552 625/625/625 124/124/124
f 552/552/552 124/124/124 126/126/126
f 635/635/635 639/639/639 550/550/550
f 635/635/635 550/550/550 638/638/638
f 121/121/121 123/123/123 550/550/550
f 121/121/121 550/550/550 639/639/639
f 125/125/125 124/124/124 544/544/544
f 125/125/125 544/544/544 636/636/636
f 544/544/544 124/124/124 625/625/625
f 544/544/544 625/625/625 545/545/545
f 86/86/86 85/85/85 116/116/116
f 86/86/86 116/116/116 626/626/626
f 246/246/246 518/518/518 533/533/533
f 246/246/246 533/533/533 268/268/268
f 58/58/58 59/59/59 56/56/56
f 59/59/59 58/58/58 25/25/25
f 25/25/25 58/58/58 23/23/23
f 643/643/640 641/641/641 642/642/642
f 641/641/641 643/643/640 644/644/643
f 641/641/641 644/644/643 649/649/644
f 649/649/644 644/644/643 648/648/645
f 648/648/645 644/644/643 645/645/646
f 648/648/645 645/645/646 646/646/647
f 648/648/645 646/646/647 647/647/648
f 641/641/641 650/650/649 640/640/650
f 650/650/649 641/641/641 649/649/644
f 120/120/120 118/118/118 117/117/117
f 118/118/118 120/120/120 89/89/89
f 118/118/118 89/89/89 88/88/88
f 656/656/651 654/654/652 655/655/653
f 654/654/652 656/656/651 657/657/654
f 654/654/652 657/657/654 653/653/655
f 653/653/655 657/657/654 658/658/656
f 653/653/655 658/658/656 661/661/657
f 661/661/657 658/658/656 659/659/658
f 661/661/657 659/659/658 660/660/659
f 661/661/657 652/652/660 653/653/655
f 652/652/660 661/661/657 651/651/661
