# Blender 3.3.21
# www.blender.org
mtllib TST_statue1.mtl
o Cube_Material.001_0
v 0.081614 0.068071 0.049394
v 0.098203 0.070796 -0.046612
v 0.081049 0.002304 -0.008080
v 0.100441 0.023094 0.181714
v 0.132888 0.021480 0.224907
v 0.130106 0.031776 0.188442
v 0.183378 0.031947 0.172156
v 0.186473 0.025019 0.220152
v 0.225195 0.018875 0.144085
v 0.106694 -0.002584 0.039708
v 0.089684 1.072680 -0.151417
v 0.165315 1.061346 -0.100838
v 0.037834 0.965449 -0.104606
v 0.157557 1.462490 -0.043579
v 0.138144 1.539552 -0.135848
v 0.180924 1.470714 -0.109400
v 0.151961 1.652970 -0.113898
v 0.077451 1.642787 -0.146896
v 0.076227 1.694650 -0.075464
v 0.034510 1.726388 0.082727
v 0.031863 1.727704 0.025414
v 0.069491 1.739485 0.032555
v 0.132954 1.867482 -0.043734
v 0.102325 1.869815 -0.034727
v 0.123034 1.877606 -0.021647
v 0.225827 1.291423 -0.137827
v 0.232164 1.273791 -0.137140
v 0.208656 1.286209 -0.093605
v 0.217417 1.309461 -0.132570
v 0.267889 1.310818 -0.139774
v 0.297764 1.288054 -0.106314
v 0.269795 1.290816 -0.150602
v 0.156122 1.656834 -0.111796
v 0.216708 1.612536 -0.121773
v 0.229098 1.548212 -0.127213
v 0.166261 1.636114 0.008738
v 0.166113 1.498743 0.021832
v 0.234372 1.598744 0.020246
v 0.157557 1.462490 -0.043579
v 0.200180 1.440731 -0.013402
v 0.258125 1.518839 0.007445
v 0.274330 1.271540 -0.143336
v 0.088513 1.850048 0.044289
v 0.065884 1.864779 0.100887
v 0.054606 1.848487 0.091047
v 0.064514 1.824499 0.098704
v 0.000000 1.788762 0.127820
v 0.000000 1.755850 0.121855
v 0.026938 1.796486 0.106976
v 0.096479 0.011428 -0.058876
v 0.116866 0.120578 -0.015244
v 0.090217 0.118372 0.048089
v 0.000000 1.845164 0.119909
v 0.049589 1.767998 0.088926
v 0.000000 1.801130 0.148827
v 0.093644 1.801482 -0.007796
v 0.092864 1.820899 -0.032079
v 0.115357 1.818567 -0.033238
v 0.100829 1.857801 -0.008574
v 0.100829 1.857801 -0.008574
v 0.099672 1.925873 -0.014276
v 0.100720 1.915548 0.015101
v 0.079172 1.781777 -0.052666
v 0.085352 1.823560 -0.079563
v 0.092864 1.820899 -0.032079
v -0.068656 0.066519 0.050086
v -0.067685 0.002439 -0.008706
v -0.085525 0.072691 -0.044931
v -0.087163 0.023094 0.181714
v -0.116828 0.031776 0.188442
v -0.119610 0.021479 0.224907
v -0.170100 0.031947 0.172155
v -0.211917 0.018875 0.144084
v -0.173194 0.025019 0.220151
v -0.093169 -0.003101 0.038876
v -0.089926 1.071822 -0.151346
v -0.037834 0.965449 -0.104606
v -0.165680 1.059199 -0.099915
v -0.155847 1.461990 -0.036393
v -0.180906 1.465524 -0.102330
v -0.139308 1.537420 -0.136183
v -0.152251 1.652660 -0.114313
v -0.076227 1.694650 -0.075464
v -0.077637 1.642641 -0.147237
v -0.034510 1.726388 0.082727
v -0.069491 1.739485 0.032555
v -0.031863 1.727704 0.025414
v -0.132954 1.867482 -0.043734
v -0.123034 1.877606 -0.021647
v -0.102325 1.869815 -0.034727
v -0.222837 1.282982 -0.116738
v -0.205228 1.280786 -0.072494
v -0.229036 1.265353 -0.115152
v -0.214610 1.301447 -0.112712
v -0.265111 1.301492 -0.119406
v -0.266881 1.280982 -0.129101
v -0.294320 1.280694 -0.084389
v -0.217851 1.610361 -0.122008
v -0.157097 1.655790 -0.113196
v -0.230591 1.542744 -0.124563
v -0.166217 1.636596 0.008115
v -0.233888 1.599348 0.020745
v -0.163282 1.502460 0.026238
v -0.197348 1.441515 -0.003770
v -0.155847 1.461990 -0.036393
v -0.256203 1.519661 0.012640
v -0.271226 1.262296 -0.121033
v -0.088513 1.850048 0.044289
v -0.054606 1.848487 0.091047
v -0.065884 1.864779 0.100887
v -0.064514 1.824499 0.098704
v -0.026938 1.796486 0.106976
v -0.083180 0.012612 -0.059409
v -0.104604 0.121722 -0.010971
v -0.078065 0.117141 0.051573
v -0.049589 1.767998 0.088926
v -0.093644 1.801482 -0.007796
v -0.115357 1.818567 -0.033238
v -0.092864 1.820899 -0.032079
v -0.100829 1.857801 -0.008574
v -0.100829 1.857801 -0.008574
v -0.100720 1.915548 0.015101
v -0.099672 1.925873 -0.014276
v -0.079172 1.781777 -0.052666
v -0.092864 1.820899 -0.032079
v -0.085352 1.823560 -0.079563
v 0.182289 0.042787 0.039507
v 0.143936 0.066110 -0.059449
v 0.145297 0.117544 -0.013944
v 0.161847 0.103582 0.037892
v 0.081662 0.069030 0.048870
v 0.108221 -0.001680 0.040873
v 0.092209 -0.000915 0.130863
v 0.089811 0.036754 0.138722
v 0.112278 0.092213 0.084620
v 0.110889 0.128376 0.067901
v 0.089347 0.118954 0.046926
v 0.122126 0.058508 0.133998
v 0.179198 -0.002700 0.032936
v 0.141991 0.004657 -0.064155
v 0.164203 0.093795 0.077493
v 0.150425 0.121790 0.067070
v 0.169067 0.061570 0.126570
v 0.213781 0.029472 0.103438
v 0.225026 0.000015 0.145638
v 0.215854 -0.000028 0.105120
v 0.101009 0.000012 0.177851
v 0.131244 0.000000 0.233379
v 0.184767 0.000001 0.227258
v 0.305855 0.931071 0.008878
v 0.302683 0.972083 0.000536
v 0.303446 0.978163 0.033731
v 0.304417 0.936416 0.042479
v 0.309640 0.894930 0.052463
v 0.309209 0.892166 0.014676
v 0.291697 0.929581 0.060170
v 0.294686 0.902690 0.069444
v 0.277931 0.976193 0.040547
v 0.276978 0.931204 -0.021139
v 0.258220 0.931795 -0.025176
v 0.258477 0.967378 -0.028262
v 0.276602 0.965716 -0.025983
v 0.277821 0.889956 -0.022230
v 0.255815 0.891516 -0.025315
v 0.238731 0.956517 0.038847
v 0.262981 0.943945 0.060892
v 0.249919 0.974050 0.005047
v 0.213904 0.913849 0.052895
v 0.235641 0.903672 0.068814
v 0.249789 0.974082 0.005345
v 0.238148 0.928608 0.006147
v 0.239251 0.920261 0.029864
v 0.238395 0.957205 0.039418
v 0.265676 0.914975 0.057221
v 0.240498 0.894982 0.057665
v 0.310651 0.862809 0.060535
v 0.307051 0.856903 0.020066
v 0.301371 0.875187 0.080865
v 0.306014 0.819286 0.065007
v 0.297813 0.816459 0.026912
v 0.283294 0.856988 0.052646
v 0.287626 0.824189 0.058999
v 0.311972 0.826639 0.076889
v 0.294701 0.827178 0.068690
v 0.279073 0.856329 -0.017731
v 0.256623 0.858140 -0.019443
v 0.273780 0.821762 -0.015920
v 0.257518 0.828092 -0.015570
v 0.259297 0.898780 0.015955
v 0.261892 0.895182 0.039863
v 0.278506 0.857803 0.024027
v 0.283294 0.856988 0.052646
v 0.279554 0.830296 0.029418
v 0.287626 0.824189 0.058999
v 0.263603 0.785318 0.058449
v 0.272835 0.776189 0.061450
v 0.286140 0.785987 0.063942
v 0.273887 0.799173 0.058316
v 0.263603 0.785318 0.058449
v 0.273887 0.799173 0.058316
v 0.265895 0.801680 0.029932
v 0.247476 0.787976 0.030510
v 0.265655 0.915006 0.057263
v 0.240738 0.894627 0.057187
v 0.217600 0.900147 0.039380
v 0.269626 0.898433 0.060104
v 0.206602 0.884441 0.051813
v 0.220673 0.879463 0.062257
v 0.216837 0.885487 0.069326
v 0.201116 0.892072 0.059402
v 0.207118 0.883665 0.050815
v 0.221174 0.878695 0.061279
v 0.201634 0.891171 0.058452
v 0.214560 0.912670 0.051711
v 0.201039 0.892206 0.059543
v 0.269625 0.898434 0.060105
v 0.247476 0.787976 0.030510
v 0.260171 0.777556 0.025830
v 0.276566 0.784465 0.026981
v 0.279536 0.874747 0.072546
v 0.304202 0.832331 0.097407
v 0.288876 0.834203 0.085965
v 0.279993 0.776633 0.082517
v 0.290307 0.772567 0.088507
v 0.286832 0.777980 0.102403
v 0.275043 0.783347 0.094789
v 0.290349 0.801045 0.077315
v 0.303699 0.794326 0.084871
v 0.275043 0.783347 0.094789
v 0.284683 0.808524 0.090901
v 0.290349 0.801045 0.077315
v 0.279993 0.776633 0.082517
v 0.297685 0.802045 0.102292
v 0.284683 0.808524 0.090901
v 0.234886 0.803901 -0.009406
v 0.247827 0.818062 -0.012875
v 0.259998 0.805202 -0.013779
v 0.244825 0.793048 -0.010249
v 0.294701 0.827178 0.068690
v 0.288876 0.834203 0.085965
v 0.279536 0.874747 0.072546
v 0.146531 1.066752 0.096696
v 0.035425 0.984227 0.106970
v 0.042463 0.924207 0.102147
v 0.160173 0.930703 0.115069
v 0.000000 1.609815 0.076080
v 0.166865 1.636195 0.008895
v 0.047658 1.659147 0.004868
v 0.000000 1.653424 0.025959
v 0.183160 1.661080 -0.046245
v 0.087029 1.697896 -0.041798
v 0.183517 1.213762 0.011900
v 0.170491 1.330497 0.028371
v 0.115147 1.371636 0.087948
v 0.132328 1.215011 0.092375
v 0.186839 1.661100 -0.045475
v 0.253485 1.631950 -0.050994
v 0.000000 1.395844 0.139680
v 0.000000 1.213353 0.129129
v 0.145661 1.530894 -0.136777
v 0.137981 1.351825 -0.052616
v 0.071031 1.357919 -0.089022
v 0.082694 1.511250 -0.154404
v 0.146860 1.207586 -0.064512
v 0.064789 1.200087 -0.110523
v 0.164420 1.462003 -0.041928
v 0.169069 1.498737 0.022506
v 0.000000 1.510272 0.133135
v 0.016789 0.941669 -0.009450
v 0.000000 0.929696 -0.009450
v 0.000000 0.954073 -0.077352
v 0.016789 0.941669 -0.009450
v 0.049955 0.965690 0.098681
v 0.000000 0.952670 0.091821
v 0.000000 0.929696 -0.009450
v -0.001091 0.957228 -0.000812
v -0.001447 0.913794 -0.008123
v 0.146451 1.066558 0.096374
v 0.000000 1.038892 0.119042
v 0.077887 1.749353 -0.021338
v 0.031863 1.727704 0.025414
v 0.000000 1.719197 0.044576
v 0.000000 1.719197 0.044576
v 0.000000 1.718282 0.115308
v 0.000000 1.696109 -0.095149
v 0.000000 1.780647 -0.082213
v 0.054397 1.763998 -0.060364
v 0.077887 1.749353 -0.021338
v 0.082957 1.758328 -0.005821
v 0.000000 1.863958 0.129604
v 0.063754 1.914100 0.090645
v 0.000000 1.919427 0.120026
v 0.063754 1.950399 0.055124
v 0.000000 1.963283 0.081817
v 0.060354 1.970504 0.004165
v 0.097623 1.916359 -0.051057
v 0.060354 1.963495 -0.057440
v 0.093335 1.882221 0.042431
v 0.000000 1.893020 -0.135409
v 0.054162 1.884115 -0.120296
v 0.053363 1.815929 -0.104484
v 0.000000 1.810827 -0.117436
v 0.301380 1.531397 -0.072278
v 0.283300 1.458609 -0.083417
v 0.244834 1.465786 -0.125119
v 0.259318 1.436049 -0.025208
v 0.286598 1.270967 -0.071950
v 0.239985 1.274005 -0.060942
v 0.281706 1.185368 -0.120280
v 0.199378 1.207318 -0.122627
v 0.309711 1.194802 -0.085299
v 0.302462 0.971451 0.001410
v 0.276350 0.964261 -0.024782
v 0.190237 1.231680 -0.067387
v 0.258208 0.965935 -0.027083
v 0.249533 0.974145 0.005932
v 0.231906 1.238379 -0.024195
v 0.314799 1.213940 -0.049353
v 0.208782 1.285893 -0.093822
v 0.190128 1.231824 -0.067141
v 0.277419 0.977222 0.041509
v 0.303049 0.978564 0.034701
v 0.249533 0.974145 0.005932
v 0.066518 0.691037 0.085873
v 0.159040 0.694539 0.100055
v 0.006490 0.686836 0.014226
v 0.191647 1.098930 -0.005804
v 0.207884 0.918406 -0.006003
v 0.033468 0.967066 -0.102763
v 0.164567 1.054581 -0.100935
v 0.145374 0.936153 -0.091843
v 0.026616 0.908846 -0.105374
v -0.003602 0.959413 0.000406
v -0.002985 0.914690 -0.007391
v 0.072188 0.625776 0.065262
v 0.146113 0.625496 0.077090
v 0.034392 0.622035 0.016088
v 0.201058 0.685061 0.014484
v 0.130856 0.693277 -0.081133
v 0.043951 0.678754 -0.063474
v 0.006491 0.686836 0.014228
v 0.057150 0.525116 -0.003780
v 0.092759 0.529721 0.036087
v 0.052790 0.616721 -0.045892
v 0.123702 0.626020 -0.060086
v 0.133564 0.527170 -0.064067
v 0.072876 0.519114 -0.051253
v 0.180095 0.617534 0.017640
v 0.034393 0.622060 0.016020
v 0.063192 0.484707 0.007460
v 0.097735 0.496400 0.046496
v 0.139397 0.478143 -0.049097
v 0.079751 0.471694 -0.036333
v 0.152916 0.530974 0.046567
v 0.181918 0.521750 -0.003739
v 0.057149 0.525113 -0.003780
v 0.047919 0.397255 0.029049
v 0.101823 0.409240 0.078218
v 0.137638 0.388726 -0.061139
v 0.059542 0.382348 -0.034263
v 0.156828 0.499620 0.057052
v 0.186133 0.483616 0.010707
v 0.063218 0.484758 0.007638
v 0.146012 0.117341 -0.013197
v 0.117124 0.120587 -0.015011
v 0.214601 0.389398 0.014325
v 0.186031 0.409679 0.083959
v 0.153154 0.116752 0.072808
v 0.163899 0.099850 0.041632
v 0.047919 0.396922 0.030595
v 0.091173 0.117732 0.049367
v 0.112989 0.126017 0.071766
v 0.091281 0.117669 0.050486
v 0.054397 1.763998 -0.060364
v 0.000000 1.780647 -0.082213
v 0.087376 1.792395 0.036826
v 0.234886 0.803901 -0.009406
v 0.247827 0.818062 -0.012875
v 0.257518 0.828092 -0.015570
v 0.256610 0.858138 -0.019408
v 0.255903 0.891559 -0.025556
v 0.258573 0.932239 -0.026238
v 0.258546 0.967750 -0.028566
v -0.000064 1.057588 -0.156585
v 0.000000 1.201812 -0.112850
v 0.000000 1.498396 -0.157917
v 0.000000 1.644819 -0.136231
v 0.000000 1.368893 -0.085067
v 0.190783 1.101738 -0.005381
v 0.085577 1.876744 -0.091779
v 0.093644 1.801482 -0.007796
v 0.060354 1.934682 -0.100456
v 0.088340 1.904502 -0.083551
v 0.102325 1.869815 -0.034727
v 0.000000 1.955928 -0.106928
v 0.000000 1.983260 -0.057627
v 0.000000 1.991719 0.015063
v -0.168882 0.042421 0.039346
v -0.148894 0.101551 0.040455
v -0.132754 0.118151 -0.009891
v -0.130900 0.067743 -0.057821
v -0.068664 0.067645 0.049489
v -0.076477 0.036447 0.138546
v -0.078880 -0.001092 0.130697
v -0.094774 -0.002017 0.040339
v -0.077171 0.117772 0.050238
v -0.098705 0.126138 0.071543
v -0.099305 0.089488 0.085855
v -0.108783 0.058075 0.133846
v -0.128401 0.005476 -0.064905
v -0.165726 -0.003054 0.032524
v -0.137788 0.119015 0.070120
v -0.150829 0.092173 0.077829
v -0.155721 0.061250 0.126459
v -0.199880 0.027935 0.103395
v -0.202575 -0.000030 0.105119
v -0.211748 0.000016 0.145637
v -0.087731 0.000012 0.177852
v -0.117966 -0.000000 0.233379
v -0.171488 0.000001 0.227258
v -0.307179 0.915313 0.008492
v -0.306936 0.920674 0.041870
v -0.312571 0.963877 0.031907
v -0.311026 0.959539 -0.001633
v -0.305242 0.876069 0.014677
v -0.305991 0.878764 0.052465
v -0.292452 0.888120 0.069285
v -0.293070 0.915080 0.059827
v -0.287225 0.961868 0.039413
v -0.279469 0.918723 -0.021912
v -0.284019 0.954377 -0.027468
v -0.265808 0.956359 -0.029105
v -0.262212 0.920835 -0.026333
v -0.253419 0.881349 -0.025798
v -0.274640 0.877503 -0.022584
v -0.244365 0.946193 0.038628
v -0.258243 0.961705 0.004693
v -0.266707 0.931940 0.060520
v -0.235312 0.894636 0.068381
v -0.215052 0.906627 0.052568
v -0.258430 0.961419 0.004945
v -0.244826 0.946077 0.039105
v -0.239767 0.911546 0.029675
v -0.240190 0.919627 0.005811
v -0.265671 0.903289 0.056896
v -0.238930 0.885794 0.057232
v -0.299013 0.841293 0.020068
v -0.303274 0.846743 0.060537
v -0.295490 0.860112 0.080866
v -0.285153 0.802192 0.026914
v -0.293625 0.804050 0.065009
v -0.275929 0.811050 0.059001
v -0.275426 0.844130 0.052648
v -0.283303 0.813200 0.068692
v -0.300395 0.810664 0.076890
v -0.271158 0.843965 -0.017729
v -0.249635 0.848246 -0.019655
v -0.246477 0.818414 -0.015568
v -0.261895 0.810243 -0.015918
v -0.256432 0.888420 0.015957
v -0.258593 0.884546 0.039865
v -0.270765 0.845494 0.024028
v -0.275426 0.844130 0.052648
v -0.275929 0.811050 0.059001
v -0.268620 0.818051 0.029420
v -0.247565 0.775223 0.058451
v -0.259384 0.787794 0.058318
v -0.270028 0.773278 0.063944
v -0.255678 0.765087 0.061452
v -0.247565 0.775223 0.058451
v -0.231855 0.779732 0.030512
v -0.251737 0.791209 0.029934
v -0.259384 0.787794 0.058318
v -0.265702 0.903300 0.056923
v -0.215954 0.893945 0.039216
v -0.238577 0.885766 0.056902
v -0.267321 0.886614 0.059881
v -0.204536 0.878435 0.051379
v -0.199859 0.886505 0.059054
v -0.214918 0.878298 0.068844
v -0.218042 0.872041 0.061727
v -0.203796 0.878624 0.050621
v -0.217314 0.872077 0.061022
v -0.199130 0.886689 0.058303
v -0.214134 0.906855 0.051623
v -0.199967 0.886477 0.059165
v -0.267321 0.886614 0.059881
v -0.231855 0.779732 0.030512
v -0.243257 0.767911 0.025832
v -0.260342 0.772875 0.026983
v -0.273751 0.862204 0.072548
v -0.293337 0.817217 0.097408
v -0.278331 0.820852 0.085967
v -0.262839 0.764699 0.082519
v -0.258700 0.771941 0.094791
v -0.269788 0.765245 0.102404
v -0.272612 0.759465 0.088509
v -0.288435 0.779526 0.084873
v -0.275953 0.787747 0.077317
v -0.258700 0.771941 0.094791
v -0.262839 0.764699 0.082519
v -0.275953 0.787747 0.077317
v -0.271192 0.795831 0.090903
v -0.271191 0.795831 0.090903
v -0.283356 0.787890 0.102294
v -0.221195 0.797008 -0.009404
v -0.229808 0.785077 -0.010247
v -0.246288 0.795391 -0.013777
v -0.235688 0.809575 -0.012873
v -0.283303 0.813200 0.068692
v -0.273751 0.862204 0.072548
v -0.278331 0.820852 0.085967
v -0.146176 1.067758 0.096857
v -0.157235 0.935611 0.121377
v -0.039463 0.930157 0.107846
v -0.033522 0.989273 0.109038
v -0.047658 1.659147 0.004868
v -0.166816 1.636729 0.008203
v -0.183342 1.660963 -0.046645
v -0.087101 1.697940 -0.042088
v -0.183517 1.213762 0.011900
v -0.132328 1.215011 0.092375
v -0.114987 1.371931 0.088130
v -0.170270 1.330734 0.028964
v -0.187217 1.660857 -0.046306
v -0.253853 1.631028 -0.050804
v -0.146213 1.529884 -0.136936
v -0.083000 1.510898 -0.154746
v -0.071031 1.357919 -0.089022
v -0.137893 1.351825 -0.052226
v -0.146984 1.207378 -0.064727
v -0.064789 1.200087 -0.110523
v -0.166475 1.502143 0.026542
v -0.162891 1.461556 -0.035502
v -0.016789 0.941669 -0.009450
v -0.016789 0.941669 -0.009450
v -0.049955 0.965690 0.098681
v 0.004829 0.916097 -0.001706
v 0.002855 0.959273 0.002169
v -0.146451 1.066558 0.096374
v -0.031863 1.727704 0.025414
v -0.077887 1.749353 -0.021338
v -0.054397 1.763998 -0.060364
v -0.082957 1.758328 -0.005821
v -0.077887 1.749353 -0.021338
v -0.063754 1.914100 0.090645
v -0.063754 1.950399 0.055124
v -0.060354 1.970504 0.004165
v -0.060354 1.963495 -0.057440
v -0.097623 1.916359 -0.051057
v -0.093335 1.882221 0.042431
v -0.053363 1.815929 -0.104484
v -0.054162 1.884115 -0.120296
v -0.301313 1.527061 -0.066561
v -0.244871 1.458123 -0.115772
v -0.282230 1.453126 -0.072906
v -0.256598 1.434950 -0.013843
v -0.282730 1.265847 -0.049308
v -0.236051 1.270279 -0.038820
v -0.199068 1.199826 -0.107344
v -0.281927 1.180182 -0.108188
v -0.284528 0.953478 -0.026789
v -0.311473 0.959756 -0.001292
v -0.310360 1.188547 -0.073421
v -0.189956 1.221567 -0.050256
v -0.258799 0.960856 0.005441
v -0.266299 0.954836 -0.028275
v -0.315489 1.205885 -0.036100
v -0.232319 1.227092 -0.007881
v -0.189893 1.221653 -0.050104
v -0.205303 1.280601 -0.072626
v -0.313247 0.964893 0.032272
v -0.287990 0.962501 0.039980
v -0.258799 0.960856 0.005441
v -0.153925 0.699111 0.117396
v -0.061458 0.696041 0.103106
v -0.001606 0.689161 0.031571
v -0.191674 1.098621 -0.005591
v -0.204839 0.916741 0.002512
v -0.033428 0.966510 -0.102079
v -0.025723 0.905974 -0.099656
v -0.144283 0.931905 -0.085138
v -0.165190 1.050856 -0.099353
v 0.004681 0.960910 0.003252
v 0.004668 0.916002 -0.001798
v -0.140335 0.629132 0.097557
v -0.066467 0.629742 0.085632
v -0.028684 0.623954 0.037096
v -0.126223 0.689602 -0.063511
v -0.196022 0.685075 0.032515
v -0.001608 0.689162 0.031580
v -0.039133 0.676952 -0.045475
v -0.085899 0.530707 0.061375
v -0.050148 0.525176 0.021573
v -0.047049 0.615461 -0.025357
v -0.065769 0.517364 -0.025785
v -0.126522 0.524128 -0.038918
v -0.118063 0.623418 -0.039438
v -0.174243 0.617937 0.038609
v -0.028685 0.623972 0.037032
v -0.090600 0.493171 0.071148
v -0.055562 0.483003 0.031536
v -0.071826 0.471012 -0.013670
v -0.131876 0.476798 -0.026427
v -0.146148 0.531313 0.071833
v -0.174969 0.520347 0.021522
v -0.050149 0.525177 0.021575
v -0.093843 0.404810 0.097519
v -0.039080 0.395869 0.048515
v -0.050280 0.383926 -0.016568
v -0.128814 0.389699 -0.043672
v -0.150051 0.495523 0.081840
v -0.179158 0.479692 0.034312
v -0.055586 0.483003 0.031653
v -0.104938 0.121752 -0.010614
v -0.133529 0.117963 -0.008955
v -0.206620 0.386054 0.031584
v -0.150898 0.097638 0.044479
v -0.140531 0.113682 0.076252
v -0.178688 0.404121 0.102164
v -0.039152 0.395706 0.049396
v -0.100835 0.123647 0.075734
v -0.079061 0.116438 0.053060
v -0.079155 0.116460 0.054129
v -0.054397 1.763998 -0.060364
v -0.087376 1.792395 0.036826
v -0.221195 0.797008 -0.009404
v -0.235688 0.809575 -0.012873
v -0.246477 0.818414 -0.015568
v -0.249656 0.848239 -0.019633
v -0.253277 0.881430 -0.025951
v -0.261628 0.921399 -0.027016
v -0.265682 0.956752 -0.029319
v -0.190785 1.101637 -0.005285
v -0.085577 1.876744 -0.091779
v -0.093644 1.801482 -0.007796
v -0.060354 1.934682 -0.100456
v -0.088340 1.904502 -0.083551
v -0.102325 1.869815 -0.034727
v 0.091609 -0.001483 0.130512
v 0.109067 -0.001153 0.041510
v 0.081184 0.002203 -0.007882
v 0.096774 0.008204 -0.056922
v 0.142411 0.002461 -0.062483
v 0.177730 -0.004785 0.032382
v 0.212505 -0.006046 0.104508
v 0.222127 -0.005309 0.145181
v 0.184768 0.000027 0.227257
v 0.131244 0.000028 0.233378
v 0.100032 -0.001097 0.177389
v -0.078526 -0.001469 0.130437
v -0.087731 0.000019 0.177853
v -0.117966 0.000030 0.233378
v -0.171490 0.000031 0.227257
v -0.209745 -0.003824 0.144986
v -0.200255 -0.004348 0.104296
v -0.165433 -0.003465 0.032359
v -0.129072 0.002384 -0.062489
v -0.083519 0.008518 -0.057002
v -0.067980 0.002185 -0.008216
v -0.095902 -0.001229 0.041360
vn -0.9689 0.2048 0.1386
vn -0.6071 0.3886 -0.6931
vn -0.7589 -0.6469 -0.0745
vn -0.7805 0.4507 0.4332
vn -0.3443 0.6168 0.7078
vn -0.1647 0.9268 0.3375
vn 0.2681 0.9294 0.2538
vn 0.4453 0.6484 0.6174
vn 0.8897 0.4323 0.1466
vn -0.6035 -0.7970 0.0234
vn 0.2805 -0.0670 -0.9575
vn 0.6641 0.0735 -0.7440
vn -0.1684 -0.3928 -0.9041
vn -0.3041 -0.9511 -0.0533
vn 0.1008 -0.2126 -0.9719
vn -0.5668 -0.3241 -0.7574
vn 0.2854 0.6818 -0.6735
vn 0.1296 0.4246 -0.8961
vn 0.4016 0.6795 -0.6139
vn 0.5707 -0.7371 0.3618
vn 0.5839 -0.6903 0.4272
vn 0.7066 -0.6924 0.1457
vn 0.7273 0.3609 -0.5838
vn 0.7763 0.3591 -0.5182
vn 0.3785 0.8030 0.4604
vn -0.5849 -0.0910 -0.8060
vn -0.5175 -0.2164 -0.8279
vn -0.9896 0.0174 0.1427
vn -0.6358 -0.0120 -0.7717
vn 0.3736 0.2770 -0.8853
vn 0.9694 0.1278 -0.2098
vn 0.2799 0.0929 -0.9555
vn 0.3338 0.6513 -0.6814
vn 0.3883 0.4526 -0.8027
vn 0.3800 0.0764 -0.9218
vn 0.3037 0.5455 0.7812
vn 0.3605 -0.2746 0.8914
vn 0.4176 0.3539 0.8369
vn -0.3108 -0.9489 -0.0549
vn -0.2308 -0.4558 0.8596
vn 0.5995 -0.1214 0.7911
vn 0.4121 -0.1537 -0.8981
vn 0.9383 -0.0798 0.3364
vn 0.6470 -0.2245 0.7287
vn 0.6313 -0.1139 0.7671
vn 0.6535 0.0606 0.7545
vn -0.0000 -0.6215 0.7834
vn -0.0000 -0.2248 0.9744
vn 0.5371 -0.1232 0.8345
vn -0.5513 -0.4413 -0.7080
vn -0.5897 0.3351 -0.7348
vn -0.9903 0.0283 0.1363
vn -0.0000 -0.1963 0.9805
vn 0.7175 -0.2430 0.6528
vn -0.0000 -0.1390 0.9903
vn 0.9579 -0.2839 0.0435
vn 0.6231 -0.4204 -0.6596
vn 0.6059 -0.6370 -0.4765
vn 0.9260 0.0156 0.3773
vn 0.9259 0.0156 0.3774
vn 0.9119 0.4103 -0.0021
vn 0.9387 0.2766 0.2055
vn 0.8125 -0.4043 -0.4200
vn 0.8145 -0.2839 -0.5060
vn 0.6231 -0.4203 -0.6596
vn 0.9664 0.2112 0.1469
vn 0.7643 -0.6390 -0.0867
vn 0.6002 0.4209 -0.6801
vn 0.7801 0.4530 0.4316
vn 0.1650 0.9278 0.3347
vn 0.3443 0.6168 0.7078
vn -0.2683 0.9310 0.2477
vn -0.8847 0.4461 0.1351
vn -0.4453 0.6484 0.6174
vn 0.6037 -0.7972 0.0096
vn -0.2835 -0.0731 -0.9562
vn 0.1652 -0.3921 -0.9050
vn -0.6665 0.0652 -0.7427
vn 0.3199 -0.9474 0.0091
vn 0.5552 -0.3608 -0.7494
vn -0.1332 -0.2448 -0.9604
vn -0.2855 0.6803 -0.6750
vn -0.4001 0.6798 -0.6146
vn -0.1280 0.4251 -0.8960
vn -0.5707 -0.7371 0.3618
vn -0.7066 -0.6924 0.1457
vn -0.5839 -0.6903 0.4272
vn -0.7273 0.3609 -0.5838
vn -0.3785 0.8030 0.4604
vn -0.7763 0.3591 -0.5182
vn 0.5814 -0.1319 -0.8029
vn 0.9886 -0.0087 0.1502
vn 0.5300 -0.1785 -0.8290
vn 0.6290 -0.0576 -0.7753
vn -0.3890 0.2132 -0.8962
vn -0.2882 0.0424 -0.9566
vn -0.9694 0.1481 -0.1958
vn -0.4025 0.4275 -0.8094
vn -0.3477 0.6399 -0.6853
vn -0.4039 0.0225 -0.9145
vn -0.3011 0.5604 0.7716
vn -0.4169 0.3785 0.8264
vn -0.3355 -0.2243 0.9149
vn 0.2574 -0.3886 0.8847
vn 0.3246 -0.9458 0.0059
vn -0.5814 -0.0843 0.8092
vn -0.4151 -0.1105 -0.9030
vn -0.9383 -0.0798 0.3364
vn -0.6313 -0.1139 0.7671
vn -0.6470 -0.2245 0.7287
vn -0.6535 0.0606 0.7545
vn -0.5371 -0.1232 0.8345
vn 0.5562 -0.4112 -0.7222
vn 0.5874 0.3668 -0.7214
vn 0.9901 0.0369 0.1352
vn -0.7175 -0.2430 0.6528
vn -0.9579 -0.2839 0.0435
vn -0.6059 -0.6370 -0.4765
vn -0.6231 -0.4204 -0.6596
vn -0.9260 0.0156 0.3773
vn -0.9259 0.0156 0.3774
vn -0.9387 0.2766 0.2055
vn -0.9119 0.4103 -0.0021
vn -0.8125 -0.4043 -0.4200
vn -0.6231 -0.4203 -0.6596
vn -0.8145 -0.2839 -0.5060
vn 0.9392 0.2374 -0.2482
vn 0.4312 0.2962 -0.8523
vn 0.5081 0.3315 -0.7950
vn 0.9645 0.2371 -0.1165
vn -0.9869 0.1026 0.1248
vn -0.5936 -0.7943 0.1292
vn -0.6384 -0.7691 0.0303
vn -0.9033 0.3305 0.2735
vn -0.3926 0.5848 0.7098
vn -0.4305 -0.0134 0.9025
vn -0.9856 0.0088 0.1689
vn -0.2648 0.8295 0.4918
vn 0.6273 -0.7185 -0.3004
vn 0.3474 -0.5304 -0.7733
vn 0.6246 0.6685 0.4038
vn 0.5644 0.1092 0.8183
vn 0.3781 0.8597 0.3436
vn 0.8989 0.4124 -0.1479
vn 0.7355 -0.6709 0.0950
vn 0.6611 -0.7136 -0.2316
vn -0.6579 -0.7083 0.2559
vn -0.3342 -0.5195 0.7864
vn 0.4171 -0.5293 0.7388
vn 0.9291 0.0195 -0.3693
vn 0.9274 -0.0133 -0.3737
vn 0.7731 0.1993 0.6021
vn 0.8594 0.2488 0.4467
vn 0.9552 0.1528 0.2534
vn 0.9330 -0.0077 -0.3598
vn 0.3413 0.2768 0.8983
vn 0.2644 0.3161 0.9112
vn -0.0630 0.3620 0.9300
vn 0.4615 -0.0535 -0.8855
vn -0.4881 -0.0705 -0.8699
vn -0.5327 -0.1505 -0.8328
vn 0.4189 -0.1335 -0.8982
vn 0.4648 -0.0699 -0.8827
vn -0.5766 -0.2492 -0.7781
vn -0.7452 0.5794 0.3301
vn -0.0929 0.3968 0.9132
vn -0.9835 0.0897 0.1573
vn -0.8296 0.5296 0.1767
vn 0.0724 0.0376 0.9967
vn -0.9811 0.0997 0.1658
vn -0.9684 -0.1161 -0.2209
vn -0.8092 -0.3584 -0.4655
vn -0.7591 0.5744 0.3063
vn -0.0706 -0.2284 0.9710
vn 0.6331 -0.7697 0.0822
vn 0.9918 -0.0104 0.1273
vn 0.9267 -0.1375 -0.3498
vn 0.3293 0.3415 0.8803
vn 0.5897 -0.1985 0.7828
vn 0.8641 -0.3786 -0.3315
vn -0.9302 -0.3369 0.1460
vn -0.6065 0.1992 0.7698
vn 0.9132 -0.2111 -0.3486
vn -0.3306 -0.3724 -0.8672
vn 0.4776 -0.1487 -0.8659
vn -0.7643 -0.2023 -0.6123
vn 0.4457 -0.2828 -0.8494
vn -0.7308 0.1465 -0.6667
vn -0.9088 -0.4169 0.0145
vn -0.8693 -0.4278 0.2474
vn -0.9503 -0.1665 0.2630
vn -0.9323 -0.3029 0.1974
vn -0.9130 0.2178 0.3451
vn -0.6075 0.2008 0.7685
vn -0.7141 -0.0157 0.6998
vn -0.0417 -0.8047 0.5922
vn 0.4247 -0.5023 0.7532
vn -0.5619 0.3748 0.7374
vn -0.7101 -0.0616 0.7014
vn -0.5618 0.3778 0.7360
vn -0.7069 0.5910 0.3886
vn -0.9299 -0.1092 0.3511
vn -0.1308 -0.3019 0.9443
vn 0.6400 -0.7681 0.0201
vn -0.2755 -0.2842 -0.9183
vn -0.6760 -0.0785 0.7327
vn -0.5271 -0.6700 -0.5228
vn 0.1759 -0.9763 0.1262
vn -0.1751 -0.3700 0.9124
vn -0.9493 0.0742 0.3055
vn -0.4975 -0.6993 -0.5133
vn 0.1929 -0.9788 0.0690
vn -0.9409 -0.0004 0.3385
vn -0.8516 0.5091 0.1250
vn -0.9405 0.0121 0.3395
vn -0.7020 -0.0935 0.7060
vn -0.9300 -0.0563 0.3633
vn -0.1177 -0.9769 -0.1783
vn 0.6190 -0.7113 -0.3330
vn -0.7499 0.0075 0.6616
vn 0.3219 0.2058 0.9241
vn -0.8827 0.0929 0.4607
vn -0.5058 -0.5213 -0.6873
vn 0.3067 -0.9399 -0.1499
vn -0.0019 -0.5270 0.8499
vn -0.9455 -0.1248 0.3007
vn -0.3101 -0.1460 -0.9394
vn 0.8458 -0.4254 -0.3219
vn -0.9313 -0.1774 0.3182
vn -0.9192 0.2645 0.2915
vn -0.2954 -0.1498 -0.9436
vn -0.4614 -0.5966 -0.6567
vn 0.2752 0.0061 0.9614
vn -0.9188 0.2657 0.2920
vn -0.9030 0.1152 -0.4138
vn -0.7171 0.4421 -0.5389
vn 0.2571 -0.4199 -0.8704
vn -0.2237 -0.7234 -0.6531
vn -0.3148 -0.3733 -0.8727
vn -0.8763 0.0942 0.4725
vn -0.7550 0.0076 0.6556
vn 0.5590 0.0350 0.8284
vn -0.1364 -0.2269 0.9643
vn -0.5391 -0.0520 0.8407
vn 0.4835 0.0243 0.8750
vn 0.0031 0.5182 0.8553
vn 0.2388 0.6200 0.7474
vn 0.4037 0.4606 0.7905
vn -0.0000 0.4227 0.9063
vn 0.3293 0.9375 0.1126
vn 0.7271 0.6561 0.2021
vn 0.9904 0.1086 0.0860
vn 0.9900 0.0603 0.1273
vn 0.6037 0.0604 0.7949
vn 0.5794 0.0212 0.8148
vn 0.4414 0.8863 0.1398
vn 0.7203 0.6937 0.0035
vn 0.0004 0.0533 0.9986
vn -0.0000 -0.0065 1.0000
vn 0.2990 -0.1326 -0.9450
vn 0.7370 -0.0865 -0.6703
vn 0.2363 -0.1556 -0.9591
vn 0.1769 -0.1736 -0.9688
vn 0.7389 0.1810 -0.6490
vn 0.2400 0.2337 -0.9422
vn 0.4079 -0.9090 -0.0856
vn 0.4755 0.0099 0.8797
vn 0.0050 0.2563 0.9666
vn -0.3527 -0.9353 0.0287
vn -0.0000 -0.9992 -0.0394
vn -0.0000 -0.8832 -0.4691
vn -0.3527 -0.9353 0.0286
vn -0.0706 -0.3670 0.9275
vn -0.0000 -0.7766 0.6300
vn -0.0000 -0.9992 -0.0393
vn -0.5827 -0.8054 0.1085
vn -0.9982 -0.0561 0.0215
vn 0.5394 0.0456 0.8408
vn -0.0000 -0.1119 0.9937
vn 0.9393 -0.3260 -0.1071
vn -0.0000 -0.8709 0.4914
vn -0.0000 -0.7146 0.6995
vn 0.0002 0.5269 -0.8499
vn -0.0000 -0.3886 -0.9214
vn 0.6151 -0.1813 -0.7673
vn 0.9311 -0.3440 -0.1215
vn 0.8256 -0.5550 -0.1013
vn -0.0000 -0.1984 0.9801
vn 0.6433 0.3410 0.6855
vn -0.0000 0.4317 0.9020
vn 0.6096 0.6551 0.4463
vn -0.0000 0.8039 0.5947
vn 0.5480 0.8319 0.0877
vn 0.9190 0.3299 -0.2159
vn 0.5344 0.7919 -0.2956
vn 0.9383 0.0563 0.3412
vn -0.0000 0.1099 -0.9939
vn 0.4468 0.0423 -0.8936
vn 0.4058 -0.4204 -0.8115
vn -0.0000 -0.4683 -0.8835
vn 0.9782 0.1174 -0.1714
vn 0.9767 0.0055 -0.2144
vn 0.3019 0.0129 -0.9532
vn 0.6117 -0.2256 0.7582
vn 0.6673 0.3231 0.6711
vn -0.2425 0.2654 0.9331
vn 0.3955 -0.2797 -0.8748
vn -0.6440 -0.1933 -0.7402
vn 0.9422 -0.0521 -0.3311
vn 0.9215 -0.1685 -0.3500
vn 0.4474 -0.3275 -0.8322
vn -0.9621 0.1683 0.2144
vn -0.5004 -0.2860 -0.8172
vn -0.9748 0.1856 0.1235
vn -0.2454 0.4384 0.8646
vn 0.7937 0.3188 0.5181
vn -0.9696 -0.0164 0.2443
vn -0.9478 0.2374 0.2131
vn -0.0116 0.5230 0.8523
vn 0.8370 0.2007 0.5091
vn -0.9804 0.1744 0.0916
vn -0.4853 -0.1881 0.8539
vn 0.4360 -0.1840 0.8809
vn -0.9713 -0.2046 0.1211
vn 0.9999 -0.0045 0.0144
vn 0.9954 -0.0066 -0.0951
vn -0.1429 -0.3968 -0.9067
vn 0.7190 -0.0864 -0.6896
vn 0.4818 -0.0693 -0.8735
vn -0.5333 -0.0664 -0.8433
vn -0.5812 -0.8068 0.1059
vn -0.9976 -0.0576 0.0375
vn -0.4670 -0.3166 0.8256
vn 0.3618 -0.3153 0.8773
vn -0.9256 -0.3111 0.2156
vn 0.9792 -0.1845 -0.0843
vn 0.3834 -0.1943 -0.9029
vn -0.5634 -0.2417 -0.7901
vn -0.9684 -0.2053 0.1414
vn -0.9615 -0.1980 0.1908
vn -0.4997 -0.0955 0.8609
vn -0.6459 -0.2178 -0.7317
vn 0.3352 -0.1454 -0.9309
vn 0.3166 -0.0742 -0.9456
vn -0.5977 -0.2021 -0.7759
vn 0.9870 -0.1594 -0.0191
vn -0.9189 -0.3141 0.2388
vn -0.9636 0.0799 0.2552
vn -0.4456 0.2411 0.8622
vn 0.3371 -0.0585 -0.9397
vn -0.6647 -0.0743 -0.7434
vn 0.4446 0.0350 0.8951
vn 0.9809 0.0304 -0.1924
vn -0.9619 -0.1803 0.2056
vn -0.9691 0.0450 0.2426
vn -0.3890 0.1331 0.9116
vn 0.2577 -0.0146 -0.9661
vn -0.7196 -0.0588 -0.6919
vn 0.3909 0.3546 0.8494
vn 0.9715 0.2038 -0.1212
vn -0.9677 0.0740 0.2411
vn 0.5864 0.1001 -0.8038
vn -0.6389 0.0985 -0.7629
vn 0.9872 0.0537 -0.1501
vn 0.4942 0.1628 0.8540
vn 0.6121 0.2368 0.7545
vn 0.9943 0.0624 -0.0867
vn -0.9679 0.0431 0.2476
vn -0.9886 0.1229 0.0867
vn -0.4258 0.2334 0.8742
vn -0.9903 0.0393 0.1330
vn 0.6170 -0.1877 -0.7643
vn 0.9296 -0.2210 0.2948
vn -0.9067 0.1014 -0.4093
vn -0.7197 0.4426 -0.5349
vn -0.7262 0.1437 -0.6723
vn -0.7392 -0.2033 -0.6421
vn -0.5693 -0.2519 -0.7825
vn -0.4227 -0.0763 -0.9031
vn -0.5122 -0.2171 -0.8309
vn 0.0003 -0.1548 -0.9879
vn -0.0000 0.2248 -0.9744
vn 0.0027 -0.2072 -0.9783
vn -0.0003 0.4643 -0.8857
vn 0.0010 -0.1785 -0.9839
vn 0.9839 0.1787 -0.0093
vn 0.8196 -0.0338 -0.5719
vn 0.9579 -0.2838 0.0435
vn 0.5156 0.5249 -0.6772
vn 0.8406 0.2333 -0.4889
vn 0.7763 0.3590 -0.5182
vn -0.0000 0.6763 -0.7366
vn -0.0000 0.9501 -0.3120
vn -0.0000 0.9881 0.1537
vn -0.9453 0.2264 -0.2349
vn -0.9645 0.2415 -0.1070
vn -0.5049 0.3619 -0.7836
vn -0.4374 0.3268 -0.8378
vn 0.9882 0.0997 0.1166
vn 0.9048 0.3331 0.2653
vn 0.6389 -0.7686 0.0321
vn 0.5952 -0.7932 0.1289
vn 0.9857 0.0126 0.1680
vn 0.4234 -0.0580 0.9041
vn 0.3993 0.5742 0.7148
vn 0.2659 0.8347 0.4823
vn -0.3457 -0.5056 -0.7904
vn -0.6286 -0.7168 -0.3018
vn -0.5529 0.0507 0.8317
vn -0.6374 0.6531 0.4089
vn -0.3814 0.8634 0.3302
vn -0.8954 0.4159 -0.1589
vn -0.6725 -0.7011 -0.2369
vn -0.7355 -0.6709 0.0950
vn 0.6575 -0.7082 0.2571
vn 0.3342 -0.5195 0.7864
vn -0.4171 -0.5293 0.7388
vn -0.9234 -0.1194 -0.3647
vn -0.8832 0.1185 0.4537
vn -0.8268 0.0514 0.5602
vn -0.9105 -0.1760 -0.3741
vn -0.9274 -0.1283 -0.3513
vn -0.9670 0.0280 0.2534
vn -0.2965 0.2849 0.9116
vn -0.3658 0.2366 0.9001
vn -0.0061 0.3742 0.9273
vn -0.4707 -0.1267 -0.8731
vn -0.4057 -0.2105 -0.8894
vn 0.5516 -0.1228 -0.8250
vn 0.4652 -0.0158 -0.8850
vn 0.5925 -0.1732 -0.7867
vn -0.4629 -0.1407 -0.8752
vn 0.6711 0.6709 0.3155
vn 0.9611 0.2304 0.1524
vn 0.0506 0.4153 0.9083
vn -0.0807 0.0275 0.9964
vn 0.7690 0.6152 0.1738
vn 0.9547 0.2434 0.1713
vn 0.6581 0.6885 0.3049
vn 0.8505 -0.2270 -0.4745
vn 0.9727 0.0284 -0.2302
vn 0.0954 -0.2146 0.9720
vn -0.5631 -0.8242 0.0602
vn -0.9047 -0.2469 -0.3472
vn -0.9838 -0.1268 0.1267
vn -0.3623 0.3031 0.8814
vn -0.8144 -0.4767 -0.3310
vn -0.5668 -0.2679 0.7791
vn 0.5797 0.2687 0.7693
vn 0.9647 -0.2310 0.1263
vn 0.3719 -0.3308 -0.8673
vn -0.8810 -0.3179 -0.3503
vn -0.4585 -0.2153 -0.8622
vn 0.7765 -0.1039 -0.6215
vn 0.7068 0.2393 -0.6657
vn -0.4155 -0.3323 -0.8467
vn 0.9550 -0.2967 0.0037
vn 0.9158 -0.3082 0.2575
vn 0.9643 -0.0523 0.2598
vn 0.9612 -0.1924 0.1976
vn 0.5814 0.2714 0.7670
vn 0.8812 0.3225 0.3456
vn 0.7107 0.0721 0.6998
vn 0.5162 0.4380 0.7360
vn -0.3692 -0.5530 0.7469
vn 0.1268 -0.7960 0.5919
vn 0.7115 0.0280 0.7021
vn 0.9347 0.0146 0.3551
vn 0.6337 0.6689 0.3886
vn 0.5162 0.4415 0.7339
vn 0.1587 -0.2552 0.9538
vn 0.3081 -0.2502 -0.9179
vn -0.5497 -0.8353 0.0053
vn 0.6851 0.0202 0.7282
vn 0.5894 -0.6077 -0.5322
vn 0.9349 0.1756 0.3086
vn 0.2060 -0.3571 0.9111
vn -0.0909 -0.9893 0.1139
vn 0.5690 -0.6411 -0.5149
vn -0.0891 -0.9942 0.0602
vn 0.9364 0.1017 0.3360
vn 0.7802 0.6122 0.1285
vn 0.9313 0.1192 0.3443
vn 0.6938 0.0255 0.7197
vn 0.9288 0.0621 0.3655
vn 0.2234 -0.9577 -0.1815
vn -0.5326 -0.7786 -0.3319
vn 0.7434 0.1061 0.6603
vn -0.3433 0.1689 0.9239
vn 0.8637 0.1960 0.4643
vn 0.5636 -0.4485 -0.6936
vn 0.9531 -0.0034 0.3028
vn 0.0560 -0.5252 0.8491
vn -0.2055 -0.9671 -0.1499
vn -0.7913 -0.5211 -0.3198
vn 0.3284 -0.1071 -0.9384
vn 0.9461 -0.0636 0.3175
vn 0.5191 -0.5436 -0.6596
vn 0.3074 -0.1158 -0.9445
vn 0.8837 0.3693 0.2876
vn 0.8805 0.3707 0.2954
vn -0.2751 -0.0233 0.9611
vn 0.8826 0.2251 -0.4126
vn 0.3004 -0.6924 -0.6560
vn -0.2087 -0.4494 -0.8686
vn 0.6614 0.5258 -0.5349
vn 0.3485 -0.3346 -0.8755
vn 0.7457 0.1052 0.6579
vn 0.8601 0.1948 0.4714
vn -0.5506 0.0695 0.8318
vn -0.4770 0.0587 0.8770
vn 0.5437 -0.0019 0.8393
vn 0.1680 -0.1706 0.9709
vn -0.4044 0.4609 0.7900
vn -0.2372 0.6336 0.7364
vn -0.3303 0.9378 0.1069
vn -0.7272 0.6574 0.1975
vn -0.9903 0.1091 0.0858
vn -0.5796 0.0209 0.8147
vn -0.6012 0.0561 0.7971
vn -0.9888 0.0707 0.1314
vn -0.4463 0.8855 0.1295
vn -0.7291 0.6844 -0.0055
vn -0.3103 -0.1376 -0.9406
vn -0.1746 -0.1741 -0.9691
vn -0.2380 -0.1580 -0.9583
vn -0.7447 -0.0780 -0.6628
vn -0.7388 0.1801 -0.6494
vn -0.2398 0.2335 -0.9423
vn -0.4458 0.0388 0.8943
vn -0.4412 -0.8967 -0.0355
vn 0.3527 -0.9353 0.0287
vn 0.3527 -0.9353 0.0286
vn 0.0706 -0.3670 0.9275
vn 0.9991 -0.0373 0.0182
vn 0.6121 -0.7738 0.1629
vn -0.5394 0.0456 0.8408
vn -0.9397 -0.3253 -0.1056
vn -0.6149 -0.1804 -0.7677
vn -0.8256 -0.5550 -0.1013
vn -0.9311 -0.3440 -0.1215
vn -0.6433 0.3410 0.6855
vn -0.6096 0.6551 0.4463
vn -0.5480 0.8319 0.0877
vn -0.5344 0.7919 -0.2956
vn -0.9190 0.3299 -0.2159
vn -0.9383 0.0563 0.3412
vn -0.4058 -0.4204 -0.8115
vn -0.4468 0.0423 -0.8936
vn -0.9839 0.0895 -0.1546
vn -0.3237 -0.0599 -0.9443
vn -0.9818 -0.0240 -0.1884
vn -0.5904 -0.1811 0.7865
vn -0.6658 0.2800 0.6916
vn 0.2582 0.1844 0.9483
vn 0.6453 -0.1611 -0.7467
vn -0.3839 -0.1942 -0.9027
vn -0.4198 -0.2671 -0.8674
vn -0.9093 -0.1255 -0.3968
vn -0.9347 0.0089 -0.3552
vn 0.9636 0.1131 0.2424
vn 0.9730 0.1512 0.1743
vn 0.5269 -0.2521 -0.8117
vn -0.8003 0.2934 0.5229
vn 0.2387 0.3281 0.9140
vn 0.9613 0.1461 0.2335
vn 0.9809 -0.0307 0.1923
vn -0.8549 0.1836 0.4853
vn -0.0064 0.4660 0.8847
vn 0.9801 0.1386 0.1419
vn -0.4319 -0.1478 0.8897
vn 0.4893 -0.1414 0.8606
vn 0.9738 -0.1871 0.1293
vn -0.9996 -0.0198 0.0184
vn -0.9964 -0.0210 -0.0825
vn 0.1001 -0.4586 -0.8830
vn 0.5196 -0.1153 -0.8466
vn -0.5012 -0.1183 -0.8572
vn -0.7288 -0.1283 -0.6726
vn 0.5891 -0.7939 0.1507
vn 0.9986 -0.0420 0.0326
vn -0.3581 -0.2755 0.8921
vn 0.4701 -0.2697 0.8404
vn 0.9292 -0.2883 0.2314
vn -0.3846 -0.2429 -0.8906
vn -0.9774 -0.1990 -0.0720
vn 0.9716 -0.1833 0.1494
vn 0.5648 -0.2701 -0.7797
vn 0.4925 -0.0805 0.8666
vn 0.9655 -0.1753 0.1927
vn 0.6464 -0.2411 -0.7239
vn 0.6116 -0.1951 -0.7667
vn -0.3158 -0.0857 -0.9449
vn -0.3362 -0.1909 -0.9222
vn -0.9853 -0.1704 -0.0112
vn 0.9230 -0.2883 0.2548
vn 0.4430 0.2007 0.8738
vn 0.9622 0.0859 0.2583
vn 0.6707 -0.0193 -0.7415
vn -0.3351 -0.0104 -0.9421
vn -0.4360 0.0297 0.8994
vn -0.9842 0.0302 -0.1744
vn 0.9646 -0.1637 0.2069
vn 0.3769 0.0848 0.9223
vn 0.9654 0.0437 0.2570
vn 0.7236 -0.0119 -0.6902
vn -0.2525 0.0337 -0.9670
vn -0.3980 0.2995 0.8671
vn -0.9731 0.1998 -0.1146
vn 0.9644 0.0795 0.2523
vn 0.6320 0.1482 -0.7606
vn -0.5906 0.1326 -0.7960
vn -0.9887 0.0315 -0.1464
vn -0.9949 0.0500 -0.0878
vn -0.6199 0.1869 0.7621
vn -0.5084 0.1111 0.8539
vn 0.9658 0.0439 0.2557
vn 0.4239 0.1929 0.8849
vn 0.9869 0.1286 0.0974
vn 0.9897 0.0452 0.1356
vn -0.6170 -0.1878 -0.7643
vn -0.9296 -0.2210 0.2948
vn 0.8890 0.2189 -0.4022
vn 0.6653 0.5288 -0.5270
vn 0.7032 0.2307 -0.6725
vn 0.7475 -0.1140 -0.6544
vn 0.5736 -0.1823 -0.7986
vn 0.4347 -0.0174 -0.9004
vn 0.5494 -0.1414 -0.8235
vn -0.9839 0.1780 -0.0130
vn -0.8196 -0.0338 -0.5719
vn -0.9579 -0.2838 0.0435
vn -0.5156 0.5249 -0.6772
vn -0.8406 0.2333 -0.4889
vn -0.7763 0.3590 -0.5182
vn -0.5204 -0.5650 -0.6403
vn -0.5448 -0.8316 0.1078
vn -0.6845 -0.7284 -0.0304
vn 0.3502 -0.6120 -0.7091
vn -0.3231 -0.5340 0.7813
vn 0.4034 -0.5588 0.7246
vn 0.4189 -0.8725 -0.2514
vn 0.5891 -0.7785 -0.2165
vn 0.6841 -0.7220 0.1032
vn -0.6337 -0.7316 0.2515
vn -0.6153 -0.7881 0.0195
vn -0.6108 -0.7598 -0.2229
vn -0.4162 -0.5280 0.7402
vn -0.6989 -0.7082 0.1001
vn -0.5536 -0.7810 -0.2891
vn 0.3383 -0.5041 0.7946
vn -0.3506 -0.6045 -0.7153
vn 0.5450 -0.8314 0.1081
vn 0.5227 -0.5611 -0.6418
vn 0.6786 -0.7337 -0.0351
vn 0.6605 -0.7057 0.2566
vn 0.5667 -0.8232 0.0341
vt 0.898721 0.335922
vt 0.859241 0.370400
vt 0.895902 0.388976
vt 0.672964 0.358883
vt 0.664808 0.384212
vt 0.680554 0.372622
vt 0.699204 0.392212
vt 0.678086 0.400290
vt 0.716852 0.410636
vt 0.924000 0.375382
vt 0.289468 0.858665
vt 0.241234 0.846027
vt 0.280136 0.931724
vt 0.652666 0.108862
vt 0.602782 0.032472
vt 0.607104 0.104621
vt 0.350821 0.535672
vt 0.382971 0.537312
vt 0.361957 0.486980
vt 0.070464 0.400862
vt 0.107280 0.399953
vt 0.099211 0.378883
vt 0.379078 0.389056
vt 0.404639 0.375656
vt 0.378602 0.385980
vt 0.607126 0.226221
vt 0.607494 0.238120
vt 0.636965 0.224530
vt 0.609241 0.214476
vt 0.579540 0.220015
vt 0.552558 0.237852
vt 0.583844 0.232456
vt 0.536715 0.000210
vt 0.544830 0.037580
vt 0.561229 0.068317
vt 0.460890 0.028507
vt 0.431120 0.103939
vt 0.473909 0.064886
vt 0.419202 0.148926
vt 0.454733 0.144823
vt 0.478797 0.096777
vt 0.583057 0.243077
vt 0.073575 0.320899
vt 0.040514 0.320220
vt 0.043818 0.331374
vt 0.048796 0.345059
vt 0.020870 0.382220
vt 0.033315 0.400145
vt 0.036979 0.367796
vt 0.867691 0.400568
vt 0.846213 0.340222
vt 0.877103 0.315457
vt 0.011437 0.342775
vt 0.060186 0.376161
vt 0.006335 0.376426
vt 0.357996 0.420294
vt 0.384595 0.412921
vt 0.375596 0.401049
vt 0.357996 0.375235
vt 0.100063 0.307119
vt 0.091287 0.274388
vt 0.079230 0.283766
vt 0.141190 0.337058
vt 0.142540 0.308242
vt 0.119544 0.320770
vt 0.898721 0.335922
vt 0.895902 0.388976
vt 0.859241 0.370400
vt 0.672964 0.358883
vt 0.680554 0.372622
vt 0.664808 0.384212
vt 0.699204 0.392212
vt 0.716852 0.410636
vt 0.678086 0.400290
vt 0.924000 0.375382
vt 0.289468 0.858665
vt 0.280136 0.931724
vt 0.241234 0.846027
vt 0.652666 0.108862
vt 0.607104 0.104621
vt 0.602782 0.032472
vt 0.350821 0.535672
vt 0.361957 0.486980
vt 0.382971 0.537312
vt 0.070464 0.400862
vt 0.099211 0.378883
vt 0.107280 0.399953
vt 0.379078 0.389056
vt 0.378602 0.385980
vt 0.404639 0.375656
vt 0.607126 0.226221
vt 0.636965 0.224530
vt 0.607494 0.238120
vt 0.609241 0.214476
vt 0.579540 0.220015
vt 0.583844 0.232456
vt 0.552558 0.237852
vt 0.544830 0.037580
vt 0.536715 0.000210
vt 0.561229 0.068317
vt 0.460890 0.028507
vt 0.473909 0.064886
vt 0.431120 0.103939
vt 0.454733 0.144823
vt 0.419202 0.148926
vt 0.478797 0.096777
vt 0.583057 0.243077
vt 0.073575 0.320899
vt 0.043818 0.331374
vt 0.040514 0.320220
vt 0.048796 0.345059
vt 0.036979 0.367796
vt 0.867691 0.400568
vt 0.846213 0.340222
vt 0.877103 0.315457
vt 0.060186 0.376161
vt 0.357996 0.420294
vt 0.375596 0.401049
vt 0.384595 0.412921
vt 0.357996 0.375235
vt 0.100063 0.307119
vt 0.079230 0.283766
vt 0.091287 0.274388
vt 0.141190 0.337058
vt 0.119544 0.320770
vt 0.142540 0.308242
vt 0.780017 0.389381
vt 0.840710 0.378432
vt 0.832086 0.343388
vt 0.797559 0.341473
vt 0.734855 0.293704
vt 0.690563 0.273963
vt 0.671183 0.326061
vt 0.691227 0.338909
vt 0.750859 0.321441
vt 0.773900 0.306187
vt 0.765241 0.290803
vt 0.710340 0.350866
vt 0.786347 0.415813
vt 0.844352 0.409653
vt 0.763887 0.349387
vt 0.782650 0.325793
vt 0.726432 0.371909
vt 0.739689 0.403831
vt 0.714847 0.421242
vt 0.739597 0.421241
vt 0.660592 0.352712
vt 0.653086 0.387450
vt 0.668101 0.409959
vt 0.315462 0.336166
vt 0.335960 0.319795
vt 0.320664 0.306405
vt 0.299869 0.321051
vt 0.278271 0.338462
vt 0.298962 0.352628
vt 0.285931 0.315682
vt 0.270743 0.325134
vt 0.309364 0.297249
vt 0.335105 0.351955
vt 0.343178 0.358804
vt 0.357576 0.342731
vt 0.350498 0.335837
vt 0.320700 0.370671
vt 0.329708 0.378214
vt 0.290856 0.279754
vt 0.285294 0.298415
vt 0.314250 0.271167
vt 0.260638 0.275869
vt 0.257820 0.291611
vt 0.665296 0.184600
vt 0.689491 0.199663
vt 0.706874 0.189726
vt 0.686723 0.173710
vt 0.270927 0.305641
vt 0.253346 0.298662
vt 0.258008 0.355084
vt 0.286463 0.369030
vt 0.254109 0.335313
vt 0.260216 0.385206
vt 0.277744 0.389672
vt 0.243084 0.372090
vt 0.251403 0.387639
vt 0.229464 0.352429
vt 0.228649 0.361858
vt 0.308057 0.384418
vt 0.316716 0.392251
vt 0.297902 0.399085
vt 0.304777 0.404007
vt 0.707455 0.213097
vt 0.722212 0.209908
vt 0.721443 0.233490
vt 0.736220 0.229231
vt 0.728443 0.245828
vt 0.744598 0.243804
vt 0.259128 0.409957
vt 0.263055 0.405960
vt 0.261626 0.400857
vt 0.254458 0.401913
vt 0.747830 0.267476
vt 0.746669 0.258518
vt 0.731535 0.261820
vt 0.732144 0.273543
vt 0.732056 0.199846
vt 0.733550 0.184608
vt 0.724433 0.174139
vt 0.262775 0.310769
vt 0.231643 0.285352
vt 0.240657 0.290324
vt 0.243782 0.285450
vt 0.234738 0.279153
vt 0.733268 0.167360
vt 0.739413 0.173442
vt 0.730094 0.162426
vt 0.718469 0.167783
vt 0.244961 0.274386
vt 0.734109 0.207705
vt 0.272633 0.420294
vt 0.274406 0.412795
vt 0.274776 0.405091
vt 0.251040 0.321507
vt 0.227293 0.340174
vt 0.226874 0.329845
vt 0.197694 0.354897
vt 0.203482 0.350300
vt 0.204740 0.346385
vt 0.196205 0.342133
vt 0.212718 0.360400
vt 0.212621 0.352263
vt 0.772089 0.259031
vt 0.763928 0.247361
vt 0.757774 0.253296
vt 0.766567 0.264385
vt 0.212855 0.342900
vt 0.211175 0.333215
vt 0.294779 0.420294
vt 0.301558 0.411442
vt 0.294245 0.408177
vt 0.290115 0.415206
vt 0.748485 0.242231
vt 0.756484 0.235862
vt 0.744156 0.217712
vt 0.553233 0.428540
vt 0.483585 0.470294
vt 0.486205 0.510143
vt 0.544852 0.507947
vt 0.242441 0.469476
vt 0.301409 0.522617
vt 0.292604 0.470622
vt 0.269398 0.453895
vt 0.323990 0.526558
vt 0.339553 0.479320
vt 0.219077 0.734976
vt 0.239920 0.662336
vt 0.202973 0.619732
vt 0.166157 0.708940
vt 0.497496 0.018760
vt 0.508402 0.051820
vt 0.146551 0.571485
vt 0.097015 0.673575
vt 0.351048 0.586218
vt 0.299681 0.673688
vt 0.346203 0.684853
vt 0.377278 0.599249
vt 0.267428 0.760484
vt 0.317332 0.785032
vt 0.293884 0.600486
vt 0.273043 0.575046
vt 0.182375 0.509815
vt 0.268926 0.993803
vt 0.279270 0.999790
vt 0.293470 0.956520
vt 0.011769 0.882590
vt 0.051905 0.823023
vt 0.023082 0.819009
vt 0.000210 0.879959
vt 0.419202 0.497377
vt 0.419202 0.527194
vt 0.127927 0.792668
vt 0.047343 0.768868
vt 0.344565 0.440598
vt 0.307894 0.430004
vt 0.289806 0.420714
vt 0.095301 0.420294
vt 0.048786 0.420294
vt 0.409202 0.485185
vt 0.406380 0.431004
vt 0.372114 0.441049
vt 0.129654 0.363771
vt 0.118212 0.360641
vt 0.005286 0.332244
vt 0.038654 0.294765
vt 0.000210 0.295053
vt 0.050504 0.271144
vt 0.013916 0.257216
vt 0.072343 0.251328
vt 0.109637 0.272097
vt 0.104554 0.243816
vt 0.070137 0.303639
vt 0.176779 0.245479
vt 0.153226 0.267925
vt 0.164200 0.305010
vt 0.195785 0.299781
vt 0.521531 0.091436
vt 0.530667 0.125441
vt 0.566008 0.118037
vt 0.491103 0.142139
vt 0.528924 0.251738
vt 0.498414 0.256144
vt 0.589178 0.283950
vt 0.621937 0.272317
vt 0.568073 0.287160
vt 0.590444 0.402016
vt 0.609520 0.397981
vt 0.652666 0.261000
vt 0.618290 0.396068
vt 0.638448 0.398356
vt 0.505391 0.289823
vt 0.547086 0.287719
vt 0.469171 0.257992
vt 0.475177 0.296003
vt 0.561304 0.414856
vt 0.573365 0.408463
vt 0.537294 0.421242
vt 0.501745 0.650680
vt 0.543244 0.646518
vt 0.457937 0.660281
vt 0.622510 0.421661
vt 0.615708 0.519046
vt 0.744612 0.513730
vt 0.679703 0.447346
vt 0.674176 0.516030
vt 0.729635 0.548077
vt 0.799067 0.539357
vt 0.783836 0.564834
vt 0.501839 0.689443
vt 0.541020 0.687863
vt 0.468979 0.698092
vt 0.589878 0.656972
vt 0.650056 0.663827
vt 0.689595 0.682893
vt 0.732643 0.694345
vt 0.474289 0.758374
vt 0.505588 0.754294
vt 0.680999 0.723036
vt 0.641356 0.707303
vt 0.626488 0.769284
vt 0.659849 0.780701
vt 0.580406 0.699758
vt 0.719989 0.731821
vt 0.477246 0.782145
vt 0.506983 0.780407
vt 0.619724 0.795522
vt 0.654500 0.806678
vt 0.541800 0.754701
vt 0.578824 0.765325
vt 0.690101 0.785495
vt 0.471580 0.830955
vt 0.506269 0.830565
vt 0.616661 0.843423
vt 0.646068 0.855888
vt 0.539458 0.782438
vt 0.573258 0.791778
vt 0.685091 0.810905
vt 0.578494 0.988433
vt 0.592324 0.990928
vt 0.575437 0.840695
vt 0.542227 0.833212
vt 0.531332 0.972075
vt 0.545870 0.985467
vt 0.677515 0.862169
vt 0.497933 0.976198
vt 0.512105 0.968466
vt 0.629792 0.999790
vt 0.157375 0.347291
vt 0.193806 0.332590
vt 0.088409 0.349490
vt 0.708817 0.273543
vt 0.706277 0.263670
vt 0.704464 0.256477
vt 0.697194 0.242752
vt 0.686405 0.228732
vt 0.669966 0.213181
vt 0.653086 0.200746
vt 0.329939 0.883853
vt 0.352636 0.794103
vt 0.418782 0.610595
vt 0.418783 0.526183
vt 0.386370 0.693222
vt 0.198555 0.800601
vt 0.136448 0.281103
vt 0.110673 0.335984
vt 0.130974 0.249842
vt 0.126935 0.270519
vt 0.110488 0.296361
vt 0.139110 0.214885
vt 0.099582 0.208928
vt 0.050482 0.222509
vt 0.780017 0.389381
vt 0.797559 0.341473
vt 0.832086 0.343388
vt 0.840710 0.378432
vt 0.734855 0.293704
vt 0.691227 0.338909
vt 0.671183 0.326061
vt 0.690563 0.273963
vt 0.765241 0.290803
vt 0.773900 0.306187
vt 0.750859 0.321441
vt 0.710340 0.350866
vt 0.844352 0.409653
vt 0.786347 0.415813
vt 0.782650 0.325793
vt 0.763887 0.349387
vt 0.726432 0.371909
vt 0.739689 0.403831
vt 0.739597 0.421241
vt 0.714847 0.421242
vt 0.660592 0.352712
vt 0.653086 0.387450
vt 0.668101 0.409959
vt 0.315462 0.336166
vt 0.299869 0.321051
vt 0.320664 0.306405
vt 0.335960 0.319795
vt 0.298962 0.352628
vt 0.278271 0.338462
vt 0.270743 0.325134
vt 0.285931 0.315682
vt 0.309364 0.297249
vt 0.335105 0.351955
vt 0.350498 0.335837
vt 0.357576 0.342731
vt 0.343178 0.358804
vt 0.329708 0.378214
vt 0.320700 0.370671
vt 0.290856 0.279754
vt 0.314250 0.271167
vt 0.285294 0.298415
vt 0.257820 0.291611
vt 0.260638 0.275869
vt 0.665296 0.184600
vt 0.686723 0.173710
vt 0.706874 0.189726
vt 0.689491 0.199663
vt 0.270927 0.305641
vt 0.253346 0.298662
vt 0.286463 0.369030
vt 0.258008 0.355084
vt 0.254109 0.335313
vt 0.277744 0.389672
vt 0.260216 0.385206
vt 0.251403 0.387639
vt 0.243084 0.372090
vt 0.228649 0.361858
vt 0.229464 0.352429
vt 0.308057 0.384418
vt 0.316716 0.392251
vt 0.304777 0.404007
vt 0.297902 0.399085
vt 0.707455 0.213097
vt 0.722212 0.209908
vt 0.721443 0.233490
vt 0.736220 0.229231
vt 0.744598 0.243804
vt 0.728443 0.245828
vt 0.259128 0.409957
vt 0.254458 0.401913
vt 0.261626 0.400857
vt 0.263055 0.405960
vt 0.747830 0.267476
vt 0.732144 0.273543
vt 0.731535 0.261820
vt 0.746669 0.258518
vt 0.732056 0.199846
vt 0.724433 0.174139
vt 0.733550 0.184608
vt 0.262775 0.310769
vt 0.231643 0.285352
vt 0.234738 0.279153
vt 0.243782 0.285450
vt 0.240657 0.290324
vt 0.733268 0.167360
vt 0.739413 0.173442
vt 0.730094 0.162426
vt 0.718469 0.167783
vt 0.244961 0.274386
vt 0.734109 0.207705
vt 0.272633 0.420294
vt 0.274406 0.412795
vt 0.274776 0.405091
vt 0.251040 0.321507
vt 0.227293 0.340174
vt 0.226874 0.329845
vt 0.197694 0.354897
vt 0.196205 0.342133
vt 0.204740 0.346385
vt 0.203482 0.350300
vt 0.212621 0.352263
vt 0.212718 0.360400
vt 0.772089 0.259031
vt 0.766567 0.264385
vt 0.757774 0.253296
vt 0.763928 0.247361
vt 0.211175 0.333215
vt 0.212855 0.342900
vt 0.294779 0.420294
vt 0.290115 0.415206
vt 0.294245 0.408177
vt 0.301558 0.411442
vt 0.748485 0.242231
vt 0.744156 0.217712
vt 0.756484 0.235862
vt 0.553233 0.428540
vt 0.544852 0.507947
vt 0.486205 0.510143
vt 0.483585 0.470294
vt 0.292604 0.470622
vt 0.301409 0.522617
vt 0.323990 0.526558
vt 0.339553 0.479320
vt 0.219077 0.734976
vt 0.166157 0.708940
vt 0.202973 0.619732
vt 0.239920 0.662336
vt 0.497496 0.018760
vt 0.508402 0.051820
vt 0.351048 0.586218
vt 0.377278 0.599249
vt 0.346203 0.684853
vt 0.299681 0.673688
vt 0.267428 0.760484
vt 0.317332 0.785032
vt 0.273043 0.575046
vt 0.293884 0.600486
vt 0.268926 0.993803
vt 0.011769 0.882590
vt 0.051905 0.823023
vt 0.419202 0.527194
vt 0.419202 0.497377
vt 0.127927 0.792668
vt 0.307894 0.430004
vt 0.344565 0.440598
vt 0.372114 0.441049
vt 0.118212 0.360641
vt 0.129654 0.363771
vt 0.038654 0.294765
vt 0.050504 0.271144
vt 0.072343 0.251328
vt 0.104554 0.243816
vt 0.109637 0.272097
vt 0.070137 0.303639
vt 0.164200 0.305010
vt 0.153226 0.267925
vt 0.521531 0.091436
vt 0.566008 0.118037
vt 0.530667 0.125441
vt 0.491103 0.142139
vt 0.528924 0.251738
vt 0.498414 0.256144
vt 0.621937 0.272317
vt 0.589178 0.283950
vt 0.609520 0.397981
vt 0.590444 0.402016
vt 0.568073 0.287160
vt 0.652666 0.261000
vt 0.638448 0.398356
vt 0.618290 0.396068
vt 0.547086 0.287719
vt 0.505391 0.289823
vt 0.475177 0.296003
vt 0.469171 0.257992
vt 0.573365 0.408463
vt 0.561304 0.414856
vt 0.537294 0.421242
vt 0.543244 0.646518
vt 0.501745 0.650680
vt 0.457937 0.660281
vt 0.622510 0.421661
vt 0.615708 0.519046
vt 0.744612 0.513730
vt 0.729635 0.548077
vt 0.674176 0.516030
vt 0.679703 0.447346
vt 0.799067 0.539357
vt 0.783836 0.564834
vt 0.541020 0.687863
vt 0.501839 0.689443
vt 0.468979 0.698092
vt 0.650056 0.663827
vt 0.589878 0.656972
vt 0.732643 0.694345
vt 0.689595 0.682893
vt 0.505588 0.754294
vt 0.474289 0.758374
vt 0.680999 0.723036
vt 0.659849 0.780701
vt 0.626488 0.769284
vt 0.641356 0.707303
vt 0.580406 0.699758
vt 0.719989 0.731821
vt 0.506983 0.780407
vt 0.477246 0.782145
vt 0.654500 0.806678
vt 0.619724 0.795522
vt 0.541800 0.754701
vt 0.578824 0.765325
vt 0.690101 0.785495
vt 0.506269 0.830565
vt 0.471580 0.830955
vt 0.646068 0.855888
vt 0.616661 0.843423
vt 0.539458 0.782438
vt 0.573258 0.791778
vt 0.685091 0.810905
vt 0.592324 0.990928
vt 0.578494 0.988433
vt 0.575437 0.840695
vt 0.545870 0.985467
vt 0.531332 0.972075
vt 0.542227 0.833212
vt 0.677515 0.862169
vt 0.512105 0.968466
vt 0.497933 0.976198
vt 0.629792 0.999790
vt 0.157375 0.347291
vt 0.088409 0.349490
vt 0.708817 0.273543
vt 0.706277 0.263670
vt 0.704464 0.256477
vt 0.697194 0.242752
vt 0.686405 0.228732
vt 0.669966 0.213181
vt 0.653086 0.200746
vt 0.198555 0.800601
vt 0.136448 0.281103
vt 0.110673 0.335984
vt 0.130974 0.249842
vt 0.126935 0.270519
vt 0.110488 0.296361
vt 0.259619 0.269897
vt 0.308831 0.251764
vt 0.338108 0.260546
vt 0.365143 0.248590
vt 0.365143 0.224734
vt 0.307711 0.215302
vt 0.263457 0.205079
vt 0.239357 0.204645
vt 0.196205 0.233494
vt 0.197596 0.261216
vt 0.232230 0.270747
vt 0.259619 0.269897
vt 0.232230 0.270747
vt 0.197596 0.261216
vt 0.196205 0.233494
vt 0.239357 0.204645
vt 0.263457 0.205079
vt 0.307711 0.215302
vt 0.365143 0.224734
vt 0.365143 0.248590
vt 0.338108 0.260546
vt 0.308831 0.251764
s 1
usemtl Material.001
f 1/1/1 2/2/2 3/3/3
f 4/4/4 5/5/5 6/6/6
f 7/7/7 8/8/8 9/9/9
f 1/1/1 3/3/3 10/10/10
f 11/11/11 12/12/12 13/13/13
f 14/14/14 15/15/15 16/16/16
f 17/17/17 18/18/18 19/19/19
f 20/20/20 21/21/21 22/22/22
f 23/23/23 24/24/24 25/25/25
f 26/26/26 27/27/27 28/28/28
f 29/29/29 26/26/26 28/28/28
f 30/30/30 31/31/31 32/32/32
f 15/15/15 33/33/33 34/34/34
f 15/15/15 34/34/34 35/35/35
f 36/36/36 37/37/37 38/38/38
f 37/37/37 39/39/39 40/40/40
f 37/37/37 41/41/41 38/38/38
f 32/32/32 31/31/31 42/42/42
f 43/43/43 44/44/44 45/45/45
f 46/46/46 43/43/43 45/45/45
f 47/47/47 48/48/48 49/49/49
f 2/2/2 50/50/50 3/3/3
f 2/2/2 1/1/1 51/51/51
f 1/1/1 52/52/52 51/51/51
f 46/46/46 45/45/45 53/53/53
f 46/46/46 53/53/53 49/49/49
f 46/46/46 49/49/49 54/54/54
f 53/53/53 55/55/55 49/49/49
f 56/56/56 57/57/57 58/58/58
f 24/24/24 59/59/59 25/25/25
f 60/60/60 61/61/61 62/62/62
f 63/63/63 64/64/64 65/65/65
f 47/47/47 49/49/49 55/55/55
f 48/48/48 54/54/54 49/49/49
f 66/66/66 67/67/67 68/68/68
f 69/69/69 70/70/70 71/71/71
f 72/72/72 73/73/73 74/74/74
f 66/66/66 75/75/75 67/67/67
f 76/76/76 77/77/77 78/78/78
f 79/79/79 80/80/80 81/81/81
f 82/82/82 83/83/83 84/84/84
f 85/85/85 86/86/86 87/87/87
f 88/88/88 89/89/89 90/90/90
f 91/91/91 92/92/92 93/93/93
f 94/94/94 92/92/92 91/91/91
f 95/95/95 96/96/96 97/97/97
f 81/81/81 98/98/98 99/99/99
f 81/81/81 100/100/100 98/98/98
f 101/101/101 102/102/102 103/103/103
f 103/103/103 104/104/104 105/105/105
f 103/103/103 102/102/102 106/106/106
f 96/96/96 107/107/107 97/97/97
f 108/108/108 109/109/109 110/110/110
f 111/111/111 109/109/109 108/108/108
f 47/47/47 112/112/112 48/48/48
f 68/68/68 67/67/67 113/113/113
f 68/68/68 114/114/114 66/66/66
f 66/66/66 114/114/114 115/115/115
f 111/111/111 53/53/53 109/109/109
f 111/111/111 112/112/112 53/53/53
f 111/111/111 116/116/116 112/112/112
f 53/53/53 112/112/112 55/55/55
f 117/117/117 118/118/118 119/119/119
f 90/90/90 89/89/89 120/120/120
f 121/121/121 122/122/122 123/123/123
f 124/124/124 125/125/125 126/126/126
f 47/47/47 55/55/55 112/112/112
f 48/48/48 112/112/112 116/116/116
f 127/127/127 128/128/128 129/129/129
f 127/127/127 129/129/129 130/130/130
f 131/131/131 132/132/132 133/133/133
f 131/131/131 133/133/133 134/134/134
f 131/131/131 135/135/135 136/136/136
f 131/131/131 136/136/136 137/137/137
f 131/131/131 134/134/134 138/138/138
f 131/131/131 138/138/138 135/135/135
f 127/127/127 139/139/139 140/140/140
f 127/127/127 140/140/140 128/128/128
f 128/128/128 2/2/2 51/51/51
f 128/128/128 51/51/51 129/129/129
f 128/128/128 140/140/140 50/50/50
f 128/128/128 50/50/50 2/2/2
f 135/135/135 141/141/141 142/142/142
f 135/135/135 142/142/142 136/136/136
f 135/135/135 138/138/138 143/143/143
f 135/135/135 143/143/143 141/141/141
f 141/141/141 143/143/143 144/144/144
f 141/141/141 144/144/144 127/127/127
f 143/143/143 138/138/138 6/6/6
f 143/143/143 6/6/6 7/7/7
f 7/7/7 9/9/9 144/144/144
f 7/7/7 144/144/144 143/143/143
f 9/9/9 145/145/145 146/146/146
f 9/9/9 146/146/146 144/144/144
f 144/144/144 146/146/146 139/139/139
f 144/144/144 139/139/139 127/127/127
f 133/133/133 147/147/147 4/4/4
f 133/133/133 4/4/4 134/134/134
f 4/4/4 6/6/6 138/138/138
f 4/4/4 138/138/138 134/134/134
f 4/4/4 147/147/147 148/148/148
f 4/4/4 148/148/148 5/5/5
f 8/8/8 149/149/149 145/145/145
f 8/8/8 145/145/145 9/9/9
f 5/5/5 148/148/148 149/149/149
f 5/5/5 149/149/149 8/8/8
f 6/6/6 5/5/5 8/8/8
f 6/6/6 8/8/8 7/7/7
f 150/150/150 151/151/151 152/152/152
f 150/150/150 152/152/152 153/153/153
f 153/153/153 154/154/154 155/155/155
f 153/153/153 155/155/155 150/150/150
f 153/153/153 156/156/156 157/157/157
f 153/153/153 157/157/157 154/154/154
f 152/152/152 158/158/158 156/156/156
f 152/152/152 156/156/156 153/153/153
f 159/159/159 160/160/160 161/161/161
f 159/159/159 161/161/161 162/162/162
f 159/159/159 163/163/163 164/164/164
f 159/159/159 164/164/164 160/160/160
f 165/165/165 166/166/166 158/158/158
f 165/165/165 158/158/158 167/167/167
f 165/165/165 168/168/168 169/169/169
f 165/165/165 169/169/169 166/166/166
f 170/170/170 171/171/171 172/172/172
f 170/170/170 172/172/172 173/173/173
f 166/166/166 174/174/174 156/156/156
f 166/166/166 156/156/156 158/158/158
f 166/166/166 169/169/169 175/175/175
f 166/166/166 175/175/175 174/174/174
f 154/154/154 176/176/176 177/177/177
f 154/154/154 177/177/177 155/155/155
f 154/154/154 157/157/157 178/178/178
f 154/154/154 178/178/178 176/176/176
f 176/176/176 179/179/179 180/180/180
f 176/176/176 180/180/180 177/177/177
f 176/176/176 181/181/181 182/182/182
f 176/176/176 182/182/182 179/179/179
f 176/176/176 183/183/183 184/184/184
f 176/176/176 184/184/184 181/181/181
f 185/185/185 186/186/186 164/164/164
f 185/185/185 164/164/164 163/163/163
f 185/185/185 187/187/187 188/188/188
f 185/185/185 188/188/188 186/186/186
f 189/189/189 190/190/190 172/172/172
f 189/189/189 172/172/172 171/171/171
f 191/191/191 192/192/192 190/190/190
f 191/191/191 190/190/190 189/189/189
f 191/191/191 193/193/193 194/194/194
f 191/191/191 194/194/194 192/192/192
f 195/195/195 196/196/196 197/197/197
f 195/195/195 197/197/197 198/198/198
f 199/199/199 200/200/200 201/201/201
f 199/199/199 201/201/201 202/202/202
f 203/203/203 204/204/204 205/205/205
f 203/203/203 205/205/205 172/172/172
f 174/174/174 206/206/206 157/157/157
f 174/174/174 157/157/157 156/156/156
f 207/207/207 208/208/208 209/209/209
f 207/207/207 209/209/209 210/210/210
f 211/211/211 205/205/205 204/204/204
f 211/211/211 204/204/204 212/212/212
f 213/213/213 214/214/214 205/205/205
f 213/213/213 205/205/205 211/211/211
f 209/209/209 169/169/169 168/168/168
f 209/209/209 168/168/168 215/215/215
f 208/208/208 175/175/175 169/169/169
f 208/208/208 169/169/169 209/209/209
f 172/172/172 205/205/205 214/214/214
f 172/172/172 214/214/214 173/173/173
f 172/172/172 190/190/190 216/216/216
f 172/172/172 216/216/216 203/203/203
f 217/217/217 218/218/218 196/196/196
f 217/217/217 196/196/196 195/195/195
f 218/218/218 219/219/219 197/197/197
f 218/218/218 197/197/197 196/196/196
f 157/157/157 206/206/206 220/220/220
f 157/157/157 220/220/220 178/178/178
f 178/178/178 221/221/221 183/183/183
f 178/178/178 183/183/183 176/176/176
f 178/178/178 220/220/220 222/222/222
f 178/178/178 222/222/222 221/221/221
f 223/223/223 224/224/224 225/225/225
f 223/223/223 225/225/225 226/226/226
f 223/223/223 227/227/227 228/228/228
f 223/223/223 228/228/228 224/224/224
f 229/229/229 230/230/230 231/231/231
f 229/229/229 231/231/231 232/232/232
f 225/225/225 233/233/233 234/234/234
f 225/225/225 234/234/234 226/226/226
f 224/224/224 228/228/228 233/233/233
f 224/224/224 233/233/233 225/225/225
f 235/235/235 236/236/236 237/237/237
f 235/235/235 237/237/237 238/238/238
f 179/179/179 197/197/197 219/219/219
f 179/179/179 219/219/219 180/180/180
f 182/182/182 198/198/198 197/197/197
f 182/182/182 197/197/197 179/179/179
f 193/193/193 201/201/201 200/200/200
f 193/193/193 200/200/200 194/194/194
f 183/183/183 228/228/228 227/227/227
f 183/183/183 227/227/227 184/184/184
f 221/221/221 233/233/233 228/228/228
f 221/221/221 228/228/228 183/183/183
f 239/239/239 240/240/240 241/241/241
f 239/239/239 241/241/241 192/192/192
f 239/239/239 231/231/231 230/230/230
f 239/239/239 230/230/230 240/240/240
f 222/222/222 234/234/234 233/233/233
f 222/222/222 233/233/233 221/221/221
f 241/241/241 216/216/216 190/190/190
f 241/241/241 190/190/190 192/192/192
f 187/187/187 237/237/237 236/236/236
f 187/187/187 236/236/236 188/188/188
f 242/242/242 243/243/243 244/244/244
f 242/242/242 244/244/244 245/245/245
f 246/246/246 247/247/247 248/248/248
f 246/246/246 248/248/248 249/249/249
f 250/250/250 17/17/17 19/19/19
f 250/250/250 19/19/19 251/251/251
f 252/252/252 253/253/253 254/254/254
f 252/252/252 254/254/254 255/255/255
f 256/256/256 36/36/36 38/38/38
f 256/256/256 38/38/38 257/257/257
f 255/255/255 254/254/254 258/258/258
f 255/255/255 258/258/258 259/259/259
f 260/260/260 261/261/261 262/262/262
f 260/260/260 262/262/262 263/263/263
f 264/264/264 12/12/12 11/11/11
f 264/264/264 11/11/11 265/265/265
f 253/253/253 266/266/266 267/267/267
f 253/253/253 267/267/267 254/254/254
f 261/261/261 260/260/260 266/266/266
f 261/261/261 266/266/266 253/253/253
f 254/254/254 267/267/267 268/268/268
f 254/254/254 268/268/268 258/258/258
f 13/13/13 269/269/269 270/270/270
f 13/13/13 270/270/270 271/271/271
f 272/272/272 273/273/273 274/274/274
f 272/272/272 274/274/274 275/275/275
f 243/243/243 276/276/276 277/277/277
f 243/243/243 277/277/277 244/244/244
f 278/278/278 279/279/279 274/274/274
f 278/278/278 274/274/274 273/273/273
f 248/248/248 251/251/251 280/280/280
f 248/248/248 280/280/280 281/281/21
f 249/249/249 248/248/248 281/281/21
f 249/249/249 281/281/21 282/282/281
f 247/247/247 250/250/250 251/251/251
f 247/247/247 251/251/251 248/248/248
f 283/283/281 21/21/21 20/20/20
f 283/283/281 20/20/20 284/284/282
f 19/19/19 285/285/283 286/286/284
f 19/19/19 286/286/284 287/287/285
f 251/251/251 19/19/19 287/287/285
f 251/251/251 287/287/285 280/280/280
f 21/21/21 288/288/286 289/289/287
f 21/21/21 289/289/287 22/22/22
f 284/284/282 20/20/20 54/54/54
f 284/284/282 54/54/54 48/48/48
f 290/290/288 44/44/44 291/291/289
f 290/290/288 291/291/289 292/292/290
f 292/292/290 291/291/289 293/293/291
f 292/292/290 293/293/291 294/294/292
f 295/295/293 61/61/61 296/296/294
f 295/295/293 296/296/294 297/297/295
f 293/293/291 62/62/62 61/61/61
f 293/293/291 61/61/61 295/295/293
f 291/291/289 298/298/296 62/62/62
f 291/291/289 62/62/62 293/293/291
f 299/299/297 300/300/298 301/301/299
f 299/299/297 301/301/299 302/302/300
f 303/303/301 257/257/257 38/38/38
f 303/303/301 38/38/38 41/41/41
f 35/35/35 34/34/34 257/257/257
f 35/35/35 257/257/257 303/303/301
f 33/33/33 256/256/256 257/257/257
f 33/33/33 257/257/257 34/34/34
f 35/35/35 303/303/301 304/304/302
f 35/35/35 304/304/302 305/305/303
f 15/15/15 35/35/35 305/305/303
f 15/15/15 305/305/303 16/16/16
f 41/41/41 37/37/37 40/40/40
f 41/41/41 40/40/40 306/306/304
f 303/303/301 41/41/41 306/306/304
f 303/303/301 306/306/304 304/304/302
f 304/304/302 306/306/304 307/307/305
f 304/304/302 307/307/305 31/31/31
f 306/306/304 40/40/40 308/308/306
f 306/306/304 308/308/306 307/307/305
f 27/27/27 42/42/42 309/309/307
f 27/27/27 309/309/307 310/310/308
f 309/309/307 311/311/309 312/312/310
f 309/309/307 312/312/310 313/313/311
f 314/314/312 310/310/308 315/315/313
f 314/314/312 315/315/313 316/316/314
f 307/307/305 308/308/306 317/317/315
f 307/307/305 317/317/315 318/318/316
f 308/308/306 319/319/317 320/320/318
f 308/308/306 320/320/318 317/317/315
f 318/318/316 317/317/315 321/321/319
f 318/318/316 321/321/319 322/322/320
f 317/317/315 320/320/318 323/323/321
f 317/317/315 323/323/321 321/321/319
f 310/310/308 309/309/307 313/313/311
f 310/310/308 313/313/311 315/315/313
f 245/245/245 244/244/244 324/324/322
f 245/245/245 324/324/322 325/325/323
f 244/244/244 277/277/277 326/326/324
f 244/244/244 326/326/324 324/324/322
f 327/327/325 242/242/242 245/245/245
f 327/327/325 245/245/245 328/328/326
f 329/329/327 330/330/328 331/331/329
f 329/329/327 331/331/329 332/332/330
f 330/330/328 327/327/325 328/328/326
f 330/330/328 328/328/326 331/331/329
f 333/333/331 329/329/327 332/332/330
f 333/333/331 332/332/330 334/334/332
f 325/325/323 324/324/322 335/335/333
f 325/325/323 335/335/333 336/336/334
f 324/324/322 326/326/324 337/337/335
f 324/324/322 337/337/335 335/335/333
f 331/331/329 328/328/326 338/338/336
f 331/331/329 338/338/336 339/339/337
f 334/334/332 332/332/330 340/340/338
f 334/334/332 340/340/338 341/341/339
f 328/328/326 245/245/245 325/325/323
f 328/328/326 325/325/323 338/338/336
f 332/332/330 331/331/329 339/339/337
f 332/332/330 339/339/337 340/340/338
f 335/335/333 337/337/335 342/342/340
f 335/335/333 342/342/340 343/343/341
f 344/344/342 345/345/343 346/346/344
f 344/344/342 346/346/344 347/347/345
f 339/339/337 338/338/336 348/348/346
f 339/339/337 348/348/346 345/345/343
f 341/341/339 340/340/338 344/344/342
f 341/341/339 344/344/342 349/349/347
f 338/338/336 325/325/323 336/336/334
f 338/338/336 336/336/334 348/348/346
f 340/340/338 339/339/337 345/345/343
f 340/340/338 345/345/343 344/344/342
f 343/343/341 342/342/340 350/350/348
f 343/343/341 350/350/348 351/351/349
f 347/347/345 346/346/344 352/352/350
f 347/347/345 352/352/350 353/353/351
f 336/336/334 335/335/333 343/343/341
f 336/336/334 343/343/341 354/354/352
f 345/345/343 348/348/346 355/355/353
f 345/345/343 355/355/353 346/346/344
f 349/349/347 344/344/342 347/347/345
f 349/349/347 347/347/345 356/356/354
f 348/348/346 336/336/334 354/354/352
f 348/348/346 354/354/352 355/355/353
f 351/351/349 350/350/348 357/357/355
f 351/351/349 357/357/355 358/358/356
f 353/353/351 352/352/350 359/359/357
f 353/353/351 359/359/357 360/360/358
f 354/354/352 343/343/341 351/351/349
f 354/354/352 351/351/349 361/361/359
f 346/346/344 355/355/353 362/362/360
f 346/346/344 362/362/360 352/352/350
f 356/356/354 347/347/345 353/353/351
f 356/356/354 353/353/351 363/363/361
f 355/355/353 354/354/352 361/361/359
f 355/355/353 361/361/359 362/362/360
f 360/360/358 359/359/357 364/364/362
f 360/360/358 364/364/362 365/365/363
f 366/366/364 367/367/365 368/368/366
f 366/366/364 368/368/366 369/369/367
f 361/361/359 351/351/349 358/358/356
f 361/361/359 358/358/356 367/367/365
f 352/352/350 362/362/360 366/366/364
f 352/352/350 366/366/364 359/359/357
f 363/363/361 353/353/351 360/360/358
f 363/363/361 360/360/358 370/370/368
f 362/362/360 361/361/359 367/367/365
f 362/362/360 367/367/365 366/366/364
f 358/358/356 357/357/355 371/371/369
f 358/358/356 371/371/369 372/372/370
f 367/367/365 358/358/356 372/372/370
f 367/367/365 372/372/370 368/368/366
f 359/359/357 366/366/364 369/369/367
f 359/359/357 369/369/367 364/364/362
f 370/370/368 360/360/358 365/365/363
f 370/370/368 365/365/363 373/373/371
f 53/53/53 45/45/45 44/44/44
f 53/53/53 44/44/44 290/290/288
f 44/44/44 43/43/43 298/298/296
f 44/44/44 298/298/296 291/291/289
f 302/302/300 301/301/299 374/374/372
f 302/302/300 374/374/372 375/375/284
f 54/54/54 376/376/373 43/43/43
f 54/54/54 43/43/43 46/46/46
f 40/40/40 39/39/39 319/319/317
f 40/40/40 319/319/317 308/308/306
f 162/162/162 151/151/151 150/150/150
f 162/162/162 150/150/150 159/159/159
f 159/159/159 150/150/150 155/155/155
f 159/159/159 155/155/155 163/163/163
f 163/163/163 155/155/155 177/177/177
f 163/163/163 177/177/177 185/185/185
f 185/185/185 177/177/177 180/180/180
f 185/185/185 180/180/180 187/187/187
f 187/187/187 180/180/180 219/219/219
f 187/187/187 219/219/219 237/237/237
f 237/237/237 219/219/219 218/218/218
f 237/237/237 218/218/218 238/238/238
f 238/238/238 218/218/218 217/217/217
f 238/238/238 217/217/217 235/235/235
f 377/377/374 202/202/202 201/201/201
f 377/377/374 201/201/201 378/378/375
f 378/378/375 201/201/201 193/193/193
f 378/378/375 193/193/193 379/379/376
f 379/379/376 193/193/193 191/191/191
f 379/379/376 191/191/191 380/380/377
f 380/380/377 191/191/191 189/189/189
f 380/380/377 189/189/189 381/381/378
f 381/381/378 189/189/189 171/171/171
f 381/381/378 171/171/171 382/382/379
f 382/382/379 171/171/171 170/170/170
f 382/382/379 170/170/170 383/383/380
f 311/311/309 318/318/316 322/322/320
f 311/311/309 322/322/320 312/312/310
f 42/42/42 31/31/31 311/311/309
f 42/42/42 311/311/309 309/309/307
f 265/265/265 11/11/11 384/384/381
f 265/265/265 384/384/381 385/385/382
f 384/384/381 11/11/11 13/13/13
f 384/384/381 13/13/13 271/271/271
f 18/18/18 263/263/263 386/386/383
f 18/18/18 386/386/383 387/387/384
f 18/18/18 387/387/384 285/285/283
f 18/18/18 285/285/283 19/19/19
f 17/17/17 260/260/260 263/263/263
f 17/17/17 263/263/263 18/18/18
f 263/263/263 262/262/262 388/388/385
f 263/263/263 388/388/385 386/386/383
f 264/264/264 261/261/261 253/253/253
f 264/264/264 253/253/253 252/252/252
f 12/12/12 264/264/264 252/252/252
f 12/12/12 252/252/252 389/389/386
f 262/262/262 265/265/265 385/385/382
f 262/262/262 385/385/382 388/388/385
f 261/261/261 264/264/264 265/265/265
f 261/261/261 265/265/265 262/262/262
f 278/278/278 255/255/255 259/259/259
f 278/278/278 259/259/259 279/279/279
f 389/389/386 252/252/252 255/255/255
f 389/389/386 255/255/255 278/278/278
f 28/28/28 27/27/27 310/310/308
f 28/28/28 310/310/308 314/314/312
f 27/27/27 26/26/26 32/32/32
f 27/27/27 32/32/32 42/42/42
f 16/16/16 305/305/303 30/30/30
f 16/16/16 30/30/30 29/29/29
f 305/305/303 304/304/302 31/31/31
f 305/305/303 31/31/31 30/30/30
f 32/32/32 26/26/26 29/29/29
f 32/32/32 29/29/29 30/30/30
f 14/14/14 16/16/16 29/29/29
f 14/14/14 29/29/29 28/28/28
f 31/31/31 307/307/305 318/318/316
f 31/31/31 318/318/316 311/311/309
f 300/300/298 390/390/387 64/64/64
f 300/300/298 64/64/64 301/301/299
f 130/130/130 142/142/142 141/141/141
f 130/130/130 141/141/141 127/127/127
f 57/57/57 24/24/24 23/23/23
f 57/57/57 23/23/23 58/58/58
f 22/22/22 289/289/287 391/391/388
f 22/22/22 391/391/388 376/376/373
f 392/392/389 393/393/390 390/390/387
f 392/392/389 390/390/387 300/300/298
f 376/376/373 391/391/388 60/60/60
f 376/376/373 60/60/60 43/43/43
f 43/43/43 60/60/60 62/62/62
f 43/43/43 62/62/62 298/298/296
f 64/64/64 390/390/387 394/394/391
f 64/64/64 394/394/391 65/65/65
f 395/395/392 392/392/389 300/300/298
f 395/395/392 300/300/298 299/299/297
f 396/396/393 297/297/295 392/392/389
f 396/396/393 392/392/389 395/395/392
f 297/297/295 296/296/294 393/393/390
f 297/297/295 393/393/390 392/392/389
f 397/397/394 295/295/293 297/297/295
f 397/397/394 297/297/295 396/396/393
f 294/294/292 293/293/291 295/295/293
f 294/294/292 295/295/293 397/397/394
f 301/301/299 64/64/64 63/63/63
f 301/301/299 63/63/63 374/374/372
f 390/390/387 393/393/390 296/296/294
f 390/390/387 296/296/294 394/394/391
f 60/60/60 394/394/391 296/296/294
f 60/60/60 296/296/294 61/61/61
f 65/65/65 391/391/388 289/289/287
f 65/65/65 289/289/287 63/63/63
f 289/289/287 288/288/286 374/374/372
f 289/289/287 374/374/372 63/63/63
f 22/22/22 376/376/373 54/54/54
f 22/22/22 54/54/54 20/20/20
f 246/246/246 268/268/268 267/267/267
f 246/246/246 267/267/267 247/247/247
f 398/398/395 399/399/396 400/400/397
f 398/398/395 400/400/397 401/401/398
f 402/402/399 403/403/400 404/404/401
f 402/402/399 404/404/401 405/405/402
f 402/402/399 406/406/403 407/407/404
f 402/402/399 407/407/404 408/408/405
f 402/402/399 408/408/405 409/409/406
f 402/402/399 409/409/406 403/403/400
f 398/398/395 401/401/398 410/410/407
f 398/398/395 410/410/407 411/411/408
f 401/401/398 400/400/397 114/114/114
f 401/401/398 114/114/114 68/68/68
f 401/401/398 68/68/68 113/113/113
f 401/401/398 113/113/113 410/410/407
f 408/408/405 407/407/404 412/412/409
f 408/408/405 412/412/409 413/413/410
f 408/408/405 413/413/410 414/414/411
f 408/408/405 414/414/411 409/409/406
f 413/413/410 398/398/395 415/415/412
f 413/413/410 415/415/412 414/414/411
f 414/414/411 72/72/72 70/70/70
f 414/414/411 70/70/70 409/409/406
f 72/72/72 414/414/411 415/415/412
f 72/72/72 415/415/412 73/73/73
f 73/73/73 415/415/412 416/416/413
f 73/73/73 416/416/413 417/417/414
f 415/415/412 398/398/395 411/411/408
f 415/415/412 411/411/408 416/416/413
f 404/404/401 403/403/400 69/69/69
f 404/404/401 69/69/69 418/418/415
f 69/69/69 403/403/400 409/409/406
f 69/69/69 409/409/406 70/70/70
f 69/69/69 71/71/71 419/419/416
f 69/69/69 419/419/416 418/418/415
f 74/74/74 73/73/73 417/417/414
f 74/74/74 417/417/414 420/420/417
f 71/71/71 74/74/74 420/420/417
f 71/71/71 420/420/417 419/419/416
f 70/70/70 72/72/72 74/74/74
f 70/70/70 74/74/74 71/71/71
f 421/421/418 422/422/419 423/423/420
f 421/421/418 423/423/420 424/424/421
f 422/422/419 421/421/418 425/425/422
f 422/422/419 425/425/422 426/426/423
f 422/422/419 426/426/423 427/427/424
f 422/422/419 427/427/424 428/428/425
f 423/423/420 422/422/419 428/428/425
f 423/423/420 428/428/425 429/429/426
f 430/430/427 431/431/428 432/432/429
f 430/430/427 432/432/429 433/433/430
f 430/430/427 433/433/430 434/434/431
f 430/430/427 434/434/431 435/435/432
f 436/436/433 437/437/434 429/429/426
f 436/436/433 429/429/426 438/438/435
f 436/436/433 438/438/435 439/439/436
f 436/436/433 439/439/436 440/440/437
f 441/441/438 442/442/439 443/443/440
f 441/441/438 443/443/440 444/444/441
f 438/438/435 429/429/426 428/428/425
f 438/438/435 428/428/425 445/445/442
f 438/438/435 445/445/442 446/446/443
f 438/438/435 446/446/443 439/439/436
f 426/426/423 425/425/422 447/447/444
f 426/426/423 447/447/444 448/448/445
f 426/426/423 448/448/445 449/449/446
f 426/426/423 449/449/446 427/427/424
f 448/448/445 447/447/444 450/450/447
f 448/448/445 450/450/447 451/451/448
f 448/448/445 451/451/448 452/452/449
f 448/448/445 452/452/449 453/453/450
f 448/448/445 453/453/450 454/454/451
f 448/448/445 454/454/451 455/455/452
f 456/456/453 435/435/432 434/434/431
f 456/456/453 434/434/431 457/457/454
f 456/456/453 457/457/454 458/458/455
f 456/456/453 458/458/455 459/459/456
f 460/460/457 444/444/441 443/443/440
f 460/460/457 443/443/440 461/461/458
f 462/462/459 460/460/457 461/461/458
f 462/462/459 461/461/458 463/463/460
f 462/462/459 463/463/460 464/464/461
f 462/462/459 464/464/461 465/465/462
f 466/466/463 467/467/464 468/468/465
f 466/466/463 468/468/465 469/469/466
f 470/470/467 471/471/468 472/472/469
f 470/470/467 472/472/469 473/473/470
f 474/474/471 443/443/440 475/475/472
f 474/474/471 475/475/472 476/476/473
f 445/445/442 428/428/425 427/427/424
f 445/445/442 427/427/424 477/477/474
f 478/478/475 479/479/476 480/480/477
f 478/478/475 480/480/477 481/481/478
f 482/482/479 483/483/480 476/476/473
f 482/482/479 476/476/473 475/475/472
f 484/484/481 482/482/479 475/475/472
f 484/484/481 475/475/472 485/485/482
f 480/480/477 486/486/483 440/440/437
f 480/480/477 440/440/437 439/439/436
f 481/481/478 480/480/477 439/439/436
f 481/481/478 439/439/436 446/446/443
f 443/443/440 442/442/439 485/485/482
f 443/443/440 485/485/482 475/475/472
f 443/443/440 474/474/471 487/487/484
f 443/443/440 487/487/484 461/461/458
f 488/488/485 466/466/463 469/469/466
f 488/488/485 469/469/466 489/489/486
f 489/489/486 469/469/466 468/468/465
f 489/489/486 468/468/465 490/490/487
f 427/427/424 449/449/446 491/491/488
f 427/427/424 491/491/488 477/477/474
f 449/449/446 448/448/445 455/455/452
f 449/449/446 455/455/452 492/492/489
f 449/449/446 492/492/489 493/493/490
f 449/449/446 493/493/490 491/491/488
f 494/494/491 495/495/492 496/496/493
f 494/494/491 496/496/493 497/497/494
f 494/494/491 497/497/494 498/498/495
f 494/494/491 498/498/495 499/499/496
f 500/500/497 501/501/498 502/502/499
f 500/500/497 502/502/499 503/503/500
f 496/496/493 495/495/492 504/504/501
f 496/496/493 504/504/501 505/505/502
f 497/497/494 496/496/493 505/505/502
f 497/497/494 505/505/502 498/498/495
f 506/506/503 507/507/504 508/508/505
f 506/506/503 508/508/505 509/509/506
f 451/451/448 450/450/447 490/490/487
f 451/451/448 490/490/487 468/468/465
f 452/452/449 451/451/448 468/468/465
f 452/452/449 468/468/465 467/467/464
f 465/465/462 464/464/461 473/473/470
f 465/465/462 473/473/470 472/472/469
f 455/455/452 454/454/451 499/499/496
f 455/455/452 499/499/496 498/498/495
f 492/492/489 455/455/452 498/498/495
f 492/492/489 498/498/495 505/505/502
f 510/510/507 463/463/460 511/511/508
f 510/510/507 511/511/508 512/512/509
f 510/510/507 512/512/509 503/503/500
f 510/510/507 503/503/500 502/502/499
f 493/493/490 492/492/489 505/505/502
f 493/493/490 505/505/502 504/504/501
f 511/511/508 463/463/460 461/461/458
f 511/511/508 461/461/458 487/487/484
f 459/459/456 458/458/455 509/509/506
f 459/459/456 509/509/506 508/508/505
f 513/513/510 514/514/511 515/515/512
f 513/513/510 515/515/512 516/516/513
f 246/246/246 249/249/249 517/517/514
f 246/246/246 517/517/514 518/518/515
f 519/519/516 520/520/517 83/83/83
f 519/519/516 83/83/83 82/82/82
f 521/521/518 522/522/519 523/523/520
f 521/521/518 523/523/520 524/524/521
f 525/525/522 526/526/523 102/102/102
f 525/525/522 102/102/102 101/101/101
f 522/522/519 259/259/259 258/258/258
f 522/522/519 258/258/258 523/523/520
f 527/527/524 528/528/525 529/529/526
f 527/527/524 529/529/526 530/530/527
f 531/531/528 532/532/529 76/76/76
f 531/531/528 76/76/76 78/78/78
f 524/524/521 523/523/520 533/533/530
f 524/524/521 533/533/530 534/534/531
f 530/530/527 524/524/521 534/534/531
f 530/530/527 534/534/531 527/527/524
f 523/523/520 258/258/258 268/268/268
f 523/523/520 268/268/268 533/533/530
f 77/77/77 271/271/271 270/270/270
f 77/77/77 270/270/270 535/535/532
f 536/536/533 275/275/275 274/274/274
f 536/536/533 274/274/274 537/537/534
f 516/516/513 515/515/512 538/538/535
f 516/516/513 538/538/535 539/539/536
f 540/540/537 537/537/534 274/274/274
f 540/540/537 274/274/274 279/279/279
f 517/517/514 541/541/87 542/542/538
f 517/517/514 542/542/538 520/520/517
f 249/249/249 282/282/281 541/541/87
f 249/249/249 541/541/87 517/517/514
f 518/518/515 517/517/514 520/520/517
f 518/518/515 520/520/517 519/519/516
f 283/283/281 284/284/282 85/85/85
f 283/283/281 85/85/85 87/87/87
f 83/83/83 543/543/539 286/286/284
f 83/83/83 286/286/284 285/285/283
f 520/520/517 542/542/538 543/543/539
f 520/520/517 543/543/539 83/83/83
f 87/87/87 86/86/86 544/544/540
f 87/87/87 544/544/540 545/545/541
f 284/284/282 48/48/48 116/116/116
f 284/284/282 116/116/116 85/85/85
f 290/290/288 292/292/290 546/546/542
f 290/290/288 546/546/542 110/110/110
f 292/292/290 294/294/292 547/547/543
f 292/292/290 547/547/543 546/546/542
f 548/548/544 549/549/545 550/550/546
f 548/548/544 550/550/546 123/123/123
f 547/547/543 548/548/544 123/123/123
f 547/547/543 123/123/123 122/122/122
f 546/546/542 547/547/543 122/122/122
f 546/546/542 122/122/122 551/551/547
f 299/299/297 302/302/300 552/552/548
f 299/299/297 552/552/548 553/553/549
f 554/554/550 106/106/106 102/102/102
f 554/554/550 102/102/102 526/526/523
f 100/100/100 554/554/550 526/526/523
f 100/100/100 526/526/523 98/98/98
f 99/99/99 98/98/98 526/526/523
f 99/99/99 526/526/523 525/525/522
f 100/100/100 555/555/551 556/556/552
f 100/100/100 556/556/552 554/554/550
f 81/81/81 80/80/80 555/555/551
f 81/81/81 555/555/551 100/100/100
f 106/106/106 557/557/553 104/104/104
f 106/106/106 104/104/104 103/103/103
f 554/554/550 556/556/552 557/557/553
f 554/554/550 557/557/553 106/106/106
f 556/556/552 97/97/97 558/558/554
f 556/556/552 558/558/554 557/557/553
f 557/557/553 558/558/554 559/559/555
f 557/557/553 559/559/555 104/104/104
f 93/93/93 560/560/556 561/561/557
f 93/93/93 561/561/557 107/107/107
f 561/561/557 562/562/558 563/563/559
f 561/561/557 563/563/559 564/564/560
f 565/565/561 566/566/562 567/567/563
f 565/565/561 567/567/563 560/560/556
f 558/558/554 568/568/564 569/569/565
f 558/558/554 569/569/565 559/559/555
f 559/559/555 569/569/565 570/570/566
f 559/559/555 570/570/566 571/571/567
f 568/568/564 572/572/568 573/573/569
f 568/568/564 573/573/569 569/569/565
f 569/569/565 573/573/569 574/574/570
f 569/569/565 574/574/570 570/570/566
f 560/560/556 567/567/563 562/562/558
f 560/560/556 562/562/558 561/561/557
f 514/514/511 575/575/571 576/576/572
f 514/514/511 576/576/572 515/515/512
f 515/515/512 576/576/572 577/577/573
f 515/515/512 577/577/573 538/538/535
f 578/578/574 579/579/575 514/514/511
f 578/578/574 514/514/511 513/513/510
f 580/580/576 581/581/577 582/582/578
f 580/580/576 582/582/578 583/583/579
f 583/583/579 582/582/578 579/579/575
f 583/583/579 579/579/575 578/578/574
f 584/584/580 585/585/581 581/581/577
f 584/584/580 581/581/577 580/580/576
f 575/575/571 586/586/582 587/587/583
f 575/575/571 587/587/583 576/576/572
f 576/576/572 587/587/583 588/588/584
f 576/576/572 588/588/584 577/577/573
f 582/582/578 589/589/585 590/590/586
f 582/582/578 590/590/586 579/579/575
f 585/585/581 591/591/587 592/592/588
f 585/585/581 592/592/588 581/581/577
f 579/579/575 590/590/586 575/575/571
f 579/579/575 575/575/571 514/514/511
f 581/581/577 592/592/588 589/589/585
f 581/581/577 589/589/585 582/582/578
f 587/587/583 593/593/589 594/594/590
f 587/587/583 594/594/590 588/588/584
f 595/595/591 596/596/592 597/597/593
f 595/595/591 597/597/593 598/598/594
f 589/589/585 598/598/594 599/599/595
f 589/589/585 599/599/595 590/590/586
f 591/591/587 600/600/596 595/595/591
f 591/591/587 595/595/591 592/592/588
f 590/590/586 599/599/595 586/586/582
f 590/590/586 586/586/582 575/575/571
f 592/592/588 595/595/591 598/598/594
f 592/592/588 598/598/594 589/589/585
f 593/593/589 601/601/597 602/602/598
f 593/593/589 602/602/598 594/594/590
f 596/596/592 603/603/599 604/604/600
f 596/596/592 604/604/600 597/597/593
f 586/586/582 605/605/601 593/593/589
f 586/586/582 593/593/589 587/587/583
f 598/598/594 597/597/593 606/606/602
f 598/598/594 606/606/602 599/599/595
f 600/600/596 607/607/603 596/596/592
f 600/600/596 596/596/592 595/595/591
f 599/599/595 606/606/602 605/605/601
f 599/599/595 605/605/601 586/586/582
f 601/601/597 608/608/604 609/609/605
f 601/601/597 609/609/605 602/602/598
f 603/603/599 610/610/606 611/611/607
f 603/603/599 611/611/607 604/604/600
f 605/605/601 612/612/608 601/601/597
f 605/605/601 601/601/597 593/593/589
f 597/597/593 604/604/600 613/613/609
f 597/597/593 613/613/609 606/606/602
f 607/607/603 614/614/610 603/603/599
f 607/607/603 603/603/599 596/596/592
f 606/606/602 613/613/609 612/612/608
f 606/606/602 612/612/608 605/605/601
f 610/610/606 615/615/611 616/616/612
f 610/610/606 616/616/612 611/611/607
f 617/617/613 618/618/614 619/619/615
f 617/617/613 619/619/615 620/620/616
f 612/612/608 620/620/616 608/608/604
f 612/612/608 608/608/604 601/601/597
f 604/604/600 611/611/607 617/617/613
f 604/604/600 617/617/613 613/613/609
f 614/614/610 621/621/617 610/610/606
f 614/614/610 610/610/606 603/603/599
f 613/613/609 617/617/613 620/620/616
f 613/613/609 620/620/616 612/612/608
f 608/608/604 622/622/618 623/623/619
f 608/608/604 623/623/619 609/609/605
f 620/620/616 619/619/615 622/622/618
f 620/620/616 622/622/618 608/608/604
f 611/611/607 616/616/612 618/618/614
f 611/611/607 618/618/614 617/617/613
f 621/621/617 624/624/620 615/615/611
f 621/621/617 615/615/611 610/610/606
f 53/53/53 290/290/288 110/110/110
f 53/53/53 110/110/110 109/109/109
f 110/110/110 546/546/542 551/551/547
f 110/110/110 551/551/547 108/108/108
f 302/302/300 375/375/284 625/625/621
f 302/302/300 625/625/621 552/552/548
f 116/116/116 111/111/111 108/108/108
f 116/116/116 108/108/108 626/626/622
f 104/104/104 559/559/555 571/571/567
f 104/104/104 571/571/567 105/105/105
f 431/431/428 430/430/427 421/421/418
f 431/431/428 421/421/418 424/424/421
f 430/430/427 435/435/432 425/425/422
f 430/430/427 425/425/422 421/421/418
f 435/435/432 456/456/453 447/447/444
f 435/435/432 447/447/444 425/425/422
f 456/456/453 459/459/456 450/450/447
f 456/456/453 450/450/447 447/447/444
f 459/459/456 508/508/505 490/490/487
f 459/459/456 490/490/487 450/450/447
f 508/508/505 507/507/504 489/489/486
f 508/508/505 489/489/486 490/490/487
f 507/507/504 506/506/503 488/488/485
f 507/507/504 488/488/485 489/489/486
f 627/627/623 628/628/624 472/472/469
f 627/627/623 472/472/469 471/471/468
f 628/628/624 629/629/625 465/465/462
f 628/628/624 465/465/462 472/472/469
f 629/629/625 630/630/626 462/462/459
f 629/629/625 462/462/459 465/465/462
f 630/630/626 631/631/627 460/460/457
f 630/630/626 460/460/457 462/462/459
f 631/631/627 632/632/628 444/444/441
f 631/631/627 444/444/441 460/460/457
f 632/632/628 633/633/629 441/441/438
f 632/632/628 441/441/438 444/444/441
f 564/564/560 563/563/559 572/572/568
f 564/564/560 572/572/568 568/568/564
f 107/107/107 561/561/557 564/564/560
f 107/107/107 564/564/560 97/97/97
f 532/532/529 385/385/382 384/384/381
f 532/532/529 384/384/381 76/76/76
f 384/384/381 271/271/271 77/77/77
f 384/384/381 77/77/77 76/76/76
f 84/84/84 387/387/384 386/386/383
f 84/84/84 386/386/383 528/528/525
f 84/84/84 83/83/83 285/285/283
f 84/84/84 285/285/283 387/387/384
f 82/82/82 84/84/84 528/528/525
f 82/82/82 528/528/525 527/527/524
f 528/528/525 386/386/383 388/388/385
f 528/528/525 388/388/385 529/529/526
f 531/531/528 521/521/518 524/524/521
f 531/531/528 524/524/521 530/530/527
f 78/78/78 634/634/630 521/521/518
f 78/78/78 521/521/518 531/531/528
f 529/529/526 388/388/385 385/385/382
f 529/529/526 385/385/382 532/532/529
f 530/530/527 529/529/526 532/532/529
f 530/530/527 532/532/529 531/531/528
f 540/540/537 279/279/279 259/259/259
f 540/540/537 259/259/259 522/522/519
f 634/634/630 540/540/537 522/522/519
f 634/634/630 522/522/519 521/521/518
f 92/92/92 565/565/561 560/560/556
f 92/92/92 560/560/556 93/93/93
f 93/93/93 107/107/107 96/96/96
f 93/93/93 96/96/96 91/91/91
f 80/80/80 94/94/94 95/95/95
f 80/80/80 95/95/95 555/555/551
f 555/555/551 95/95/95 97/97/97
f 555/555/551 97/97/97 556/556/552
f 96/96/96 95/95/95 94/94/94
f 96/96/96 94/94/94 91/91/91
f 79/79/79 92/92/92 94/94/94
f 79/79/79 94/94/94 80/80/80
f 97/97/97 564/564/560 568/568/564
f 97/97/97 568/568/564 558/558/554
f 553/553/549 552/552/548 126/126/126
f 553/553/549 126/126/126 635/635/631
f 399/399/396 398/398/395 413/413/410
f 399/399/396 413/413/410 412/412/409
f 119/119/119 118/118/118 88/88/88
f 119/119/119 88/88/88 90/90/90
f 86/86/86 626/626/622 636/636/632
f 86/86/86 636/636/632 544/544/540
f 637/637/633 553/553/549 635/635/631
f 637/637/633 635/635/631 638/638/634
f 626/626/622 108/108/108 121/121/121
f 626/626/622 121/121/121 636/636/632
f 108/108/108 551/551/547 122/122/122
f 108/108/108 122/122/122 121/121/121
f 126/126/126 125/125/125 639/639/635
f 126/126/126 639/639/635 635/635/631
f 395/395/392 299/299/297 553/553/549
f 395/395/392 553/553/549 637/637/633
f 396/396/393 395/395/392 637/637/633
f 396/396/393 637/637/633 549/549/545
f 549/549/545 637/637/633 638/638/634
f 549/549/545 638/638/634 550/550/546
f 397/397/394 396/396/393 549/549/545
f 397/397/394 549/549/545 548/548/544
f 294/294/292 397/397/394 548/548/544
f 294/294/292 548/548/544 547/547/543
f 552/552/548 625/625/621 124/124/124
f 552/552/548 124/124/124 126/126/126
f 635/635/631 639/639/635 550/550/546
f 635/635/631 550/550/546 638/638/634
f 121/121/121 123/123/123 550/550/546
f 121/121/121 550/550/546 639/639/635
f 125/125/125 124/124/124 544/544/540
f 125/125/125 544/544/540 636/636/632
f 544/544/540 124/124/124 625/625/621
f 544/544/540 625/625/621 545/545/541
f 86/86/86 85/85/85 116/116/116
f 86/86/86 116/116/116 626/626/622
f 246/246/246 518/518/515 533/533/530
f 246/246/246 533/533/530 268/268/268
f 58/58/58 59/59/59 56/56/56
f 59/59/59 58/58/58 25/25/25
f 25/25/25 58/58/58 23/23/23
f 643/643/636 641/641/637 642/642/638
f 641/641/637 643/643/636 644/644/639
f 641/641/637 644/644/639 649/649/640
f 649/649/640 644/644/639 648/648/641
f 648/648/641 644/644/639 645/645/642
f 648/648/641 645/645/642 646/646/643
f 648/648/641 646/646/643 647/647/644
f 641/641/637 650/650/645 640/640/646
f 650/650/645 641/641/637 649/649/640
f 120/120/120 118/118/118 117/117/117
f 118/118/118 120/120/120 89/89/89
f 118/118/118 89/89/89 88/88/88
f 656/656/647 654/654/648 655/655/649
f 654/654/648 656/656/647 657/657/650
f 654/654/648 657/657/650 653/653/651
f 653/653/651 657/657/650 658/658/652
f 653/653/651 658/658/652 661/661/653
f 661/661/653 658/658/652 659/659/654
f 661/661/653 659/659/654 660/660/655
f 661/661/653 652/652/656 653/653/651
f 652/652/656 661/661/653 651/651/657
